<?xml version="1.0" standalone="no"?>
<!DOCTYPE svg PUBLIC "-//W3C//DTD SVG 1.1//EN" "http://www.w3.org/Graphics/SVG/1.1/DTD/svg11.dtd">
<svg xmlns="http://www.w3.org/2000/svg">
<defs >
<font id="DancingScript" horiz-adv-x="497" ><font-face
    font-family="Dancing Script"
    units-per-em="1000"
    panose-1="0 0 0 0 0 0 0 0 0 0"
    ascent="920"
    descent="-280"
    alphabetic="0" />
<glyph unicode=" " horiz-adv-x="260" />
<glyph unicode="!" horiz-adv-x="295" d="M115 297Q137 354 161 414T209 528T256 626T300 695T341 720Q352 720 360 712T369 690Q369 676 353 635T309 537T249 416T183 291T121 180T73 104Q70 105 67 106T61 108Q62 134 70 167T91 234T115 297ZM40 -10Q24 -10
12 -2T0 24Q0 43 20 57T65 71Q80 71 89 64T99 40Q99 23 81 7T40 -10Z" />
<glyph unicode="&quot;" horiz-adv-x="270" d="M293 576Q278 584 272 595T265 620Q265 640 274 663T297 704T328 722Q340 722 350 712T361 685Q339 663 320 632T293 576ZM179 576Q164 584 158 595T151 620Q151 640 160 663T183 704T214 722Q226 722 236 712T247
685Q225 663 206 632T179 576Z" />
<glyph unicode="#" horiz-adv-x="720" d="M114 -162Q135 -137 155 -88T194 26T230 165Q196 164 162 161T85 155L19 150Q21 181 50 198T131 224T245 233Q247 244 249 257T254 281Q225 281 193 278T121 272L55 267Q57 297 86 314T163 339T270 349Q290 451 305 534T332
670Q335 686 344 700T393 722Q389 702 379 647T355 515T325 351Q358 350 387 350T447 347Q469 449 484 533T509 670Q512 686 522 700T571 722Q567 706 561 670T545 583T525 471T501 344Q553 342 614 338T725 334Q685 300 655 294T600 288Q568 288 541 288T491 287Q487
268 484 254T479 226Q524 224 582 221T687 217Q647 183 618 177T564 171Q536 171 514 171T468 170Q447 61 426 -13T374 -124T292 -162Q313 -137 333 -87T373 28T408 167H289Q267 59 247 -14T197 -125T114 -162ZM422 230L434 286Q397 286 369 286T312 284L302 233Q334
233 363 233T422 230Z" />
<glyph unicode="$" horiz-adv-x="565" d="M150 -162Q165 -142 179 -115T204 -57Q154 -52 111 -34T40 17T13 98Q13 145 37 175T97 219T167 234Q134 200 118 164T102 96Q102 50 133 23T220 -11Q237 48 253 116T286 260Q250 279 217 301T162 354T140 431Q140 487
170 533T251 611T364 653Q364 667 372 681T395 707T430 720Q427 707 424 693T416 656Q484 655 510 625T536 547Q536 507 523 464T485 381Q462 386 450 400T438 430Q438 447 447 473T465 526T474 574Q474 595 460 606T409 618Q396 544 383 471T355 323Q392 305 426
283T483 228T506 146Q506 86 474 43T388 -26T271 -57Q252 -108 223 -135T150 -162ZM286 -10Q350 -2 385 32T421 116Q421 157 397 184T338 232Q322 149 309 84T286 -10ZM306 349Q320 423 334 493T356 612Q313 602 282 577T235 519T218 455Q218 417 243 393T306 349Z"
/>
<glyph unicode="%" horiz-adv-x="740" d="M88 -87Q113 -63 150 -11T232 112T322 260T409 416T484 559T534 671Q538 682 553 693T588 712T626 720Q622 704 603 661T554 560T490 435T420 304T354 185T300 97Q247 15 197 -36T88 -87ZM203 339Q156 339 133 373T109
453Q109 487 119 524T150 595T198 649T262 670Q305 670 332 641T359 561Q359 529 348 491T317 418T268 361T203 339ZM209 391Q226 391 241 408T267 451T285 508T292 566Q292 590 286 605T264 620Q243 620 228 603T202 558T186 503T180 451Q180 425 187 408T209
391ZM548 -1Q500 -1 477 33T454 112Q454 146 464 183T494 254T542 308T607 329Q650 329 676 300T703 220Q703 188 692 150T661 78T613 21T548 -1ZM553 51Q570 51 585 67T612 111T630 168T637 225Q637 249 630 264T608 280Q587 280 572 262T546 217T530 160T524
108Q524 82 532 67T553 51Z" />
<glyph unicode="&amp;" horiz-adv-x="675" d="M231 -87Q167 -87 119 -62T44 6T17 99Q17 144 36 187T89 266T170 326T272 359Q237 391 219 430T200 509Q200 563 227 611T303 689T418 719Q478 719 509 691T541 608Q541 570 528 534T496 474T458 450Q444 450 432
462T410 491Q447 521 471 554T496 622Q496 650 480 667T429 685Q384 685 353 659T306 592T290 501Q290 478 294 450T315 394T363 339Q291 328 238 290T156 200T127 99Q127 69 139 37T181 -17T257 -39Q311 -39 360 -14T449 53T516 149T549 258Q530 257 513 255T473
249T413 238Q414 289 447 306T526 323Q558 323 584 319T637 311T697 306Q681 273 669 267T644 260Q626 260 614 260T588 259Q581 191 550 129T469 18T359 -59T231 -87Z" />
<glyph unicode="&apos;" horiz-adv-x="156" d="M179 576Q164 584 158 595T151 620Q151 640 160 663T183 704T214 722Q226 722 236 712T247 685Q225 663 206 632T179 576Z" />
<glyph unicode="(" horiz-adv-x="295" d="M178 -87Q150 -72 127 -31T91 68T77 192Q77 287 100 368T159 515T238 625T322 695T393 720Q329 671 283 608T208 473T165 327T151 181Q151 102 166 41T206 -58Q200 -70 193 -76T178 -87Z" />
<glyph unicode=")" horiz-adv-x="315" d="M0 -87Q-9 -87 -19 -75T-34 -53Q39 -5 98 69T192 240T228 454Q228 519 212 585T139 725Q172 717 208 680T270 581T295 433Q295 343 273 264T215 121T139 10T61 -62T0 -87Z" />
<glyph unicode="*" horiz-adv-x="416" d="M390 404Q368 427 342 461T291 531Q266 485 239 451T171 415Q187 437 199 458T221 501T243 543Q204 543 170 550T127 589Q150 590 182 591T242 594Q222 624 210 651T197 696Q197 713 207 720T218 733Q243 689 257 662T288
611Q302 655 328 688T394 731Q381 694 363 661T330 595Q356 595 380 593T429 582T475 555L340 544Q353 527 364 510T382 468T390 404Z" />
<glyph unicode="+" horiz-adv-x="441" d="M171 -7Q175 22 176 46T178 94T179 148Q149 148 125 147T74 144T13 136Q25 171 69 184T177 199V240Q177 265 184 292T216 356Q219 332 224 289T230 199Q281 198 331 195T408 189Q372 164 339 156T282 148H231Q231 107
226 73T209 18T171 -7Z" />
<glyph unicode="," horiz-adv-x="216" d="M32 -88Q19 -80 12 -69T5 -44Q5 -24 14 0T37 41T68 59Q81 59 90 49T100 26Q76 -1 63 -26T32 -88Z" />
<glyph unicode="-" horiz-adv-x="507" d="M55 142Q62 164 83 177T130 196T179 203T214 205Q227 205 257 204T322 202T387 200T430 198Q420 175 385 160T308 144Q287 144 254 147T183 150Q158 150 131 149T84 145T55 142Z" />
<glyph unicode="." horiz-adv-x="242" d="M72 -10Q48 -10 38 2T28 28Q28 39 38 51T63 72T91 81Q102 81 113 75T124 50Q124 42 118 28T101 2T72 -10Z" />
<glyph unicode="/" horiz-adv-x="355" d="M-63 -162Q-40 -140 -11 -93T50 17T115 152T179 300T239 445T291 574T329 671Q333 682 349 693T387 711T435 719Q431 707 416 671T378 581T329 465T274 337T220 211T173 102T140 24Q102 -64 46 -113T-63 -162Z" />
<glyph unicode="0" horiz-adv-x="660" d="M273 -87Q202 -87 156 -51T86 47T63 185Q63 250 79 323T127 467T204 594T308 686T436 720Q501 720 550 688T626 594T653 442Q653 369 635 294T582 151T501 29T397 -56T273 -87ZM287 -39Q332 -39 373 -6T449 82T508 206T548
346T562 481Q562 538 550 582T510 653T436 679Q391 679 354 654T286 587T232 491T194 380T171 268T163 168Q163 74 196 18T287 -39Z" />
<glyph unicode="1" horiz-adv-x="392" d="M72 -87Q37 -87 12 -73T-34 -31Q-17 -32 -7 -33T18 -34Q40 -34 68 -31T122 -24Q139 16 155 75T185 201T211 337T234 464T254 564Q201 529 179 518T142 507Q129 507 121 515T113 548Q133 558 170 583T253 644T339 719Q346
713 349 703T352 680Q352 657 344 632T330 572Q320 506 308 433T279 282T240 130T187 -15Q196 -14 204 -14T222 -13Q260 -13 289 -26T329 -84Q304 -81 281 -80T237 -78Q208 -78 176 -80T116 -84T72 -87Z" />
<glyph unicode="2" horiz-adv-x="599" d="M438 -87Q405 -87 364 -75T278 -45T192 -13Q159 -32 130 -43T73 -54Q39 -54 17 -38T-6 7Q-6 31 13 45T78 60Q101 60 128 57T187 47Q233 86 279 144T365 271T428 409T452 541Q452 612 422 645T344 679Q299 679 269 652T225
584T210 501Q210 477 214 457T229 414Q225 414 220 414T210 416Q181 419 157 440T133 512Q133 566 161 613T240 690T355 720Q415 720 455 694T516 624T537 523Q537 483 527 440T497 352Q472 292 434 234T349 124T254 33Q319 19 373 10T460 0Q485 0 503 7T553 31Q537
-30 510 -58T438 -87ZM71 -13Q85 -13 100 -8T132 8Q113 14 97 17T69 20Q51 20 45 15T39 4Q40 -3 49 -8T71 -13Z" />
<glyph unicode="3" horiz-adv-x="542" d="M201 -87Q135 -87 95 -64T37 -6T19 62Q19 88 29 113T58 156T108 173Q113 173 120 173T143 169Q124 154 113 126T101 72Q101 44 114 18T152 -24T209 -41Q248 -41 284 -15T343 57T367 164Q367 202 355 239T314 306T232 349Q288
373 328 414T390 502T412 591Q412 640 384 659T322 679Q295 679 270 668T228 636T211 584Q211 568 216 551T231 515Q225 503 211 492T182 480Q168 480 157 493T141 527T135 568Q135 616 164 650T239 702T334 720Q377 720 415 704T479 657T504 579Q504 549 493 516T460
453T409 399T344 361Q397 343 428 311T472 242T486 169Q486 123 466 78T407 -5T316 -65T201 -87Z" />
<glyph unicode="4" horiz-adv-x="508" d="M341 -87Q295 -84 271 -70T247 -33Q247 -27 248 -12T255 36T271 125Q276 146 281 174T291 230Q271 232 250 233T221 234Q211 234 188 233T136 231T79 227T30 222T3 216Q3 242 18 260T53 297Q89 330 140 379T250 487T361
605T453 720Q461 716 469 709T478 685Q478 661 458 630Q453 607 443 559T420 444T392 296Q396 296 400 296T407 296Q445 296 465 298T508 307Q484 274 452 253T387 229Q386 229 384 229T380 229Q379 226 377 214T372 181Q368 154 363 119T352 45T344 -28T341 -87ZM119
298Q139 300 161 300T209 301Q235 301 259 301T306 299Q319 360 331 415T359 519Q329 491 296 461T229 401T165 343Q153 331 142 320T119 298Z" />
<glyph unicode="5" horiz-adv-x="513" d="M195 -87Q125 -87 85 -64T27 -6T9 61Q9 87 18 113T47 156T97 173Q102 173 109 173T133 169Q114 154 103 127T91 69Q91 42 101 17T135 -24T194 -41Q233 -41 263 -22T315 28T348 96T359 171Q359 211 345 245T302 301T223
323Q204 323 177 320T118 310Q123 343 133 387T156 480T182 573T206 656T223 715Q257 707 285 704T338 701Q381 701 421 707T504 721Q507 709 509 701T511 683Q511 654 491 637T439 613T377 606Q340 606 312 612T263 618Q259 618 256 615T249 607Q240 594 231 568T214
511T198 449T184 394T174 357Q194 361 214 363T256 365Q328 365 376 340T448 270T472 169Q472 99 438 41T341 -52T195 -87Z" />
<glyph unicode="6" horiz-adv-x="592" d="M282 -87Q203 -87 154 -54T81 38T58 168Q58 233 75 308T126 456T207 588T318 684T454 720Q500 720 530 705T561 656Q561 640 550 625T501 600Q502 608 502 617T503 633Q503 654 493 668T451 683Q404 683 363 652T289 569T230
454T188 327Q222 353 265 367T354 381Q407 381 452 360T526 295T554 181Q554 106 520 45T425 -51T282 -87ZM287 -41Q325 -41 355 -22T406 30T438 103T450 185Q450 237 433 269T386 317T316 333Q261 333 228 306T179 237T164 145Q164 118 169 86T188 25T225 -22T287
-41Z" />
<glyph unicode="7" horiz-adv-x="439" d="M125 -87Q109 -87 96 -74T82 -35Q82 -8 98 39T143 151T210 292Q191 292 166 291T116 287T68 282Q69 313 89 329T144 353T220 361Q227 361 233 361T247 361Q273 402 312 469T405 622Q381 622 355 621T304 618T254 616Q186
616 161 631T135 670Q135 691 152 719Q183 714 214 709T279 702T346 699Q395 699 446 705T540 725Q524 704 509 684T479 643Q433 578 395 511T315 357Q335 355 354 354T393 353Q409 353 425 354T458 360Q434 328 411 310T360 292Q343 292 324 292T285 292Q267 251
247 202T213 106T199 24Q199 11 202 0T215 -18Q196 -57 168 -72T125 -87Z" />
<glyph unicode="8" horiz-adv-x="561" d="M236 -87Q181 -87 144 -71T85 -29T53 27T43 84Q43 128 63 162T115 226T185 283T259 337Q230 367 203 399T159 469T142 552Q142 612 171 648T245 702T338 719Q411 719 458 682T505 569Q505 522 486 483T436 411T364 348Q399
314 429 280T478 209T497 125Q497 61 460 13T363 -61T236 -87ZM245 -34Q281 -34 316 -15T374 39T398 120Q398 173 368 215T297 299Q253 269 213 237T146 167T120 85Q120 48 138 21T185 -20T245 -34ZM327 387Q373 425 402 468T432 568Q432 623 405 650T340 678Q318
678 294 667T253 631T236 564Q236 512 262 470T327 387Z" />
<glyph unicode="9" horiz-adv-x="598" d="M215 -87Q169 -87 137 -71T105 -21Q105 -5 116 10T163 36Q163 29 163 21T165 4Q168 -17 179 -33T217 -50Q264 -50 303 -19T374 64T429 179T465 306Q432 281 389 267T301 253Q244 253 198 276T124 345T96 460Q96 536 128
594T219 686T357 720Q443 720 494 682T567 580T590 441Q590 374 574 301T526 159T449 35T345 -54T215 -87ZM341 301Q414 301 448 347T483 471Q483 501 477 536T457 603T417 654T353 674Q317 674 288 656T240 606T210 536T199 457Q199 405 217 370T267 318T341 301Z"
/>
<glyph unicode=":" horiz-adv-x="251" d="M128 228Q114 228 101 236T88 261Q88 280 109 294T153 308Q168 308 177 301T186 277Q186 261 169 245T128 228ZM72 -10Q58 -10 45 -2T32 23Q32 42 53 56T97 70Q112 70 121 63T130 39Q130 23 113 7T72 -10Z" />
<glyph unicode=";" horiz-adv-x="250" d="M51 -88Q37 -80 30 -68T23 -43Q23 -22 32 3T57 48T90 67Q103 67 113 57T125 33Q100 5 85 -21T51 -88ZM128 229Q112 229 100 237T88 263Q88 282 108 296T152 310Q167 310 177 303T187 279Q187 263 169 246T128 229Z" />
<glyph unicode="&lt;" horiz-adv-x="328" d="M202 44Q183 44 156 56T102 88T55 128T30 165Q67 178 103 203T170 259T225 323Q230 319 234 309T239 287Q239 267 224 248T185 210T134 176T80 147Q100 134 119 123T168 100T244 70Q236 61 225 53T202 44Z" />
<glyph unicode="=" horiz-adv-x="517" d="M60 194Q65 221 92 234T160 251T249 255Q283 255 318 253T385 249T434 244Q397 219 365 212T312 204H215Q186 204 162 204T114 201T60 194ZM63 106Q65 133 92 146T161 163T251 167Q285 167 320 165T387 161T436 156Q400
131 368 124T314 116H218Q189 116 165 116T117 113T63 106Z" />
<glyph unicode="&gt;" horiz-adv-x="337" d="M116 44Q102 44 90 52T72 70Q119 87 147 99T194 123T232 147Q206 160 177 176T123 210T82 247T66 287Q66 295 69 303T77 320Q99 293 133 263T206 206T282 166Q278 150 259 129T214 89T162 57T116 44Z" />
<glyph unicode="?" horiz-adv-x="462" d="M265 119Q240 132 232 142T223 175Q223 222 242 260T289 333T346 403T394 478T413 569Q413 623 391 651T336 680Q302 680 268 653T212 581T189 481Q189 464 191 449T200 413Q151 421 135 443T118 497Q118 554 145 605T222
688T339 720Q407 720 448 685T489 582Q489 538 473 504T433 440T381 381T330 317T292 237Q282 203 280 178T265 119ZM222 -10Q206 -10 194 -2T182 23Q182 43 203 57T247 71Q262 71 272 64T282 42Q282 23 264 7T222 -10Z" />
<glyph unicode="@" horiz-adv-x="613" d="M242 -121Q163 -121 113 -91T38 -12T13 92Q13 148 36 202T102 299T206 369T343 395Q421 395 471 369T547 300T572 210Q572 173 558 137T520 71T462 23T391 5Q360 5 344 17T320 48Q318 56 317 63T316 79Q283 40 252 16T188
-8Q162 -8 142 10T121 64Q121 99 141 141T194 222T268 285T351 310Q386 310 409 293T433 253Q433 233 423 225T400 214T382 213Q383 218 383 223T384 233Q384 250 380 264T352 279Q324 279 295 256T241 197T202 124T187 61Q187 46 191 41T202 35Q214 35 238 52T290
97T341 153T376 207Q389 205 403 197T418 180Q418 168 407 150T384 110T372 71Q372 64 377 55T402 46Q433 46 461 69T507 128T526 203Q526 238 508 272T449 330T344 353Q280 353 228 330T139 269T83 184T63 89Q63 47 81 7T140 -59T252 -85Q303 -85 359 -66T470
3L484 -15Q443 -60 383 -90T242 -121Z" />
<glyph unicode="A" horiz-adv-x="631" d="M46 -87Q16 -71 8 -54T0 -25Q0 2 19 47T72 152T147 275Q116 277 88 278T16 279H0Q14 315 44 329T116 344Q133 344 151 342T190 338Q240 410 288 474T380 589T458 674Q506 722 528 722Q542 722 559 711T596 683Q586 675
571 642T538 559T503 448T471 326T449 208T440 108Q440 68 448 49T475 29Q498 29 532 64T608 178L626 159Q595 77 546 24T440 -29Q392 -29 372 12T352 126Q352 149 355 178T365 250Q321 257 287 261T222 269Q174 184 129 93T46 -87ZM375 299Q388 358 405 418T442
534T481 634Q451 610 414 565T337 459T254 326Q284 320 314 313T375 299Z" />
<glyph unicode="B" horiz-adv-x="650" d="M165 -87Q104 -87 73 -67T41 -1Q41 9 52 9Q61 9 79 5T150 0Q238 0 312 18T440 68T525 139T555 222Q555 261 532 284T470 320T386 337T296 341Q277 341 258 341T222 340Q200 264 179 183T135 24Q105 24 83 40T61 79Q61
88 64 102T75 137Q81 156 95 200T130 304T174 430T225 561T278 676Q238 667 212 655T171 634T148 625Q142 625 133 632T116 648T108 664Q162 686 220 703T360 720Q396 720 439 715T521 693T585 644T611 557Q611 514 593 483T543 429T475 392T402 368Q464 360 505
343T571 302T606 255T617 207Q617 148 586 101T505 19T394 -39T273 -75T165 -87ZM232 378Q288 380 342 391T439 423T509 479T535 565Q535 613 509 639T441 675T351 685Q350 685 349 685T347 685Q313 618 285 540T232 378Z" />
<glyph unicode="C" horiz-adv-x="570" d="M250 -87Q174 -87 126 -51T55 42T32 160Q32 239 56 318T122 470T219 598T334 686T457 719Q501 719 531 699T561 628Q561 598 551 561T523 490T483 433T438 411Q428 411 417 418T397 442Q412 459 431 483T467 535T495 589T506
636Q506 654 496 664T461 675Q417 675 371 642T281 554T204 430T149 289T129 151Q129 103 143 60T190 -11T274 -39Q328 -39 381 -9T479 70T551 175L577 158Q542 91 493 36T383 -53T250 -87Z" />
<glyph unicode="D" horiz-adv-x="687" d="M191 -87Q156 -87 125 -78T70 -37Q73 -13 84 33T113 137T149 258T186 376T219 475T241 537Q244 545 251 561T269 594T294 622T326 634Q343 634 364 620Q333 550 302 465T242 289T190 113T151 -44Q159 -47 173 -48T201
-50Q266 -50 325 -19T433 65T520 183T577 318T597 450Q597 531 570 581T494 655T384 679Q319 679 267 656T186 592T156 499Q156 488 158 476T165 451Q122 451 104 469T85 515Q85 550 110 586T181 652T287 701T417 720Q515 720 574 683T659 582T686 440Q686 354
659 276T583 131T471 16T336 -60T191 -87Z" />
<glyph unicode="E" horiz-adv-x="533" d="M209 -87Q145 -87 97 -62T23 6T-4 101Q-4 145 15 188T68 266T149 326T251 359Q215 391 197 430T179 510Q179 563 206 611T282 689T396 719Q457 719 490 690T523 604Q523 565 509 530T476 472T437 450Q423 450 411 462T389
491Q426 521 451 555T477 625Q477 655 457 670T405 686Q360 686 330 659T284 589T268 501Q268 458 284 415T342 339Q270 328 217 290T135 200T106 99Q106 69 118 36T159 -19T236 -42Q291 -42 344 -12T441 69T513 175L540 158Q503 89 453 34T342 -54T209 -87Z" />
<glyph unicode="F" horiz-adv-x="522" d="M188 -87Q135 -83 119 -61T102 -6Q102 31 115 83T149 194T195 311Q184 310 161 308T113 304T73 298Q76 329 96 346T149 372T220 381Q246 453 273 521T329 647Q323 648 315 648T293 649Q232 649 199 636T153 599T140 540Q140
515 145 495T160 450Q113 458 93 480T73 537Q73 589 111 629T215 692T363 715Q416 715 469 708T568 701Q593 701 616 704T669 716Q621 663 591 645T531 627Q507 627 469 633T387 643Q374 611 359 569T329 479T297 380Q349 376 391 371T484 364Q472 348 460 339T427
325T371 319T278 316Q270 286 261 255T246 202T237 175Q209 79 199 19T188 -87Z" />
<glyph unicode="G" horiz-adv-x="585" d="M238 -87Q182 -87 135 -58T60 28T32 164Q32 241 56 320T122 470T218 598T332 686T454 719Q498 719 524 703T561 659T573 601Q573 566 561 531T527 473T479 450Q467 450 457 457T437 483Q452 493 470 518T503 573T517 628Q517
648 505 661T463 675Q418 675 371 642T280 553T203 429T148 289T128 153Q128 62 167 12T262 -39Q303 -39 337 -13T398 55T441 148T461 246Q436 251 410 253T354 256Q338 256 322 256T288 254Q297 289 316 305T368 322Q398 322 428 313T490 292T552 274L542 243Q524
188 513 152T495 90T487 44T485 1Q485 -19 486 -40T488 -93Q458 -89 444 -76T425 -44T420 -9Q420 -4 420 1T421 11Q386 -32 341 -59T238 -87Z" />
<glyph unicode="H" horiz-adv-x="663" d="M72 -87Q78 -51 85 -14T104 68T133 171T176 306Q161 305 144 303T111 300Q111 332 135 349T198 374Q202 388 205 396T212 416T224 449T245 511T281 616Q283 621 288 636T293 664Q293 672 291 675T280 678Q260 678 240
660T202 615T175 558T165 505Q165 497 167 487T175 460Q133 460 115 478T96 526Q96 560 116 594T169 656T238 702T306 720Q338 720 350 703T362 665Q362 654 360 643T354 622L281 382Q293 383 305 383T331 383Q380 383 423 381T506 375Q531 459 548 513T579 602T604
665Q608 673 615 686T637 710T676 721Q663 686 645 629T607 504T571 370Q585 370 610 369T658 367Q627 336 603 329T559 321Q548 275 539 233T524 155Q512 91 507 44T501 -34Q501 -50 502 -62T506 -87Q455 -82 437 -63T418 6Q418 29 421 57T434 123Q442 160 456
208T490 320Q429 320 389 319T319 317T259 313Q258 309 254 296T240 250T210 153T156 -19Q145 -56 118 -71T72 -87Z" />
<glyph unicode="I" horiz-adv-x="503" d="M-18 -88Q-14 -45 10 -26T72 0T154 6Q172 44 188 97T220 212T250 336T278 459T303 568T326 649Q275 648 236 645T161 637T89 625Q100 675 152 697T311 719Q364 719 421 715T526 706T601 697Q567 665 537 658T485 650Q452
650 427 650T377 649Q370 615 362 566T343 461T322 349T302 245T284 164Q271 112 253 69T212 4Q265 0 319 -6T438 -14Q398 -51 362 -60T303 -70Q236 -70 192 -70T114 -72T51 -78T-18 -88Z" />
<glyph unicode="J" horiz-adv-x="440" d="M104 -86Q78 -86 50 -77T2 -38T-18 49Q-18 89 -9 128T19 194T64 221Q78 221 103 210Q84 163 75 122T65 49Q65 9 82 -14T127 -37Q151 -37 171 -16T212 61Q227 104 244 164T278 293T310 429T337 555T356 654Q308 653 272
651T205 643T142 631Q149 678 192 698T322 718Q364 718 409 714T492 705T552 696Q536 669 508 662T461 655Q445 655 428 655T403 654Q410 645 413 635T416 615Q416 602 409 559T390 453T360 320T323 183T278 63Q251 5 223 -27T165 -73T104 -86Z" />
<glyph unicode="K" horiz-adv-x="637" d="M542 -87Q518 -87 488 -63T423 2T355 90T293 186T242 275L151 -19Q144 -43 126 -53T85 -66T43 -69Q57 -38 71 -3T102 83T143 204T203 376T288 616Q290 623 295 635T300 659Q300 668 296 673T280 678Q256 678 235 660T197
614T171 557T161 506Q161 483 171 460Q128 460 110 478T91 525Q91 559 112 593T165 656T234 702T302 720Q336 720 346 702T357 662Q357 651 355 641T350 622L276 382Q287 389 301 400T345 433Q401 477 453 525T549 623T625 723Q637 712 641 696T645 669Q645 638
620 602T553 526T462 449T364 378T276 320Q308 271 337 227T403 141T487 53T604 -45Q595 -62 577 -74T542 -87Z" />
<glyph unicode="L" horiz-adv-x="610" d="M437 -87Q400 -87 354 -72T260 -36T165 4Q140 -23 111 -38T49 -53Q14 -53 -11 -38T-50 0T-64 40Q-64 60 -46 75T18 90Q45 90 77 85T144 70Q167 110 186 164T225 277T263 394Q213 411 186 441T159 503Q159 523 169 542T198
575T243 589Q230 573 227 553T223 521Q223 488 238 465T275 429Q294 486 315 538T363 631T422 696T496 720Q519 720 544 711T588 678T607 612Q607 578 593 539T547 465T468 406T350 380Q348 380 346 380T341 380Q322 322 301 263T256 150T204 54Q243 43 290 29T385
6T469 -4Q493 -4 513 1T557 18Q537 -38 508 -62T437 -87ZM39 -16Q65 -16 81 -5T113 24Q82 35 55 42T8 50Q-11 50 -19 43T-28 26Q-28 10 -8 -3T39 -16ZM352 413Q396 416 430 441T488 501T524 572T537 636Q537 662 527 671T504 681Q475 681 449 644T400 547T352 413Z"
/>
<glyph unicode="M" horiz-adv-x="806" d="M-5 -87Q0 -72 24 -19T90 124T189 337T316 614Q320 622 322 631T325 647Q325 657 319 663T296 669Q254 669 228 644T189 581T176 508Q176 499 177 487T180 460Q156 460 141 474T117 510T109 551Q109 583 127 613T176 667T242
706T315 720Q352 720 378 700T418 626T432 472Q432 407 428 341T418 216T413 117Q433 176 462 242T526 374T593 498T652 599T693 664Q707 686 718 697T748 708Q762 708 792 697Q783 678 771 637T745 540Q730 480 715 409T688 264T669 126T661 10Q661 -16 663 -31T670
-57T681 -87Q638 -87 616 -74T586 -33T578 43Q578 154 603 276T663 529Q635 489 605 434T546 318T491 198T445 88T414 3Q405 0 402 -1T393 -2Q358 -2 349 40T339 157Q339 196 340 240T343 331T346 424T347 512Q347 527 347 542T346 571Q270 394 218 269T128 65T60
-50T-5 -87Z" />
<glyph unicode="N" horiz-adv-x="674" d="M56 -87Q71 -37 90 22T134 162T192 354T268 616Q269 619 272 631T275 655Q275 663 273 666T262 669Q241 669 222 652T187 610T163 557T154 507Q154 483 164 460Q120 460 102 478T84 525Q84 559 105 593T158 656T226 702T291
720Q326 720 348 695T385 625T410 525T429 407Q441 327 448 280T459 204T467 157T475 114Q487 162 499 215T525 324T550 431T576 530T601 611T626 668Q635 684 654 702T707 721Q690 676 669 610T625 466T583 308T546 152T521 14T511 -87Q474 -87 451 -70T415 -1Q411
16 403 56T385 150T364 265T343 382T325 485T312 555Q267 391 235 278T179 93T136 -18T98 -72T56 -87Z" />
<glyph unicode="O" horiz-adv-x="655" d="M242 -87Q184 -87 136 -57T60 30T32 164Q32 241 56 319T122 469T220 597T339 686T470 719Q480 719 499 715T538 691Q532 692 525 692T509 693Q457 693 404 661T303 573T218 449T158 304T136 158Q136 106 150 61T195 -11T277
-39Q332 -39 380 -6T467 82T534 206T577 347T592 486Q592 515 588 548T575 606T547 630Q530 630 510 609T471 554T438 485T417 419Q383 426 369 441T354 477Q354 504 373 537T422 600T486 651T549 671Q579 671 597 650T626 594T640 522T644 450Q644 348 619 264T552
114T457 4T349 -64T242 -87Z" />
<glyph unicode="P" horiz-adv-x="559" d="M117 -87Q87 -87 61 -71T34 -30Q34 -17 38 -2T47 26Q78 121 105 203T159 362T217 516T286 677Q248 669 221 657T177 635T152 625Q147 625 138 632T121 648T114 664Q142 676 179 689T261 711T349 720Q396 720 445 708T535
671T602 610T628 524Q628 471 604 433T541 369T455 327T364 303T282 292T228 289H222Q194 190 167 92T117 -87ZM231 320Q287 324 343 339T444 380T517 447T545 540Q545 590 519 621T451 668T363 685Q327 615 294 520T231 320Z" />
<glyph unicode="Q" horiz-adv-x="728" d="M559 -119Q511 -119 470 -95T390 -39Q365 -51 339 -57T283 -64Q244 -64 221 -54T185 -28T169 2T164 26Q164 46 182 67T246 88Q288 88 328 70T411 26Q454 65 487 123T544 248T579 379T591 496Q591 577 559 628T454 679Q396
679 346 647T257 560T189 437T145 297T130 157Q130 137 132 112T142 57Q104 57 83 77T53 131T44 201Q44 275 64 349T120 490T208 609T321 690T454 720Q557 720 617 654T677 472Q677 411 661 345T614 215T544 96T455 2Q488 -14 524 -25T598 -37Q624 -37 636 -32T669
-22Q657 -64 638 -85T598 -112T559 -119ZM265 -34Q292 -34 315 -26T354 -10Q325 14 296 32T235 50Q215 50 205 42T194 19Q194 9 200 -3T222 -25T265 -34Z" />
<glyph unicode="R" horiz-adv-x="616" d="M505 -121Q481 -121 450 -95T386 -27T320 65T258 167T209 259Q182 167 158 78T111 -88Q82 -88 57 -72T31 -30Q31 -19 36 -4T45 25Q74 112 97 180T140 306T182 420T230 539T290 679Q251 671 222 658T174 635T148 625Q143
625 133 631T116 647T108 664Q136 675 173 688T256 710T349 720Q394 720 442 710T531 676T597 616T622 527Q622 480 601 446T545 387T468 348T383 325T304 313T243 309Q275 258 306 210T372 115T455 20T566 -77Q562 -97 542 -109T505 -121ZM232 339Q288 343 342
357T441 396T512 458T539 547Q539 599 513 628T446 671T360 685Q326 618 294 528T232 339Z" />
<glyph unicode="S" horiz-adv-x="567" d="M233 -87Q175 -87 123 -67T37 -6T4 96Q4 150 28 180T88 223T158 235Q126 201 110 165T93 96Q93 62 110 33T163 -15T250 -34Q295 -34 337 -19T407 26T435 101Q435 142 412 171T351 224T273 269T195 316T135 374T111 453Q111
494 131 540T190 628T282 694T402 720Q471 720 499 691T527 615Q527 578 514 536T483 456T447 391Q425 396 414 408T403 442Q403 463 411 489T431 543T451 597T460 644Q460 662 450 672T407 682Q359 682 319 661T250 608T204 541T188 476Q188 440 211 415T270 368T347
326T424 279T484 217T507 129Q507 77 484 37T420 -30T332 -72T233 -87Z" />
<glyph unicode="T" horiz-adv-x="540" d="M233 -87Q178 -87 157 -66T135 -10Q135 19 146 59T170 137Q194 208 220 277T272 410T323 532T369 639Q301 638 252 635T161 628T76 615Q81 657 115 679T208 711T341 720Q380 720 414 719T480 714T542 708Q605 702 642
700T696 698Q666 670 621 658T525 642T430 639Q382 521 342 394T268 143Q255 95 247 62T234 1T230 -58Q230 -63 230 -69T233 -87Z" />
<glyph unicode="U" horiz-adv-x="750" d="M588 -99Q551 -99 525 -66T498 13Q498 21 498 35T500 65Q464 -2 412 -45T287 -88Q220 -88 183 -48T145 64Q145 108 157 159T187 266T223 376T253 486T265 588Q265 678 211 678Q184 678 165 661T134 619T115 567T109 523Q109
508 113 491T122 459Q74 459 54 481T33 536Q33 567 48 599T90 658T155 702T235 719Q296 719 323 684T351 590Q351 553 342 508T319 415T291 322Q266 241 250 182T234 75Q234 29 253 -2T317 -34Q358 -34 392 -9T451 57T495 143T522 227Q536 286 553 353T588 485T626
603T663 687T700 719Q710 719 727 709T764 680Q755 673 738 638T700 548T658 427T619 292T590 158T579 44Q579 -18 600 -38T673 -58Q662 -77 636 -88T588 -99Z" />
<glyph unicode="V" horiz-adv-x="669" d="M245 -87Q229 -87 207 -81T167 -55T149 2Q149 33 161 77T191 175T227 291T257 421T269 559Q269 594 264 621T246 663T208 678Q182 678 164 663T135 624T118 574T112 525Q112 508 115 492T127 460Q78 460 56 483T34 540Q34
570 49 602T90 660T152 703T228 720Q296 720 331 671T366 535Q366 480 354 420T323 300T287 182T256 77T243 -8Q243 -24 247 -33T267 -42Q296 -42 332 -15T408 58T484 164T551 287T598 414T616 530Q616 583 597 611T549 649Q563 679 583 692T620 706Q647 706 671
672T695 576Q695 522 675 453T618 309T537 164T441 37T340 -53T245 -87Z" />
<glyph unicode="W" horiz-adv-x="953" d="M246 -87Q236 -87 220 -84T188 -73T160 -46T149 2Q149 27 159 67T193 186Q211 245 228 302T257 422T269 554Q269 595 264 623T246 665T208 680Q184 680 166 667T136 633T118 585T112 533Q112 489 127 460Q78 460 56 483T34
540Q34 570 49 602T90 660T152 703T227 720Q295 720 330 670T366 528Q366 459 348 385T301 222Q291 190 278 152T254 73T243 -8Q243 -27 247 -34T265 -42Q292 -42 322 -19T384 43T443 130T496 228T536 324T557 404Q595 404 616 383T637 343Q637 333 629 309T600
238Q584 200 567 158T539 74T527 -4Q527 -24 532 -33T553 -42Q581 -42 617 -15T693 60T769 167T836 291T883 417T901 530Q901 585 882 608T833 641Q851 670 871 683T908 697Q931 697 955 668T980 575Q980 522 960 453T904 310T823 165T726 37T622 -53T523 -87Q497
-87 477 -77T445 -47T433 -1Q433 11 436 24T443 50Q394 -12 345 -49T246 -87Z" />
<glyph unicode="X" horiz-adv-x="706" d="M45 -112Q48 -82 54 -64T71 -33T97 -3Q130 32 156 60T207 115T260 177T327 257Q323 291 320 322T315 382T312 436T310 484Q307 554 304 598T289 663T251 684Q226 684 208 670T178 632T160 582T154 532Q154 497 167 468Q118
468 98 490T78 544Q78 576 94 607T137 665T199 707T273 723Q321 723 349 698T390 633T408 545T412 451T415 370Q492 474 546 564T637 728Q645 723 655 707T665 675Q665 655 646 617T592 527T513 416T417 294Q420 231 427 173T445 70T474 -2T513 -29Q545 -29 588
26T689 182L711 164Q670 83 636 29T566 -52T488 -80Q445 -80 417 -55T372 10T347 98T333 191Q275 122 218 61T116 -46T45 -112Z" />
<glyph unicode="Y" horiz-adv-x="706" d="M286 -187Q225 -187 184 -162T142 -88Q142 -57 161 -32T218 1Q212 -26 210 -40T207 -67Q207 -107 229 -129T298 -152Q332 -152 358 -141T405 -109T441 -61T468 -3T488 62Q504 126 513 187T534 287Q495 224 444 185T325
145Q258 145 230 182T202 273Q202 310 211 353T234 442T256 530T266 606Q266 636 255 657T212 678Q185 678 166 663T134 622T115 569T109 515Q109 499 111 488T121 459Q72 459 52 481T32 536Q32 566 47 598T89 658T154 703T234 720Q274 720 300 705T338 665T351
610Q351 588 344 557T323 475Q309 424 298 379T287 293Q287 251 303 225T358 199Q392 199 422 218T480 271T529 348T567 439Q580 477 593 524T622 617T655 691T693 720Q704 720 723 710T761 682Q739 649 724 619T695 554T667 472T636 357T596 193Q583 141 567 88T527
-15T470 -103T392 -164T286 -187Z" />
<glyph unicode="Z" horiz-adv-x="680" d="M490 -87Q448 -87 402 -72T311 -37T229 0Q194 -25 161 -39T96 -54Q63 -54 40 -41T5 -7T-8 33Q-8 55 10 72T77 90Q107 90 143 83T218 65Q265 112 313 178T406 314Q377 313 347 310T271 301L241 297Q243 331 265 349T322
375T399 382Q414 382 424 382T445 380Q483 444 512 501T557 600Q536 606 519 612T477 627Q397 656 351 667T275 678Q244 678 219 666T180 621T165 530Q165 537 166 531T169 516T174 501Q135 508 118 528T100 580Q100 648 152 684T305 720Q360 720 408 711T500 689T585
667T667 657Q677 657 692 658T717 661Q695 639 680 628T654 612Q633 563 602 501T530 373Q568 370 592 368T644 365Q628 343 612 333T569 320T496 316Q448 240 394 170T285 47Q350 28 414 12T524 -4Q549 -4 570 1T614 18Q592 -41 563 -64T490 -87ZM88 -21Q106 -21
126 -9T171 23Q140 35 113 44T65 53Q44 53 35 46T25 27Q25 11 43 -5T88 -21Z" />
<glyph unicode="[" horiz-adv-x="438" d="M233 -87Q200 -87 164 -83T96 -74T48 -65Q51 -60 54 -53T61 -28T73 25T91 120T118 272T158 496Q173 582 196 626T246 687T295 704Q309 704 329 703T371 701Q398 701 426 705T482 725Q481 681 465 660T423 633T367 627Q342
627 314 632T259 643Q245 602 232 545T206 422T183 290T161 163T142 55T125 -18Q179 -18 215 -17T277 -14T324 -8T370 3Q370 -43 338 -65T233 -87Z" />
<glyph unicode="\" horiz-adv-x="604" d="M488 -167Q439 -158 407 -112T346 28Q335 63 324 105T301 197T275 304T246 427T212 567T173 724Q200 724 224 707T255 671Q270 632 287 571T324 435T361 283T398 130T433 -7T464 -112T488 -167Z" />
<glyph unicode="]" horiz-adv-x="457" d="M14 -88Q17 -52 34 -34T78 -9T132 -2Q158 -2 191 -5T255 -10Q272 37 288 107T319 256T349 414T375 557T396 663H329Q265 662 218 657T125 640Q125 692 160 707T256 722Q303 722 349 717T443 701Q442 683 437 646T425 558T410
452T392 338T374 229T357 136Q353 112 345 78T321 10T282 -46T221 -69Q164 -69 111 -71T14 -88Z" />
<glyph unicode="^" horiz-adv-x="210" d="M185 406Q169 433 152 451T114 488Q87 479 64 468T14 440Q7 445 4 452T1 464Q1 479 14 494T47 521T85 542T115 550Q127 550 143 540T174 513T200 478T210 444Q210 434 205 424T185 406Z" />
<glyph unicode="_" horiz-adv-x="887" d="M-2 -73Q4 -34 44 -14T154 14T316 21Q385 21 444 19T557 13T659 6T756 2Q704 -32 660 -46T586 -60Q517 -60 451 -58T331 -53T247 -50Q198 -50 165 -51T105 -55T54 -62T-2 -73Z" />
<glyph unicode="`" horiz-adv-x="138" d="M113 403Q90 431 64 456T-4 513Q-2 533 7 542T28 552Q43 552 62 539T98 505T127 467T138 439Q138 432 132 420T113 403Z" />
<glyph unicode="a" horiz-adv-x="444" d="M56 -47Q23 -47 -1 -25T-26 41Q-26 76 -10 117T34 198T98 270T175 323T257 343Q300 343 330 321T360 263Q360 236 341 224T296 217Q298 226 299 235T301 254Q301 274 293 290T259 306Q231 306 202 287T147 238T99 171T66
99T54 36Q54 4 77 4Q100 4 128 26T184 83T239 152T284 213Q287 218 292 218Q296 217 307 214T329 203T339 185Q339 175 331 160T311 126T291 89T282 53Q282 40 289 29T312 17Q336 17 379 52T468 173L487 154Q463 100 430 59T359 -6T284 -30Q243 -30 223 -4T201
52Q201 54 201 55T201 57Q161 9 128 -19T56 -47Z" />
<glyph unicode="b" horiz-adv-x="409" d="M105 -73Q48 -73 19 -38T-11 60Q-11 109 6 176T51 316T113 460T184 588T252 680T307 714Q327 714 337 691T348 645Q348 617 336 577T302 492T251 403T188 323T116 266Q109 253 99 221T80 148T71 66Q71 26 82 -2T123 -31Q149
-31 179 -7T228 51Q191 71 172 107T153 183Q153 232 179 262T244 292Q276 292 297 268T318 192Q318 163 311 131T288 66Q293 66 296 66T306 65Q341 65 366 84T408 129T435 176L450 155Q425 96 389 65T293 34Q288 34 283 34T272 35Q244 -10 203 -41T105 -73ZM245
84Q254 104 258 124T263 169Q263 205 255 222T234 239Q221 239 212 221T202 178Q202 157 211 129T245 84ZM135 329Q160 352 183 382T227 446T263 512T289 571T301 614Q301 616 301 617T301 620Q292 617 272 591T226 524T176 432T135 329Z" />
<glyph unicode="c" horiz-adv-x="333" d="M113 -56Q61 -56 28 -24T-6 76Q-6 125 13 172T64 256T135 316T216 338Q258 338 276 317T295 268Q295 240 282 214T245 187Q226 187 214 206Q224 213 235 232T246 281Q246 289 242 293T227 298Q202 298 175 276T124 218T86
143T71 70Q71 42 85 19T142 -5Q180 -5 221 17T298 78T356 173L376 155Q352 94 310 47T216 -28T113 -56Z" />
<glyph unicode="d" horiz-adv-x="491" d="M69 -30Q50 -30 31 -21T-2 9T-16 60Q-16 93 0 134T43 216T107 291T185 346T268 367Q291 367 304 360T317 335Q317 330 315 324T305 312Q301 318 291 320T270 323Q237 323 207 305T152 257T109 194T80 129T70 74Q70 55
78 44T102 32Q129 32 166 63T243 154T315 297Q337 354 361 413T409 528T456 626T501 694T541 720Q552 720 560 712T569 690Q569 673 553 636T511 546T456 434T401 310T359 185T342 69Q342 45 346 37T362 28Q384 28 411 45T466 95T517 176L536 160Q514 105 480 63T407
-2T330 -26Q289 -26 273 0T257 61Q257 77 259 93T265 126Q234 81 200 46T132 -10T69 -30Z" />
<glyph unicode="e" horiz-adv-x="341" d="M116 -44Q52 -44 18 -10T-17 77Q-17 121 5 170T66 263T150 334T242 361Q268 361 291 348T315 294Q315 256 293 223T234 164T153 122T63 100Q62 96 62 92T61 77Q61 72 62 60T71 33T94 9T138 -1Q180 -1 222 22T302 85T365
172L385 156Q358 96 316 51T222 -19T116 -44ZM74 137Q100 140 132 155T193 193T242 243T261 299Q261 310 257 314T244 318Q221 318 196 302T147 259T104 200T74 137Z" />
<glyph unicode="f" horiz-adv-x="330" d="M-1 -280Q-12 -280 -27 -273T-54 -246T-66 -184Q-66 -141 -52 -72T-12 82T48 256T122 427T204 576T289 681T370 720Q396 720 404 705T412 669Q412 626 389 575T326 473T239 375T139 296Q135 286 131 276T123 256Q134 252
140 242T148 221Q156 178 164 145T188 92T236 73Q271 73 298 99T353 172L375 156Q343 92 303 63T231 33Q214 33 196 40T160 60Q159 -2 146 -62T109 -172T58 -250T-1 -280ZM27 -218Q38 -218 50 -199T75 -149T97 -81T113 -7T119 60Q119 89 113 111T90 162Q67 93 49
29T21 -87T11 -175Q11 -218 27 -218ZM168 366Q229 423 272 477T337 572T360 631Q360 639 352 639Q328 639 297 603T233 504T168 366Z" />
<glyph unicode="g" horiz-adv-x="403" d="M50 -280Q25 -280 4 -265T-18 -216Q-18 -184 0 -159T49 -112T115 -72T183 -38Q194 -11 204 20T223 87Q188 43 150 14T71 -15Q31 -15 8 13T-16 87Q-16 140 10 186T79 269T169 326T261 347Q293 347 309 336T325 309Q325
297 318 290T309 282Q299 293 289 296T264 300Q225 300 189 278T126 222T82 150T66 83Q66 63 75 53T97 42Q125 42 165 78T242 167Q244 175 245 181T248 194Q258 234 272 253T311 272Q316 272 323 271T340 268Q340 250 330 209T303 114T265 2Q296 15 328 38T387
95T428 170L446 152Q430 106 397 68T324 3T252 -40Q225 -106 194 -160T127 -247T50 -280ZM46 -234Q64 -234 95 -200T164 -85Q127 -103 96 -122T46 -162T27 -206Q27 -219 32 -226T46 -234Z" />
<glyph unicode="h" horiz-adv-x="494" d="M46 -38Q24 -38 15 -4T5 75Q5 121 20 186T62 323T121 464T188 589T254 680T310 714Q331 714 342 691T353 643Q353 616 341 577T306 492T255 404T191 324T119 266Q106 232 99 203T88 147T85 96Q85 91 85 86T86 75Q90 81
99 106T123 164T162 230T216 284T287 306Q321 306 340 291T367 253T375 207Q375 175 365 147T344 95T333 48Q333 30 341 23T360 16Q382 16 411 38T470 96T521 177L537 160Q514 110 483 68T415 1T335 -24Q297 -24 277 -4T257 46Q257 67 264 92T279 144T286 191Q286
215 276 224T250 233Q225 233 205 214T169 163T139 98T111 32T82 -18T46 -38ZM140 330Q166 353 190 385T234 451T270 518T295 577T305 617Q305 618 305 618T305 620Q299 620 280 596T235 530T184 436T140 330Z" />
<glyph unicode="i" horiz-adv-x="244" d="M80 -30Q36 -30 14 -4T-8 59Q-8 82 0 117T22 190T56 263T97 318T141 340Q153 340 162 333T171 311Q171 298 156 272T120 212T84 142T68 72Q68 40 79 30T113 19Q147 19 187 53T270 172L285 156Q250 68 196 19T80 -30ZM198
421Q179 421 164 430T148 460Q148 484 174 501T228 518Q246 518 258 510T271 481Q271 460 248 441T198 421Z" />
<glyph unicode="j" horiz-adv-x="227" d="M-134 -280Q-163 -280 -180 -264T-197 -221Q-197 -182 -161 -141T-69 -66Q-52 -57 -35 -49T0 -33Q17 8 31 59T57 170Q49 156 40 142T22 113L5 140Q23 174 37 210T64 278T91 330T124 350Q138 350 146 340T155 313Q155 302
150 273T136 200T114 107T83 6Q112 22 139 41T194 89T250 166L268 154Q237 90 202 55T133 1T67 -39Q45 -99 15 -154T-53 -245T-134 -280ZM-145 -232Q-127 -232 -93 -195T-23 -85Q-90 -119 -123 -153T-157 -215Q-157 -225 -154 -228T-145 -232ZM139 424Q120 424
105 433T89 462Q89 479 102 492T134 514T171 522Q188 522 200 514T212 487Q212 462 190 443T139 424Z" />
<glyph unicode="k" horiz-adv-x="462" d="M317 -38Q286 -38 263 -18T226 32T205 93T198 148Q212 151 233 157T276 173T312 199T327 237Q327 255 316 266T283 277Q255 277 230 259T184 210T145 145T114 77T91 20Q80 -10 70 -20T41 -31Q34 -31 25 -27T9 -7T2 44Q2
105 19 178T64 326T127 471T196 595T261 682T312 714Q329 714 340 694T352 641Q352 607 337 566T295 482T229 401T145 336Q117 271 102 208T83 95Q101 136 124 179T175 259T235 320T305 343Q345 343 375 315T405 245Q405 215 389 193T350 157T302 135T261 127Q264
114 269 94T284 55T307 23T340 10Q365 10 391 33T443 94T489 178L503 161Q486 111 457 65T391 -9T317 -38ZM174 404Q201 428 231 463T282 539T305 617Q305 618 305 618T305 620Q295 616 274 586T226 508T174 404Z" />
<glyph unicode="l" horiz-adv-x="245" d="M86 -30Q39 -30 21 1T2 76Q2 125 20 191T67 329T132 471T204 597T270 686T320 720Q333 720 342 707T356 675T362 640Q362 613 349 570T311 474T253 368T179 264T92 179Q88 154 85 130T81 85Q81 49 93 33T124 16Q149 16
175 39T226 99T269 175L293 162Q250 73 197 22T86 -30ZM110 241Q144 278 174 321T230 410T275 497T304 572T316 626Q316 627 316 627T316 629Q308 629 291 607T249 545T200 456T151 351T110 241Z" />
<glyph unicode="m" horiz-adv-x="660" d="M523 -31Q484 -31 465 -8T446 47Q446 70 453 93T467 138T474 179Q474 196 468 202T451 209Q428 209 398 174T322 72Q306 48 292 22T267 -23Q258 -23 244 -20T218 -12T207 3Q207 12 217 38T240 98T263 166T273 223Q273
237 268 245T252 253Q231 253 202 228T140 163T79 73T32 -27Q21 -27 5 -23T-23 -12T-35 0Q-35 1 -28 28T-11 97T10 181T29 256Q32 267 51 275T84 284Q98 284 108 275T118 251Q118 241 114 222T104 179Q125 207 148 234T197 284T248 319T299 332Q336 332 349 306T362
248Q362 235 360 223T355 198T345 168Q364 196 386 219T435 257T490 271Q529 271 544 248T559 196Q559 170 551 142T534 88T525 44Q525 34 530 26T550 17Q577 17 602 42T648 103T685 173L702 152Q686 111 661 69T601 -2T523 -31Z" />
<glyph unicode="n" horiz-adv-x="473" d="M337 -20Q298 -20 278 -1T257 49Q257 69 264 91T278 137T285 181Q285 203 275 211T250 220Q220 220 189 196T128 134T72 57T27 -15Q8 -15 -9 -9T-38 14Q-37 19 -27 44T-3 105T20 180T30 251Q37 259 51 267T82 275Q117
275 117 245Q117 233 113 210T100 156Q126 191 157 222T221 272T289 292Q332 292 352 263T373 199Q373 169 363 143T344 94T334 49Q334 33 341 27T358 20Q382 20 408 43T457 101T499 173L516 159Q495 110 469 70T410 5T337 -20Z" />
<glyph unicode="o" horiz-adv-x="372" d="M66 -32Q21 -32 5 -3T-12 62Q-12 94 -2 127T25 190T64 236T108 254Q115 254 124 252T138 244Q126 229 114 207T91 161T74 111T68 65Q68 45 75 32T102 19Q121 19 147 40T198 90Q166 119 152 153T138 237Q138 258 148 285T182
332T246 352Q289 352 306 328T324 271Q324 234 305 188T258 101Q270 95 286 95Q301 95 322 102T363 125T395 170L413 157Q391 106 355 83T283 59Q270 59 257 61T233 68Q199 28 155 -2T66 -32ZM224 122Q248 157 265 197T282 271Q282 294 275 304T254 315Q235 315
215 288T195 220Q195 199 202 169T224 122Z" />
<glyph unicode="p" horiz-adv-x="413" d="M-56 -280Q-64 -280 -73 -276T-88 -265T-96 -255Q-71 -182 -54 -129T-24 -28T-3 71T16 189T38 350Q40 362 43 367T62 373Q93 373 107 357T121 320Q121 310 118 285T107 226Q126 255 150 281T205 323T270 340Q319 340 351
307T383 220Q383 181 366 138T316 56T239 -7T140 -32Q108 -32 89 -24T70 -6Q70 1 77 2T94 4Q141 5 179 24T246 73T289 139T304 208Q304 238 291 260T248 282Q223 282 198 266T150 226T111 175T85 128Q66 62 51 -3T21 -125T-7 -220T-39 -273Q-47 -280 -56 -280Z"
/>
<glyph unicode="q" horiz-adv-x="417" d="M216 -280Q200 -280 187 -264T173 -201Q173 -170 178 -123T194 -23T218 77Q178 28 141 -4T69 -36Q52 -36 33 -27T0 3T-14 56Q-14 91 2 132T47 213T113 285T192 337T277 357Q315 357 341 342T367 301Q367 293 364 283T351
267Q342 262 326 268Q326 289 311 302T271 315Q237 315 207 297T151 249T108 187T79 122T69 69Q69 51 77 38T102 25Q121 25 143 44T190 93T238 160T287 230Q296 243 302 250T315 264Q320 269 336 265T358 256Q366 248 366 237Q366 216 350 191T314 127T279 29Q320
34 362 67T442 169L460 153Q423 79 376 43T279 -1Q287 -25 291 -52T296 -106Q296 -155 286 -194T258 -257T216 -280ZM237 -215Q243 -215 246 -198T251 -153T253 -100Q253 -83 253 -73T250 -53Q242 -93 238 -127T233 -194Q233 -207 234 -211T237 -215Z" />
<glyph unicode="r" horiz-adv-x="363" d="M185 -26Q148 -26 125 -7T102 46Q102 74 116 106T144 169T159 224Q159 247 144 262T109 288Q87 233 60 182T15 101L0 130Q14 156 37 204T81 311Q71 321 71 338Q71 364 87 387T118 410Q130 410 135 397T141 378Q141 373
137 360T130 341Q131 330 147 320T185 295T222 260T238 207Q238 178 225 148T199 92T186 47Q186 33 193 29T211 24Q235 24 261 38T312 76T356 124T385 171L409 153Q390 110 354 69T274 1T185 -26Z" />
<glyph unicode="s" horiz-adv-x="351" d="M117 -51Q67 -51 37 -31T-7 21T-20 86Q-20 115 -12 131T8 154T30 166T46 175Q71 201 97 235T143 312V322Q143 362 156 378T188 395Q200 395 205 389T212 375Q212 369 210 361T207 339Q207 309 221 271T250 189T265 101Q265
89 264 79T261 60Q292 68 322 94T379 173L391 164Q372 107 336 73T252 30Q236 -11 200 -31T117 -51ZM110 -7Q130 -7 147 3T174 32Q133 41 100 64T49 111Q35 108 35 84Q35 51 54 22T110 -7ZM182 62Q184 69 184 78T185 93Q184 138 173 182T151 272Q133 241 109 205T64
147Q80 120 111 96T182 62Z" />
<glyph unicode="t" horiz-adv-x="288" d="M91 -46Q47 -46 20 -20T-7 59Q-7 100 8 161T48 287Q41 289 32 290T13 296V327Q29 325 39 324T61 322Q82 375 106 424T155 513T202 574T241 597Q251 597 260 590T269 568Q269 548 249 511T198 425T140 319Q148 319 156
319T171 319Q215 319 250 320T323 326V293Q268 288 222 285T134 281Q131 281 128 281T122 281Q101 232 86 181T70 80Q70 39 83 22T124 5Q174 5 226 50T318 174L332 164Q306 105 268 57T184 -18T91 -46Z" />
<glyph unicode="u" horiz-adv-x="441" d="M76 -30Q42 -30 21 1T-1 74Q-1 102 8 140T31 214T61 274T90 298Q97 298 111 291T137 272Q126 256 111 223T83 152T71 83Q71 79 72 64T80 36T101 23Q118 23 137 41T177 89T217 153T252 219T278 273Q287 272 301 268T327
258T338 239Q338 236 329 215T307 163T285 102T275 46Q275 32 280 22T302 11Q323 11 352 30T412 85T467 171L482 159Q460 105 425 62T350 -5T272 -30Q243 -30 229 -17T209 18T203 62Q203 67 203 72T203 82Q186 55 166 30T124 -13T76 -30Z" />
<glyph unicode="v" horiz-adv-x="410" d="M74 -39Q37 -39 23 -6T8 81Q8 92 9 120T12 200Q13 230 18 241T50 252Q74 252 78 243T83 204Q83 174 81 140T78 74Q78 43 81 29T96 14Q114 14 135 33T177 83T218 149T253 218Q255 286 269 309T305 332Q330 332 339 316T348
288Q348 273 340 261T324 228T316 164Q316 150 318 134T330 106T359 94Q379 94 397 110T437 168L448 159Q425 104 397 82T342 60Q309 60 289 86T257 153Q233 108 203 64T139 -9T74 -39Z" />
<glyph unicode="w" horiz-adv-x="631" d="M291 -38Q257 -38 246 -9T232 62Q233 74 233 95T235 130Q214 92 189 55T136 -6T77 -30Q43 -30 21 0T-1 74Q-1 103 8 141T32 215T62 275T90 299Q97 299 114 291T136 270Q125 254 110 221T83 151T71 82Q71 76 72 62T81 35T102
23Q124 23 148 50T198 118T245 202Q254 245 260 264T272 288T288 293Q307 293 317 286T328 264Q328 263 326 256T323 246Q317 225 312 196T304 133T301 65Q301 41 304 28T319 14Q333 14 351 31T390 76T430 137T466 205Q466 257 473 284T493 321T521 332Q546 332
555 316T565 289Q565 279 560 271T552 255Q545 240 539 219T532 166Q532 149 535 132T548 103T576 92Q594 92 612 108T653 168L672 153Q650 101 622 82T568 62Q535 62 512 86T476 145Q451 102 421 60T357 -10T291 -38Z" />
<glyph unicode="x" horiz-adv-x="430" d="M55 -59Q46 -59 42 -52T37 -39Q37 -25 58 5T113 76T186 158Q179 207 171 233T141 259Q119 259 100 237T63 181T25 116L8 144Q22 169 34 197T62 252T101 294T159 311Q199 311 219 288T251 226Q296 271 333 301T384 332Q390
332 401 326T417 306Q404 306 380 289T324 242T259 175Q262 161 264 136T272 85T287 40T316 22Q333 22 353 37T392 75T428 124T455 171L471 156Q454 111 425 69T359 0T285 -27Q254 -27 236 -9T209 38T194 96Q154 51 122 12T72 -50Q65 -59 55 -59Z" />
<glyph unicode="y" horiz-adv-x="400" d="M48 -280Q23 -280 2 -265T-20 -215Q-20 -183 -1 -158T48 -111T112 -72T179 -39Q190 -10 203 34T227 117Q196 74 161 41T83 8Q65 8 45 15T12 41T-2 91Q-2 117 7 154T31 226T62 285T90 309Q96 309 107 305T130 293T144 276Q135
264 124 242T103 192T87 138T80 93Q80 78 86 67T109 56Q131 56 154 74T200 120T241 177Q243 184 245 199T252 230Q257 247 269 261T305 275Q313 275 320 274T337 271Q337 256 327 213T299 112T261 -2Q303 15 348 54T422 167L439 153Q424 103 394 66T325 3T248 -40Q221
-105 190 -160T123 -247T48 -280ZM38 -243Q57 -243 91 -203T160 -83Q128 -99 96 -120T41 -166T19 -215Q19 -225 23 -234T38 -243Z" />
<glyph unicode="z" horiz-adv-x="331" d="M8 -280Q-27 -280 -47 -267T-68 -222Q-68 -188 -47 -161T11 -110T92 -61T182 -6Q181 26 163 55T98 117Q137 128 164 151T205 203T219 257Q219 275 210 289T178 304Q148 304 122 278T73 211T27 123L8 139Q30 198 54 246T112
324T193 353Q234 353 263 330T292 263Q292 232 277 203T236 149T179 108Q201 91 217 69T244 26Q280 54 309 88T355 166L368 150Q353 106 324 68T254 0Q256 -7 257 -14T258 -33Q258 -77 238 -120T183 -200T103 -258T8 -280ZM-6 -242Q12 -242 40 -229T98 -190T150
-128T180 -46Q143 -70 105 -91T36 -132T-14 -173T-33 -215Q-33 -229 -25 -235T-6 -242Z" />
<glyph unicode="{" horiz-adv-x="304" d="M140 -87Q96 -87 79 -65T62 -15Q62 12 73 42T98 106T124 172T135 237Q135 260 125 286T83 337Q125 341 145 368T173 436T185 522Q188 559 192 594T206 657T236 703T291 720Q303 720 319 715T344 695T345 652Q327 662 319
664T306 667Q287 667 277 645T261 587T250 511Q245 466 239 426T220 358T184 321Q195 308 200 293T205 253Q205 211 194 173T169 101T143 37T132 -23Q132 -36 141 -42T162 -49Q179 -49 194 -39Q192 -70 175 -78T140 -87Z" />
<glyph unicode="|" horiz-adv-x="294" d="M78 -132Q91 -97 101 -40T119 86T133 231T144 380T154 518T164 629T176 698Q195 691 203 675T213 641T216 610Q216 571 215 514T211 392T206 263T200 144T193 55Q186 -30 159 -81T78 -132Z" />
<glyph unicode="}" horiz-adv-x="301" d="M70 -87Q57 -87 42 -81T15 -58T6 -14Q33 -32 49 -32Q68 -32 79 -8T96 55T107 134Q112 178 119 221T140 298T180 349Q167 364 162 381T157 417Q157 449 167 484T191 554T215 616T226 659Q226 672 219 676T204 680Q197 680
189 677T173 669Q169 689 184 709T239 729Q267 729 284 718T301 682Q301 661 290 634T265 574T240 505T229 433Q229 408 238 382T279 336Q238 326 217 296T187 224T175 136Q172 95 169 55T156 -17T127 -68T70 -87Z" />
<glyph unicode="~" horiz-adv-x="477" d="M301 123Q278 123 243 134T173 155T113 166Q105 166 90 165T59 159Q75 177 97 192T145 208Q162 208 186 202T238 189T291 175T335 169Q343 169 355 171T394 177Q363 146 342 135T301 123Z" />
<glyph unicode="&#xa0;" horiz-adv-x="260" />
<glyph unicode="&#xa1;" horiz-adv-x="297" d="M-32 -249Q-42 -249 -51 -241T-60 -219Q-60 -205 -44 -164T0 -66T60 55T126 180T188 291T236 367Q239 366 242 365T248 363Q248 338 239 305T218 237T194 174Q172 117 148 57T100 -57T53 -155T9 -224T-32 -249ZM244
400Q229 400 220 407T210 431Q210 448 228 464T269 481Q285 481 297 473T309 447Q309 428 289 414T244 400Z" />
<glyph unicode="&#xa2;" horiz-adv-x="426" d="M75 -162Q91 -145 108 -105T143 -10T177 110Q127 112 94 145T60 241Q60 286 77 328T124 407T191 468T266 505Q275 552 282 595T294 670Q296 684 306 699T355 722L317 512Q356 512 378 491T400 429Q400 404 389 381T355
358Q337 358 322 377Q331 382 338 399T345 435Q345 449 336 459T309 470Q295 392 281 314T252 166Q282 172 312 186T369 224L391 200Q357 169 320 148T243 117Q224 31 204 -32T155 -128T75 -162ZM190 162Q209 236 224 307T255 449Q221 427 195 391T153 313T138
236Q138 211 149 190T190 162Z" />
<glyph unicode="&#xa3;" horiz-adv-x="691" d="M491 -87Q454 -87 408 -72T314 -36T219 4Q194 -23 165 -38T103 -53Q68 -53 43 -38T4 0T-10 40Q-10 60 8 75T72 90Q99 90 131 85T198 70Q234 144 263 228T317 394Q269 410 241 439T213 502Q213 522 222 542T251 575T296
589Q285 574 281 556T277 524Q277 491 291 467T329 429Q355 507 385 573T456 679T550 720Q572 720 597 711T641 679T660 612Q660 578 645 538T599 462T517 403T395 380Q369 302 348 244T305 139T258 54Q302 41 349 28T442 5T522 -4Q547 -4 567 1T611 18Q591 -38
562 -62T491 -87ZM89 -18Q110 -18 131 -5T167 24Q136 35 109 42T61 50Q45 50 33 45T21 31Q21 24 30 12T55 -9T89 -18ZM123 212Q130 233 159 248T233 272T330 280Q385 280 437 275T533 265Q516 243 491 234T422 223T303 221Q235 221 191 219T123 212ZM406 413Q450
416 484 441T542 501T578 572T591 636Q591 662 581 671T558 681Q529 681 503 644T454 547T406 413Z" />
<glyph unicode="&#xa4;" horiz-adv-x="735" d="M647 20Q623 57 585 89T497 167Q471 136 439 117T369 98Q341 98 319 108T282 135Q235 86 186 67T90 47Q120 75 145 91T195 128T250 189Q246 204 243 220T240 253Q240 294 250 338T283 425Q249 460 217 488T161 537Q152
545 146 564T139 602Q139 611 141 622T149 646Q163 633 210 588T317 480Q343 512 376 532T449 552Q486 552 515 536T561 490Q585 520 603 546T646 589T713 606Q718 606 726 605T744 602Q730 580 690 536T582 416Q583 409 583 403T584 390Q584 349 570 306T533 220Q584
176 618 133T653 53Q653 48 653 42T647 20ZM376 165Q401 165 425 188T470 250T503 330T515 410Q515 445 496 467T453 489Q423 489 397 463T352 398T323 318T312 245Q312 209 333 187T376 165Z" />
<glyph unicode="&#xa5;" horiz-adv-x="868" d="M382 -187Q341 -187 306 -176T250 -142T229 -87Q229 -58 248 -37T306 -2Q302 -16 299 -36T296 -70Q296 -104 319 -126T384 -148Q423 -148 452 -130T503 -84T540 -26Q505 -26 467 -28T383 -38Q397 -2 446 11T561 26Q565
38 569 49T577 73Q533 72 485 70T381 60Q391 87 420 100T494 119T590 125Q597 154 604 202T621 298Q596 256 565 222T497 166T413 145Q349 145 320 180T290 272Q290 310 299 354T322 443T344 530T354 605Q354 634 343 657T299 681Q272 681 253 665T221 624T202
572T196 521Q196 488 209 459Q160 459 140 481T119 536Q119 567 134 599T177 658T241 703T321 720Q363 720 389 704T427 664T439 612Q439 585 430 547T407 466T385 378T375 294Q375 251 391 225T444 199Q479 199 510 221T568 278T617 356T655 439Q672 512 692 576T734
680T781 720Q793 720 812 710T848 682Q821 639 801 594T765 501T738 406T714 309T690 211Q685 189 679 167T665 122Q700 121 734 118T784 114Q747 89 713 81T652 73Q648 61 644 49T635 25Q673 24 708 22T786 16Q749 -10 716 -18T659 -26H613Q591 -72 560 -108T485
-166T382 -187Z" />
<glyph unicode="&#xa6;" horiz-adv-x="295" d="M79 -132Q92 -98 101 -47T118 68T131 199Q140 210 154 217T185 225Q196 225 200 215T204 195Q204 93 194 20T157 -92T79 -132ZM137 282Q144 374 150 458T162 605T177 699Q196 692 204 678T214 650T217 627Q217 589
214 521T211 380Q211 370 205 348T177 310L137 282Z" />
<glyph unicode="&#xa7;" horiz-adv-x="443" d="M168 -87Q131 -87 97 -74T42 -34T20 33Q20 69 37 88T78 116T127 124Q105 102 93 78T81 32Q81 1 106 -23T181 -48Q210 -48 236 -39T278 -10T295 35Q295 66 274 88T221 129T158 170T105 221T83 291Q83 327 101 359T157
413T250 435Q228 448 208 463T175 498T162 545Q162 572 175 602T214 659T274 702T352 719Q397 719 414 700T432 649Q432 625 424 598T405 547T381 504Q362 507 356 517T349 539Q349 558 358 582T376 630T385 670Q385 680 379 685T355 690Q315 690 284 668T234 616T216
560Q216 533 235 516T283 483T340 448T388 398T408 320Q408 275 389 246T337 201T261 186Q256 186 252 186T244 187Q262 177 281 165T316 137T343 101T353 55Q353 11 325 -21T255 -70T168 -87ZM242 232Q288 232 312 254T337 314Q337 347 317 371T250 396Q210 396
179 375T148 315Q148 303 154 283T180 248T242 232Z" />
<glyph unicode="&#xa8;" horiz-adv-x="230" d="M439 411Q423 411 410 419T397 445Q397 465 419 479T464 493Q479 493 490 486T501 460Q501 443 482 427T439 411ZM295 431Q279 431 266 439T252 465Q252 484 274 498T319 513Q335 513 345 506T355 481Q355 464 337
448T295 431Z" />
<glyph unicode="&#xa9;" horiz-adv-x="620" d="M344 100Q299 100 255 116T173 164T113 244T88 358Q88 425 111 474T172 556T255 604T346 620Q391 620 437 604T523 556T586 476T610 362Q610 295 586 246T522 164T436 116T344 100ZM344 142Q409 142 459 169T539
247T569 362Q569 425 541 473T462 550T347 578Q284 578 235 551T157 475T129 362Q129 299 155 249T230 171T344 142ZM353 206Q315 206 287 227T259 300V429Q259 481 283 502T347 524Q381 524 401 510T431 479T440 448Q440 432 433 428T418 424Q408 424 403 429T396
441Q393 450 390 459T379 476T349 483Q325 483 314 470T303 429V300Q303 272 313 259T354 246Q374 246 382 253T394 270T400 289Q402 296 405 300T418 305Q442 305 442 284Q442 252 419 229T353 206Z" />
<glyph unicode="&#xaa;" horiz-adv-x="410" d="M182 447Q160 447 143 463T125 511Q125 541 141 577T186 645T250 699T321 720Q352 720 373 706T394 667Q394 651 378 642T345 634Q347 641 348 647T350 659Q350 670 343 679T320 688Q297 688 274 670T231 623T199
564T187 510Q187 490 200 490Q215 490 234 506T273 546T311 594T340 634Q359 628 369 623T380 610Q380 600 370 585T351 552T341 520Q341 513 345 505T359 497Q376 497 405 523T466 603L476 587Q454 529 415 494T339 459Q316 459 307 471T294 500Q293 505 293 511T292
522Q263 488 236 468T182 447Z" />
<glyph unicode="&#xab;" horiz-adv-x="480" d="M353 44Q334 44 307 56T252 88T205 128T180 165Q217 180 253 204T322 259T378 319Q380 317 385 305T390 287Q390 267 375 248T336 210T284 176T230 147Q250 134 270 123T318 100T394 70Q386 61 375 53T353 44ZM200
44Q181 44 154 56T99 88T52 128T27 165Q64 180 100 204T169 259T225 319Q227 317 232 305T237 287Q237 267 222 248T183 210T131 176T77 147Q97 134 117 123T165 100T241 70Q233 61 222 53T200 44Z" />
<glyph unicode="&#xac;" horiz-adv-x="676" d="M495 26Q500 50 503 75T507 127T509 186Q498 185 486 185T466 185Q398 184 350 184T265 183T196 181T128 177T44 170Q60 198 104 212T215 231T358 236Q399 236 438 236T511 233Q515 246 523 259T549 289Q549 276
551 263T557 231Q580 230 601 230T634 227Q617 209 598 202T560 191Q560 171 560 146T554 97T536 53T495 26Z" />
<glyph unicode="&#xad;" horiz-adv-x="485" d="M43 142Q50 164 71 177T118 196T167 203T202 205Q215 205 245 204T310 202T375 200T418 198Q408 175 373 160T296 144Q275 144 242 147T171 150Q146 150 119 149T72 145T43 142Z" />
<glyph unicode="&#xae;" horiz-adv-x="619" d="M342 100Q297 100 252 116T170 164T111 244T88 358Q88 425 112 474T174 556T259 604T350 620Q395 620 441 604T525 556T587 476T610 362Q610 295 586 246T521 164T434 116T342 100ZM342 142Q406 142 457 170T539
247T569 363Q569 425 542 473T466 550T352 578Q289 578 239 551T159 475T129 359Q129 298 155 249T228 171T342 142ZM290 207Q282 207 275 212T267 228L263 503Q263 511 268 517T284 523H349Q373 523 396 515T433 488T448 434Q448 399 432 378T390 350Q403 325
415 301T437 259T449 238Q450 237 451 234T452 227Q452 220 445 214T429 207Q419 207 412 218T399 238L344 346H312V228Q312 218 305 213T290 207ZM310 386H352Q375 386 389 397T403 434Q403 461 388 472T351 483H310V386Z" />
<glyph unicode="&#xaf;" horiz-adv-x="413" d="M312 421Q289 421 256 426T186 440T116 455T60 466Q71 496 110 496Q146 496 188 489T274 470T353 446Q341 421 312 421Z" />
<glyph unicode="&#xb0;" horiz-adv-x="293" d="M191 396Q150 396 131 412T112 453Q112 476 128 501T172 544T236 562Q280 562 299 545T318 505Q318 482 301 457T256 414T191 396ZM195 428Q214 428 232 440T262 471T274 505Q274 516 265 522T236 529Q216 529 198
517T169 487T158 454Q158 444 166 436T195 428Z" />
<glyph unicode="&#xb1;" horiz-adv-x="485" d="M197 106Q203 140 205 174T208 242Q182 242 160 242T114 240T58 233Q69 262 110 273T208 287V318Q208 337 214 359T242 411Q246 391 250 357T256 287Q287 287 320 285T380 281T420 278Q383 256 353 249T301 242H256Q255
193 245 157T197 106ZM56 23Q60 48 88 60T159 76T244 80Q295 80 345 77T424 71Q396 56 373 49T321 40T245 37Q212 36 190 35T149 33T109 30T56 23Z" />
<glyph unicode="&#xb2;" horiz-adv-x="398" d="M319 301Q303 301 281 306T237 320T198 337Q164 317 139 317Q120 317 106 327T92 353Q92 385 140 385Q152 385 164 384T192 379Q222 405 251 445T299 531T318 618Q318 652 305 666T272 681Q245 681 230 657T214 595Q214
585 216 576T226 550H207Q185 555 173 566T160 602Q160 631 175 656T217 696T280 712Q322 712 349 684T376 615Q376 572 358 527T310 441T243 369Q269 364 291 360T331 355Q339 355 351 360T387 380Q377 340 361 321T319 301ZM137 349Q141 349 144 350T151 353Q147
354 143 354T137 354Q132 354 131 354T129 352Q129 351 131 350T137 349Z" />
<glyph unicode="&#xb3;" horiz-adv-x="335" d="M199 314Q148 314 126 340T103 392Q103 412 116 432T155 452Q158 452 163 451T185 445Q173 436 167 423T160 399Q160 380 170 362T203 343Q229 343 251 371T273 439Q273 467 257 493T195 530Q227 544 249 564T283
608T295 649Q295 670 284 681T259 693Q240 693 226 678T212 642Q212 635 215 628T222 612Q217 603 208 596T190 589Q177 589 169 605T161 636Q161 675 193 696T265 718Q299 718 327 700T355 647Q355 628 347 607T323 567T286 537Q319 521 332 494T346 444Q346 412
328 382T276 333T199 314Z" />
<glyph unicode="&#xb4;" horiz-adv-x="141" d="M373 404Q360 409 355 420T349 437Q349 445 359 463T385 502T418 537T452 552Q463 552 471 545T482 517Q447 483 421 458T373 404Z" />
<glyph unicode="&#xb5;" horiz-adv-x="616" d="M11 -280Q0 -280 -9 -270T-23 -248T-29 -234Q-15 -185 -1 -148T29 -71T58 22T85 154T111 350Q113 362 116 367T137 373Q167 373 180 357T194 321Q173 224 161 160T149 60Q149 18 174 18Q193 18 213 37T253 88T292
154T327 221T355 274Q362 273 376 270T402 259T414 241Q414 241 405 220T382 168T360 102T350 42Q350 27 356 18T378 8Q399 8 429 27T490 82T546 169L570 153Q548 98 512 55T436 -12T357 -36Q320 -36 298 -14T276 44Q276 48 276 52T277 60Q251 19 221 -8T155 -36Q145
-36 133 -31T113 -18Q77 -145 53 -212T11 -280Z" />
<glyph unicode="&#xb6;" horiz-adv-x="686" d="M358 -87Q361 -34 365 27T375 152Q349 154 311 159T231 175T153 207T94 259T71 336Q71 392 99 435T175 509T278 558T390 581Q387 647 378 706Q390 712 399 714T415 716Q432 716 441 703T455 669T460 625T461 583Q469
582 483 581T504 576Q502 615 500 649T494 705Q504 712 512 714T528 716Q542 716 551 694T566 637T575 559Q601 552 623 543T665 525Q662 518 652 510T630 495T614 488Q608 488 601 492T577 504Q580 469 581 436T582 371Q582 186 579 83T571 -34Q564 -59 539 -73T486
-87Q487 -84 489 -52T495 34T501 151T505 285T507 419T504 535Q497 537 485 539T465 542Q468 490 469 453T472 383T473 312Q473 252 472 193T469 84T466 4T462 -33Q457 -48 440 -60T400 -80T358 -87Z" />
<glyph unicode="&#xb7;" horiz-adv-x="241" d="M99 115Q75 115 67 127T58 152Q58 163 68 174T94 193T122 201Q133 201 144 196T155 172Q155 164 148 151T129 126T99 115Z" />
<glyph unicode="&#xb8;" horiz-adv-x="232" d="M79 -233Q49 -233 31 -220T13 -192Q13 -183 21 -172T45 -149Q53 -174 63 -184T85 -194Q102 -194 120 -180T152 -146T166 -111Q166 -103 162 -99T150 -95Q138 -95 123 -104T94 -122T71 -132Q62 -132 56 -123T50 -107Q50
-105 59 -92T82 -61T110 -25T134 0H150L103 -75Q111 -72 126 -68T157 -63Q180 -63 195 -75T211 -113Q211 -140 193 -167T144 -214T79 -233Z" />
<glyph unicode="&#xb9;" horiz-adv-x="308" d="M146 314Q135 314 118 323T87 352Q117 352 132 352T169 355Q179 379 187 416T203 493T216 567T227 620Q208 610 199 606T185 602Q175 602 169 608T163 632Q172 637 191 650T236 681T284 717H288Q290 716 290 715T292
711Q294 707 294 702T294 694Q294 686 289 658T274 586T254 487L242 427Q238 406 233 390T222 361Q245 361 261 352T284 315Q274 316 258 317T232 318Q204 318 186 316T146 314Z" />
<glyph unicode="&#xba;" horiz-adv-x="310" d="M191 452Q162 452 145 470T127 517Q127 544 141 578T179 644T235 698T301 719Q314 719 322 716T335 706Q352 705 360 694T368 674Q368 664 362 650T348 622T341 594Q341 587 345 585T357 582Q366 582 371 583T381
586Q381 568 369 560T342 551Q328 551 317 559Q295 512 262 482T191 452ZM208 492Q223 492 239 506T272 542T298 589Q296 598 295 605T294 626Q294 647 295 658T300 677Q275 673 254 655T217 613T192 564T183 524Q183 510 190 501T208 492Z" />
<glyph unicode="&#xbb;" horiz-adv-x="492" d="M261 44Q250 44 239 52T220 70Q267 87 296 99T344 123T384 147Q358 160 330 176T278 210T239 247T224 287Q224 292 229 304T236 319Q259 289 291 259T361 205T434 165Q429 149 409 129T362 89T308 57T261 44ZM108
44Q97 44 86 52T67 70Q114 87 143 99T191 123T231 147Q205 160 177 176T125 210T86 247T71 287Q71 292 76 304T83 319Q106 289 138 259T208 205T281 165Q276 149 256 129T209 89T155 57T108 44Z" />
<glyph unicode="&#xbc;" horiz-adv-x="686" d="M52 -87Q77 -63 114 -11T196 112T285 260T373 416T447 559T497 671Q501 682 517 692T555 707T596 710Q591 696 571 655T520 557T455 434T384 304T317 185T264 97Q211 15 160 -36T52 -87ZM560 -27Q529 -25 513 -17T497
8Q497 15 501 42T518 131Q510 132 502 132T485 132Q456 132 427 129T377 121Q377 137 381 146T389 159Q421 186 462 222T543 301T607 383Q627 381 628 362Q628 353 616 312T585 174H595Q603 174 616 176T648 182Q631 159 611 145T577 130Q576 119 573 99T567 56T562
11T560 -27ZM459 177Q471 177 488 177T529 176Q534 200 536 213T540 235T547 258L519 233Q502 218 493 210T476 195T459 177ZM140 314Q129 314 112 323T81 352Q111 352 126 352T163 355Q173 379 181 416T197 493T210 567T221 620Q202 610 193 606T179 602Q169 602
163 608T157 632Q166 637 185 650T229 681T278 717H282Q284 716 284 715T286 711Q288 707 288 702T288 694Q288 682 275 618T236 427Q232 406 227 390T216 361Q239 361 255 352T278 315Q268 316 252 317T226 318Q198 318 180 316T140 314Z" />
<glyph unicode="&#xbd;" horiz-adv-x="743" d="M60 -87Q85 -63 122 -11T204 112T294 260T381 416T456 559T506 671Q510 682 525 693T560 712T598 720Q594 704 575 661T526 560T462 435T392 304T325 185T272 97Q219 15 169 -36T60 -87ZM421 21Q425 21 428 22T435
25Q431 26 427 26T421 26Q416 26 415 26T413 24Q413 23 415 22T421 21ZM603 -27Q587 -27 565 -22T521 -8T482 9Q448 -11 423 -11Q404 -11 390 -1T376 25Q376 57 424 57Q436 57 448 56T476 51Q506 77 535 117T583 203T602 290Q602 324 589 338T556 353Q529 353 514
329T498 267Q498 257 500 248T510 222H491Q469 227 457 238T444 274Q444 303 459 328T501 368T564 384Q606 384 633 356T660 287Q660 244 642 199T594 113T527 41Q553 36 575 32T615 27Q623 27 635 32T671 52Q661 12 645 -7T603 -27ZM140 314Q129 314 112 323T81
352Q111 352 126 352T163 355Q173 379 181 416T197 493T210 567T221 620Q202 610 193 606T179 602Q169 602 163 608T157 632Q166 637 185 650T229 681T278 717H282Q284 716 284 715T286 711Q288 707 288 702T288 694Q288 682 275 618T236 427Q232 406 227 390T216
361Q239 361 255 352T278 315Q268 316 252 317T226 318Q198 318 180 316T140 314Z" />
<glyph unicode="&#xbe;" horiz-adv-x="733" d="M100 -87Q157 -18 206 52T297 192T375 329T441 457T498 573T545 671Q551 683 566 694T600 712T638 720Q634 703 616 663T570 568T509 449T440 321T371 199T310 98Q258 15 209 -36T100 -87ZM193 307Q158 307 137 319T106
350T96 386Q96 407 108 427T148 447Q153 447 159 446T179 441Q166 431 159 418T152 391Q152 372 165 356T198 339Q224 339 246 367T269 435Q269 463 253 490T190 527Q221 541 244 562T279 606T292 648Q292 670 280 681T254 692Q236 692 221 678T206 644Q206 637
209 629T216 611Q212 602 202 595T184 588Q171 588 164 604T154 635Q154 662 169 680T209 708T260 718Q294 718 322 701T351 645Q351 626 343 604T318 564T281 534Q313 519 327 492T342 439Q342 408 324 378T272 327T193 307ZM608 -27Q577 -25 561 -17T545 8Q545
15 549 42T566 131Q558 132 550 132T533 132Q504 132 475 129T425 121Q425 137 429 146T437 159Q469 186 510 222T591 301T655 383Q675 381 676 362Q676 353 664 312T633 174H643Q651 174 664 176T696 182Q679 159 659 145T625 130Q624 119 621 99T615 56T610 11T608
-27ZM507 177Q519 177 536 177T577 176Q582 200 584 213T588 235T595 258L567 233Q550 218 541 210T524 195T507 177Z" />
<glyph unicode="&#xbf;" horiz-adv-x="437" d="M109 -280Q42 -280 1 -245T-41 -142Q-41 -104 -25 -75T16 -21T68 29T119 84T156 153Q167 188 169 213T183 271Q208 258 216 248T225 215Q225 174 206 141T159 77T102 17T54 -49T35 -129Q35 -183 57 -211T112 -240Q147
-240 180 -213T236 -141T259 -41Q259 -24 257 -8T248 27Q297 20 313 -2T330 -57Q330 -114 303 -165T227 -248T109 -280ZM201 319Q186 319 176 326T166 348Q166 368 184 384T226 400Q242 400 254 392T266 367Q266 347 245 333T201 319Z" />
<glyph unicode="&#xc0;" horiz-adv-x="631" d="M46 -87Q16 -71 8 -54T0 -25Q0 2 19 47T72 152T147 275Q116 277 88 278T16 279H0Q14 315 44 329T116 344Q133 344 151 342T190 338Q240 410 288 474T380 589T458 674Q506 722 528 722Q542 722 559 711T596 683Q586
675 571 642T538 559T503 448T471 326T449 208T440 108Q440 68 448 49T475 29Q498 29 532 64T608 178L626 159Q595 77 546 24T440 -29Q392 -29 372 12T352 126Q352 149 355 178T365 250Q321 257 287 261T222 269Q174 184 129 93T46 -87ZM375 299Q388 358 405 418T442
534T481 634Q451 610 414 565T337 459T254 326Q284 320 314 313T375 299ZM587 748Q564 776 538 801T470 858Q472 878 481 887T502 897Q517 897 536 884T572 850T601 812T612 784Q612 777 606 765T587 748Z" />
<glyph unicode="&#xc1;" horiz-adv-x="631" d="M46 -87Q16 -71 8 -54T0 -25Q0 2 19 47T72 152T147 275Q116 277 88 278T16 279H0Q14 315 44 329T116 344Q133 344 151 342T190 338Q240 410 288 474T380 589T458 674Q506 722 528 722Q542 722 559 711T596 683Q586
675 571 642T538 559T503 448T471 326T449 208T440 108Q440 68 448 49T475 29Q498 29 532 64T608 178L626 159Q595 77 546 24T440 -29Q392 -29 372 12T352 126Q352 149 355 178T365 250Q321 257 287 261T222 269Q174 184 129 93T46 -87ZM375 299Q388 358 405 418T442
534T481 634Q451 610 414 565T337 459T254 326Q284 320 314 313T375 299ZM595 748Q582 753 577 764T571 781Q571 789 581 807T607 846T640 881T674 896Q685 896 693 889T704 861Q669 827 643 802T595 748Z" />
<glyph unicode="&#xc2;" horiz-adv-x="631" d="M46 -87Q16 -71 8 -54T0 -25Q0 2 19 47T72 152T147 275Q116 277 88 278T16 279H0Q14 315 44 329T116 344Q133 344 151 342T190 338Q240 410 288 474T380 589T458 674Q506 722 528 722Q542 722 559 711T596 683Q586
675 571 642T538 559T503 448T471 326T449 208T440 108Q440 68 448 49T475 29Q498 29 532 64T608 178L626 159Q595 77 546 24T440 -29Q392 -29 372 12T352 126Q352 149 355 178T365 250Q321 257 287 261T222 269Q174 184 129 93T46 -87ZM375 299Q388 358 405 418T442
534T481 634Q451 610 414 565T337 459T254 326Q284 320 314 313T375 299ZM684 744Q668 771 651 789T612 827Q585 818 561 805T510 775Q503 780 500 789T497 803Q497 818 510 833T544 860T583 881T613 889Q625 889 641 879T673 852T699 817T709 783Q709 773 704
762T684 744Z" />
<glyph unicode="&#xc3;" horiz-adv-x="631" d="M46 -87Q16 -71 8 -54T0 -25Q0 2 19 47T72 152T147 275Q116 277 88 278T16 279H0Q14 315 44 329T116 344Q133 344 151 342T190 338Q240 410 288 474T380 589T458 674Q506 722 528 722Q542 722 559 711T596 683Q586
675 571 642T538 559T503 448T471 326T449 208T440 108Q440 68 448 49T475 29Q498 29 532 64T608 178L626 159Q595 77 546 24T440 -29Q392 -29 372 12T352 126Q352 149 355 178T365 250Q321 257 287 261T222 269Q174 184 129 93T46 -87ZM375 299Q388 358 405 418T442
534T481 634Q451 610 414 565T337 459T254 326Q284 320 314 313T375 299ZM667 755Q639 755 609 767T550 791T494 803Q477 803 462 801T429 790Q441 820 464 834T519 849Q547 849 576 837T635 813T692 801Q722 801 751 811Q737 784 718 770T667 755Z" />
<glyph unicode="&#xc4;" horiz-adv-x="631" d="M46 -87Q16 -71 8 -54T0 -25Q0 2 19 47T72 152T147 275Q116 277 88 278T16 279H0Q14 315 44 329T116 344Q133 344 151 342T190 338Q240 410 288 474T380 589T458 674Q506 722 528 722Q542 722 559 711T596 683Q586
675 571 642T538 559T503 448T471 326T449 208T440 108Q440 68 448 49T475 29Q498 29 532 64T608 178L626 159Q595 77 546 24T440 -29Q392 -29 372 12T352 126Q352 149 355 178T365 250Q321 257 287 261T222 269Q174 184 129 93T46 -87ZM375 299Q388 358 405 418T442
534T481 634Q451 610 414 565T337 459T254 326Q284 320 314 313T375 299ZM667 753Q651 753 638 761T625 787Q625 807 647 821T692 835Q707 835 718 828T729 802Q729 785 710 769T667 753ZM523 773Q507 773 494 781T480 807Q480 826 502 840T547 855Q563 855 573
848T583 823Q583 806 565 790T523 773Z" />
<glyph unicode="&#xc5;" horiz-adv-x="631" d="M46 -87Q16 -71 8 -54T0 -25Q0 2 19 47T72 152T147 275Q116 277 88 278T16 279H0Q14 315 44 329T116 344Q133 344 151 342T190 338Q240 410 288 474T380 589T458 674Q506 722 528 722Q542 722 559 711T596 683Q586
675 571 642T538 559T503 448T471 326T449 208T440 108Q440 68 448 49T475 29Q498 29 532 64T608 178L626 159Q595 77 546 24T440 -29Q392 -29 372 12T352 126Q352 149 355 178T365 250Q321 257 287 261T222 269Q174 184 129 93T46 -87ZM375 299Q388 358 405 418T442
534T481 634Q451 610 414 565T337 459T254 326Q284 320 314 313T375 299ZM585 754Q545 754 526 770T507 811Q507 834 523 859T567 902T631 920Q675 920 694 903T713 863Q713 840 696 815T650 772T585 754ZM593 789Q611 789 626 800T652 826T662 856Q662 866 654
874T627 882Q610 882 594 872T569 846T559 817Q560 808 568 799T593 789Z" />
<glyph unicode="&#xc6;" horiz-adv-x="790" d="M45 -87Q15 -71 7 -54T-1 -26Q-1 1 18 47T71 152T146 275Q112 277 88 278T46 279H-1Q13 315 43 329T116 344Q133 344 151 342T189 338Q242 414 294 483T393 606T475 691T528 722Q570 722 618 720T713 714T799 706T861
699Q854 679 826 668T759 654T675 650Q647 650 622 650T571 652Q555 619 534 558T493 423Q565 421 618 412T711 399Q703 379 676 368T609 354T525 350Q507 350 496 350T474 351Q458 281 449 215T439 100Q439 90 440 82T442 67Q475 62 515 59T596 52T672 46T730
36Q723 16 696 6T629 -8T545 -12Q502 -12 461 -12T387 -8Q367 10 359 46T350 126Q350 155 354 186T364 250Q320 257 286 261T221 269Q173 184 128 93T45 -87ZM374 299Q387 358 404 418T441 534T480 634Q450 610 413 565T336 459T253 326Q285 320 317 312T374 299Z"
/>
<glyph unicode="&#xc7;" horiz-adv-x="570" d="M250 -87Q174 -87 126 -51T55 42T32 160Q32 239 56 318T122 470T219 598T334 686T457 719Q501 719 531 699T561 628Q561 598 551 561T523 490T483 433T438 411Q428 411 417 418T397 442Q412 459 431 483T467 535T495
589T506 636Q506 654 496 664T461 675Q417 675 371 642T281 554T204 430T149 289T129 151Q129 103 143 60T190 -11T274 -39Q328 -39 381 -9T479 70T551 175L577 158Q542 91 493 36T383 -53T250 -87ZM387 -233Q357 -233 339 -220T321 -192Q321 -183 329 -172T353
-149Q361 -174 371 -184T393 -194Q410 -194 428 -180T460 -146T474 -111Q474 -103 470 -99T458 -95Q446 -95 431 -104T402 -122T379 -132Q370 -132 364 -123T358 -107Q358 -105 367 -92T390 -61T418 -25T442 0H458L411 -75Q419 -72 434 -68T465 -63Q488 -63 503
-75T519 -113Q519 -140 501 -167T452 -214T387 -233Z" />
<glyph unicode="&#xc8;" horiz-adv-x="533" d="M209 -87Q145 -87 97 -62T23 6T-4 101Q-4 145 15 188T68 266T149 326T251 359Q215 391 197 430T179 510Q179 563 206 611T282 689T396 719Q457 719 490 690T523 604Q523 565 509 530T476 472T437 450Q423 450 411
462T389 491Q426 521 451 555T477 625Q477 655 457 670T405 686Q360 686 330 659T284 589T268 501Q268 458 284 415T342 339Q270 328 217 290T135 200T106 99Q106 69 118 36T159 -19T236 -42Q291 -42 344 -12T441 69T513 175L540 158Q503 89 453 34T342 -54T209
-87ZM450 748Q427 776 401 801T333 858Q335 878 344 887T365 897Q380 897 399 884T435 850T464 812T475 784Q475 777 469 765T450 748Z" />
<glyph unicode="&#xc9;" horiz-adv-x="533" d="M209 -87Q145 -87 97 -62T23 6T-4 101Q-4 145 15 188T68 266T149 326T251 359Q215 391 197 430T179 510Q179 563 206 611T282 689T396 719Q457 719 490 690T523 604Q523 565 509 530T476 472T437 450Q423 450 411
462T389 491Q426 521 451 555T477 625Q477 655 457 670T405 686Q360 686 330 659T284 589T268 501Q268 458 284 415T342 339Q270 328 217 290T135 200T106 99Q106 69 118 36T159 -19T236 -42Q291 -42 344 -12T441 69T513 175L540 158Q503 89 453 34T342 -54T209
-87ZM458 748Q445 753 440 764T434 781Q434 789 444 807T470 846T503 881T537 896Q548 896 556 889T567 861Q532 827 506 802T458 748Z" />
<glyph unicode="&#xca;" horiz-adv-x="533" d="M209 -87Q145 -87 97 -62T23 6T-4 101Q-4 145 15 188T68 266T149 326T251 359Q215 391 197 430T179 510Q179 563 206 611T282 689T396 719Q457 719 490 690T523 604Q523 565 509 530T476 472T437 450Q423 450 411
462T389 491Q426 521 451 555T477 625Q477 655 457 670T405 686Q360 686 330 659T284 589T268 501Q268 458 284 415T342 339Q270 328 217 290T135 200T106 99Q106 69 118 36T159 -19T236 -42Q291 -42 344 -12T441 69T513 175L540 158Q503 89 453 34T342 -54T209
-87ZM547 744Q531 771 514 789T475 827Q448 818 424 805T373 775Q366 780 363 789T360 803Q360 818 373 833T407 860T446 881T476 889Q488 889 504 879T536 852T562 817T572 783Q572 773 567 762T547 744Z" />
<glyph unicode="&#xcb;" horiz-adv-x="533" d="M209 -87Q145 -87 97 -62T23 6T-4 101Q-4 145 15 188T68 266T149 326T251 359Q215 391 197 430T179 510Q179 563 206 611T282 689T396 719Q457 719 490 690T523 604Q523 565 509 530T476 472T437 450Q423 450 411
462T389 491Q426 521 451 555T477 625Q477 655 457 670T405 686Q360 686 330 659T284 589T268 501Q268 458 284 415T342 339Q270 328 217 290T135 200T106 99Q106 69 118 36T159 -19T236 -42Q291 -42 344 -12T441 69T513 175L540 158Q503 89 453 34T342 -54T209
-87ZM530 753Q514 753 501 761T488 787Q488 807 510 821T555 835Q570 835 581 828T592 802Q592 785 573 769T530 753ZM386 773Q370 773 357 781T343 807Q343 826 365 840T410 855Q426 855 436 848T446 823Q446 806 428 790T386 773Z" />
<glyph unicode="&#xcc;" horiz-adv-x="503" d="M-18 -88Q-14 -45 10 -26T72 0T154 6Q172 44 188 97T220 212T250 336T278 459T303 568T326 649Q275 648 236 645T161 637T89 625Q100 675 152 697T311 719Q364 719 421 715T526 706T601 697Q567 665 537 658T485
650Q452 650 427 650T377 649Q370 615 362 566T343 461T322 349T302 245T284 164Q271 112 253 69T212 4Q265 0 319 -6T438 -14Q398 -51 362 -60T303 -70Q236 -70 192 -70T114 -72T51 -78T-18 -88ZM371 747Q348 775 322 800T254 857Q256 877 265 886T286 896Q301
896 320 883T356 849T385 811T396 783Q396 776 390 764T371 747Z" />
<glyph unicode="&#xcd;" horiz-adv-x="503" d="M-18 -88Q-14 -45 10 -26T72 0T154 6Q172 44 188 97T220 212T250 336T278 459T303 568T326 649Q275 648 236 645T161 637T89 625Q100 675 152 697T311 719Q364 719 421 715T526 706T601 697Q567 665 537 658T485
650Q452 650 427 650T377 649Q370 615 362 566T343 461T322 349T302 245T284 164Q271 112 253 69T212 4Q265 0 319 -6T438 -14Q398 -51 362 -60T303 -70Q236 -70 192 -70T114 -72T51 -78T-18 -88ZM379 747Q366 752 361 763T355 780Q355 788 365 806T391 845T424
880T458 895Q469 895 477 888T488 860Q453 826 427 801T379 747Z" />
<glyph unicode="&#xce;" horiz-adv-x="503" d="M-18 -88Q-14 -45 10 -26T72 0T154 6Q172 44 188 97T220 212T250 336T278 459T303 568T326 649Q275 648 236 645T161 637T89 625Q100 675 152 697T311 719Q364 719 421 715T526 706T601 697Q567 665 537 658T485
650Q452 650 427 650T377 649Q370 615 362 566T343 461T322 349T302 245T284 164Q271 112 253 69T212 4Q265 0 319 -6T438 -14Q398 -51 362 -60T303 -70Q236 -70 192 -70T114 -72T51 -78T-18 -88ZM468 743Q452 770 435 788T396 826Q369 817 345 804T294 774Q287
779 284 788T281 802Q281 817 294 832T328 859T367 880T397 888Q409 888 425 878T457 851T483 816T493 782Q493 772 488 761T468 743Z" />
<glyph unicode="&#xcf;" horiz-adv-x="503" d="M-18 -88Q-14 -45 10 -26T72 0T154 6Q172 44 188 97T220 212T250 336T278 459T303 568T326 649Q275 648 236 645T161 637T89 625Q100 675 152 697T311 719Q364 719 421 715T526 706T601 697Q567 665 537 658T485
650Q452 650 427 650T377 649Q370 615 362 566T343 461T322 349T302 245T284 164Q271 112 253 69T212 4Q265 0 319 -6T438 -14Q398 -51 362 -60T303 -70Q236 -70 192 -70T114 -72T51 -78T-18 -88ZM451 752Q435 752 422 760T409 786Q409 806 431 820T476 834Q491
834 502 827T513 801Q513 784 494 768T451 752ZM307 772Q291 772 278 780T264 806Q264 825 286 839T331 854Q347 854 357 847T367 822Q367 805 349 789T307 772Z" />
<glyph unicode="&#xd0;" horiz-adv-x="688" d="M192 -87Q156 -87 125 -78T70 -37Q84 31 106 115T154 278Q127 277 94 274T28 265Q45 299 82 312T170 328Q192 397 212 455T241 537Q244 545 251 561T269 594T294 622T326 634Q343 634 364 620Q336 556 308 482T255
330Q308 330 359 326T438 320Q401 295 368 287T311 279H239Q211 192 189 109T151 -44Q162 -45 170 -46T189 -47Q253 -47 313 -19T424 58T515 170T575 304T597 446Q597 566 538 622T383 679Q318 679 267 656T186 591T156 499Q156 488 158 476T165 451Q122 451 104
469T85 515Q85 550 110 586T181 652T286 701T415 720Q514 720 573 681T659 578T686 435Q686 349 659 271T583 128T471 14T337 -60T192 -87Z" />
<glyph unicode="&#xd1;" horiz-adv-x="674" d="M56 -87Q71 -37 90 22T134 162T192 354T268 616Q269 619 272 631T275 655Q275 663 273 666T262 669Q241 669 222 652T187 610T163 557T154 507Q154 483 164 460Q120 460 102 478T84 525Q84 559 105 593T158 656T226
702T291 720Q326 720 348 695T385 625T410 525T429 407Q441 327 448 280T459 204T467 157T475 114Q487 162 499 215T525 324T550 431T576 530T601 611T626 668Q635 684 654 702T707 721Q690 676 669 610T625 466T583 308T546 152T521 14T511 -87Q474 -87 451 -70T415
-1Q411 16 403 56T385 150T364 265T343 382T325 485T312 555Q267 391 235 278T179 93T136 -18T98 -72T56 -87ZM588 755Q560 755 530 767T471 791T415 803Q398 803 383 801T350 790Q362 820 385 834T440 849Q468 849 497 837T556 813T613 801Q643 801 672 811Q658
784 639 770T588 755Z" />
<glyph unicode="&#xd2;" horiz-adv-x="655" d="M242 -87Q184 -87 136 -57T60 30T32 164Q32 241 56 319T122 469T220 597T339 686T470 719Q480 719 499 715T538 691Q532 692 525 692T509 693Q457 693 404 661T303 573T218 449T158 304T136 158Q136 106 150 61T195
-11T277 -39Q332 -39 380 -6T467 82T534 206T577 347T592 486Q592 515 588 548T575 606T547 630Q530 630 510 609T471 554T438 485T417 419Q383 426 369 441T354 477Q354 504 373 537T422 600T486 651T549 671Q579 671 597 650T626 594T640 522T644 450Q644 348
619 264T552 114T457 4T349 -64T242 -87ZM543 748Q520 776 494 801T426 858Q428 878 437 887T458 897Q473 897 492 884T528 850T557 812T568 784Q568 777 562 765T543 748Z" />
<glyph unicode="&#xd3;" horiz-adv-x="655" d="M242 -87Q184 -87 136 -57T60 30T32 164Q32 241 56 319T122 469T220 597T339 686T470 719Q480 719 499 715T538 691Q532 692 525 692T509 693Q457 693 404 661T303 573T218 449T158 304T136 158Q136 106 150 61T195
-11T277 -39Q332 -39 380 -6T467 82T534 206T577 347T592 486Q592 515 588 548T575 606T547 630Q530 630 510 609T471 554T438 485T417 419Q383 426 369 441T354 477Q354 504 373 537T422 600T486 651T549 671Q579 671 597 650T626 594T640 522T644 450Q644 348
619 264T552 114T457 4T349 -64T242 -87ZM551 748Q538 753 533 764T527 781Q527 789 537 807T563 846T596 881T630 896Q641 896 649 889T660 861Q625 827 599 802T551 748Z" />
<glyph unicode="&#xd4;" horiz-adv-x="655" d="M242 -87Q184 -87 136 -57T60 30T32 164Q32 241 56 319T122 469T220 597T339 686T470 719Q480 719 499 715T538 691Q532 692 525 692T509 693Q457 693 404 661T303 573T218 449T158 304T136 158Q136 106 150 61T195
-11T277 -39Q332 -39 380 -6T467 82T534 206T577 347T592 486Q592 515 588 548T575 606T547 630Q530 630 510 609T471 554T438 485T417 419Q383 426 369 441T354 477Q354 504 373 537T422 600T486 651T549 671Q579 671 597 650T626 594T640 522T644 450Q644 348
619 264T552 114T457 4T349 -64T242 -87ZM640 744Q624 771 607 789T568 827Q541 818 517 805T466 775Q459 780 456 789T453 803Q453 818 466 833T500 860T539 881T569 889Q581 889 597 879T629 852T655 817T665 783Q665 773 660 762T640 744Z" />
<glyph unicode="&#xd5;" horiz-adv-x="655" d="M242 -87Q184 -87 136 -57T60 30T32 164Q32 241 56 319T122 469T220 597T339 686T470 719Q480 719 499 715T538 691Q532 692 525 692T509 693Q457 693 404 661T303 573T218 449T158 304T136 158Q136 106 150 61T195
-11T277 -39Q332 -39 380 -6T467 82T534 206T577 347T592 486Q592 515 588 548T575 606T547 630Q530 630 510 609T471 554T438 485T417 419Q383 426 369 441T354 477Q354 504 373 537T422 600T486 651T549 671Q579 671 597 650T626 594T640 522T644 450Q644 348
619 264T552 114T457 4T349 -64T242 -87ZM623 755Q595 755 565 767T506 791T450 803Q433 803 418 801T385 790Q397 820 420 834T475 849Q503 849 532 837T591 813T648 801Q678 801 707 811Q693 784 674 770T623 755Z" />
<glyph unicode="&#xd6;" horiz-adv-x="655" d="M242 -87Q184 -87 136 -57T60 30T32 164Q32 241 56 319T122 469T220 597T339 686T470 719Q480 719 499 715T538 691Q532 692 525 692T509 693Q457 693 404 661T303 573T218 449T158 304T136 158Q136 106 150 61T195
-11T277 -39Q332 -39 380 -6T467 82T534 206T577 347T592 486Q592 515 588 548T575 606T547 630Q530 630 510 609T471 554T438 485T417 419Q383 426 369 441T354 477Q354 504 373 537T422 600T486 651T549 671Q579 671 597 650T626 594T640 522T644 450Q644 348
619 264T552 114T457 4T349 -64T242 -87ZM623 753Q607 753 594 761T581 787Q581 807 603 821T648 835Q663 835 674 828T685 802Q685 785 666 769T623 753ZM479 773Q463 773 450 781T436 807Q436 826 458 840T503 855Q519 855 529 848T539 823Q539 806 521 790T479
773Z" />
<glyph unicode="&#xd7;" horiz-adv-x="405" d="M325 20Q303 36 261 68T178 140Q159 122 141 104T106 65T68 19Q58 35 58 46Q58 72 82 105T140 176Q110 207 91 234T72 285Q72 290 73 296T81 314Q105 283 127 260T176 210Q214 245 251 276T309 322Q303 275 285 247T246
202L216 175L265 130Q280 116 298 89T325 20Z" />
<glyph unicode="&#xd8;" horiz-adv-x="654" d="M70 -101Q62 -101 53 -100T32 -96Q52 -83 70 -68T104 -34Q70 -2 50 48T30 166Q30 242 54 320T121 469T219 597T336 685T460 718Q478 718 494 714T523 692H509Q457 692 404 660T302 572T217 447T157 303T135 158Q135
123 141 89T161 28Q201 77 246 136T337 260T426 387T507 505T572 603Q567 616 561 622T546 629Q529 629 509 607T469 552T436 482T415 418Q382 426 368 441T353 476Q353 503 372 536T422 599T485 650T545 670Q562 670 576 663T600 642Q608 653 633 662T681 671Q686
671 691 671T710 668Q700 655 682 629T634 559Q640 533 642 507T644 456Q644 351 619 266T551 114T456 3T348 -65T243 -88Q219 -88 198 -83T157 -70Q133 -86 110 -93T70 -101ZM273 -40Q330 -40 379 -7T467 83T534 209T576 353T591 497Q558 450 519 395T441 285T368
182T308 97T271 46Q256 26 241 8T211 -25Q224 -32 239 -36T273 -40Z" />
<glyph unicode="&#xd9;" horiz-adv-x="750" d="M588 -99Q551 -99 525 -66T498 13Q498 21 498 35T500 65Q464 -2 412 -45T287 -88Q220 -88 183 -48T145 64Q145 108 157 159T187 266T223 376T253 486T265 588Q265 678 211 678Q184 678 165 661T134 619T115 567T109
523Q109 508 113 491T122 459Q74 459 54 481T33 536Q33 567 48 599T90 658T155 702T235 719Q296 719 323 684T351 590Q351 553 342 508T319 415T291 322Q266 241 250 182T234 75Q234 29 253 -2T317 -34Q358 -34 392 -9T451 57T495 143T522 227Q536 286 553 353T588
485T626 603T663 687T700 719Q710 719 727 709T764 680Q755 673 738 638T700 548T658 427T619 292T590 158T579 44Q579 -18 600 -38T673 -58Q662 -77 636 -88T588 -99ZM514 748Q491 776 465 801T397 858Q399 878 408 887T429 897Q444 897 463 884T499 850T528 812T539
784Q539 777 533 765T514 748Z" />
<glyph unicode="&#xda;" horiz-adv-x="750" d="M588 -99Q551 -99 525 -66T498 13Q498 21 498 35T500 65Q464 -2 412 -45T287 -88Q220 -88 183 -48T145 64Q145 108 157 159T187 266T223 376T253 486T265 588Q265 678 211 678Q184 678 165 661T134 619T115 567T109
523Q109 508 113 491T122 459Q74 459 54 481T33 536Q33 567 48 599T90 658T155 702T235 719Q296 719 323 684T351 590Q351 553 342 508T319 415T291 322Q266 241 250 182T234 75Q234 29 253 -2T317 -34Q358 -34 392 -9T451 57T495 143T522 227Q536 286 553 353T588
485T626 603T663 687T700 719Q710 719 727 709T764 680Q755 673 738 638T700 548T658 427T619 292T590 158T579 44Q579 -18 600 -38T673 -58Q662 -77 636 -88T588 -99ZM522 748Q509 753 504 764T498 781Q498 789 508 807T534 846T567 881T601 896Q612 896 620 889T631
861Q596 827 570 802T522 748Z" />
<glyph unicode="&#xdb;" horiz-adv-x="750" d="M588 -99Q551 -99 525 -66T498 13Q498 21 498 35T500 65Q464 -2 412 -45T287 -88Q220 -88 183 -48T145 64Q145 108 157 159T187 266T223 376T253 486T265 588Q265 678 211 678Q184 678 165 661T134 619T115 567T109
523Q109 508 113 491T122 459Q74 459 54 481T33 536Q33 567 48 599T90 658T155 702T235 719Q296 719 323 684T351 590Q351 553 342 508T319 415T291 322Q266 241 250 182T234 75Q234 29 253 -2T317 -34Q358 -34 392 -9T451 57T495 143T522 227Q536 286 553 353T588
485T626 603T663 687T700 719Q710 719 727 709T764 680Q755 673 738 638T700 548T658 427T619 292T590 158T579 44Q579 -18 600 -38T673 -58Q662 -77 636 -88T588 -99ZM611 744Q595 771 578 789T539 827Q512 818 488 805T437 775Q430 780 427 789T424 803Q424 818
437 833T471 860T510 881T540 889Q552 889 568 879T600 852T626 817T636 783Q636 773 631 762T611 744Z" />
<glyph unicode="&#xdc;" horiz-adv-x="750" d="M588 -99Q551 -99 525 -66T498 13Q498 21 498 35T500 65Q464 -2 412 -45T287 -88Q220 -88 183 -48T145 64Q145 108 157 159T187 266T223 376T253 486T265 588Q265 678 211 678Q184 678 165 661T134 619T115 567T109
523Q109 508 113 491T122 459Q74 459 54 481T33 536Q33 567 48 599T90 658T155 702T235 719Q296 719 323 684T351 590Q351 553 342 508T319 415T291 322Q266 241 250 182T234 75Q234 29 253 -2T317 -34Q358 -34 392 -9T451 57T495 143T522 227Q536 286 553 353T588
485T626 603T663 687T700 719Q710 719 727 709T764 680Q755 673 738 638T700 548T658 427T619 292T590 158T579 44Q579 -18 600 -38T673 -58Q662 -77 636 -88T588 -99ZM594 753Q578 753 565 761T552 787Q552 807 574 821T619 835Q634 835 645 828T656 802Q656 785
637 769T594 753ZM450 773Q434 773 421 781T407 807Q407 826 429 840T474 855Q490 855 500 848T510 823Q510 806 492 790T450 773Z" />
<glyph unicode="&#xdd;" horiz-adv-x="706" d="M286 -187Q225 -187 184 -162T142 -88Q142 -57 161 -32T218 1Q212 -26 210 -40T207 -67Q207 -107 229 -129T298 -152Q332 -152 358 -141T405 -109T441 -61T468 -3T488 62Q504 126 513 187T534 287Q495 224 444 185T325
145Q258 145 230 182T202 273Q202 310 211 353T234 442T256 530T266 606Q266 636 255 657T212 678Q185 678 166 663T134 622T115 569T109 515Q109 499 111 488T121 459Q72 459 52 481T32 536Q32 566 47 598T89 658T154 703T234 720Q274 720 300 705T338 665T351
610Q351 588 344 557T323 475Q309 424 298 379T287 293Q287 251 303 225T358 199Q392 199 422 218T480 271T529 348T567 439Q580 477 593 524T622 617T655 691T693 720Q704 720 723 710T761 682Q739 649 724 619T695 554T667 472T636 357T596 193Q583 141 567 88T527
-15T470 -103T392 -164T286 -187ZM513 748Q500 753 495 764T489 781Q489 789 499 807T525 846T558 881T592 896Q603 896 611 889T622 861Q587 827 561 802T513 748Z" />
<glyph unicode="&#xde;" horiz-adv-x="543" d="M133 -87Q103 -87 76 -71T49 -30Q49 -19 53 -3T62 26Q102 150 146 279T242 542Q203 535 174 522T125 499T99 488Q94 488 84 494T67 510T59 527Q95 541 148 558T259 581Q267 599 275 622T294 666T319 702T353 716Q359
716 367 713T385 698Q372 673 359 643T334 581Q377 575 419 561T496 523T552 463T573 381Q573 326 545 287T473 223T377 182T279 160T199 152Q180 89 165 28T133 -87ZM208 186Q261 193 311 209T402 252T467 316T491 402Q491 452 466 483T402 529T320 546Q289 463
262 372T208 186Z" />
<glyph unicode="&#xdf;" horiz-adv-x="471" d="M-43 -115Q-29 -96 -18 -51T4 57T25 194T52 343T88 486T137 609T205 694T296 726Q346 726 380 696T415 608Q415 558 389 514T323 434T245 376Q293 362 326 330T376 254T393 161Q393 118 380 75T343 -4T287 -60T216
-82Q178 -82 157 -62T127 -10T119 53Q119 86 126 114T148 160T186 178Q191 178 198 178T225 173Q211 166 200 144T181 91T174 26Q174 -3 181 -25T206 -48Q222 -48 240 -30T275 20T301 89T312 164Q312 217 290 265T229 345Q222 350 214 359T205 378Q205 388 213
397T232 415Q257 437 283 464T328 527T346 608Q346 626 342 643T325 673T288 685Q250 685 223 654T178 569T145 448T119 307T94 164T63 34T20 -64T-43 -115Z" />
<glyph unicode="&#xe0;" horiz-adv-x="444" d="M56 -47Q23 -47 -1 -25T-26 41Q-26 76 -10 117T34 198T98 270T175 323T257 343Q300 343 330 321T360 263Q360 236 341 224T296 217Q298 226 299 235T301 254Q301 274 293 290T259 306Q231 306 202 287T147 238T99
171T66 99T54 36Q54 4 77 4Q100 4 128 26T184 83T239 152T284 213Q287 218 292 218Q296 217 307 214T329 203T339 185Q339 175 331 160T311 126T291 89T282 53Q282 40 289 29T312 17Q336 17 379 52T468 173L487 154Q463 100 430 59T359 -6T284 -30Q243 -30 223
-4T201 52Q201 54 201 55T201 57Q161 9 128 -19T56 -47ZM331 409Q308 437 282 462T214 519Q216 539 225 548T246 558Q261 558 280 545T316 511T345 473T356 445Q356 438 350 426T331 409Z" />
<glyph unicode="&#xe1;" horiz-adv-x="444" d="M56 -47Q23 -47 -1 -25T-26 41Q-26 76 -10 117T34 198T98 270T175 323T257 343Q300 343 330 321T360 263Q360 236 341 224T296 217Q298 226 299 235T301 254Q301 274 293 290T259 306Q231 306 202 287T147 238T99
171T66 99T54 36Q54 4 77 4Q100 4 128 26T184 83T239 152T284 213Q287 218 292 218Q296 217 307 214T329 203T339 185Q339 175 331 160T311 126T291 89T282 53Q282 40 289 29T312 17Q336 17 379 52T468 173L487 154Q463 100 430 59T359 -6T284 -30Q243 -30 223
-4T201 52Q201 54 201 55T201 57Q161 9 128 -19T56 -47ZM562 410Q549 415 544 426T538 443Q538 451 548 469T574 508T607 543T641 558Q652 558 660 551T671 523Q636 489 610 464T562 410Z" />
<glyph unicode="&#xe2;" horiz-adv-x="444" d="M56 -47Q23 -47 -1 -25T-26 41Q-26 76 -10 117T34 198T98 270T175 323T257 343Q300 343 330 321T360 263Q360 236 341 224T296 217Q298 226 299 235T301 254Q301 274 293 290T259 306Q231 306 202 287T147 238T99
171T66 99T54 36Q54 4 77 4Q100 4 128 26T184 83T239 152T284 213Q287 218 292 218Q296 217 307 214T329 203T339 185Q339 175 331 160T311 126T291 89T282 53Q282 40 289 29T312 17Q336 17 379 52T468 173L487 154Q463 100 430 59T359 -6T284 -30Q243 -30 223
-4T201 52Q201 54 201 55T201 57Q161 9 128 -19T56 -47ZM651 402Q635 429 618 447T579 485Q552 476 528 463T477 433Q470 438 467 447T464 461Q464 476 477 491T511 518T550 539T580 547Q592 547 608 537T640 510T666 475T676 441Q676 431 671 420T651 402Z" />
<glyph unicode="&#xe3;" horiz-adv-x="444" d="M56 -47Q23 -47 -1 -25T-26 41Q-26 76 -10 117T34 198T98 270T175 323T257 343Q300 343 330 321T360 263Q360 236 341 224T296 217Q298 226 299 235T301 254Q301 274 293 290T259 306Q231 306 202 287T147 238T99
171T66 99T54 36Q54 4 77 4Q100 4 128 26T184 83T239 152T284 213Q287 218 292 218Q296 217 307 214T329 203T339 185Q339 175 331 160T311 126T291 89T282 53Q282 40 289 29T312 17Q336 17 379 52T468 173L487 154Q463 100 430 59T359 -6T284 -30Q243 -30 223
-4T201 52Q201 54 201 55T201 57Q161 9 128 -19T56 -47ZM403 397Q375 397 345 409T286 433T230 445Q213 445 198 443T165 432Q177 462 200 476T255 491Q283 491 312 479T371 455T428 443Q458 443 487 453Q473 426 454 412T403 397Z" />
<glyph unicode="&#xe4;" horiz-adv-x="444" d="M56 -47Q23 -47 -1 -25T-26 41Q-26 76 -10 117T34 198T98 270T175 323T257 343Q300 343 330 321T360 263Q360 236 341 224T296 217Q298 226 299 235T301 254Q301 274 293 290T259 306Q231 306 202 287T147 238T99
171T66 99T54 36Q54 4 77 4Q100 4 128 26T184 83T239 152T284 213Q287 218 292 218Q296 217 307 214T329 203T339 185Q339 175 331 160T311 126T291 89T282 53Q282 40 289 29T312 17Q336 17 379 52T468 173L487 154Q463 100 430 59T359 -6T284 -30Q243 -30 223
-4T201 52Q201 54 201 55T201 57Q161 9 128 -19T56 -47ZM631 417Q615 417 602 425T589 451Q589 471 611 485T656 499Q671 499 682 492T693 466Q693 449 674 433T631 417ZM487 437Q471 437 458 445T444 471Q444 490 466 504T511 519Q527 519 537 512T547 487Q547
470 529 454T487 437Z" />
<glyph unicode="&#xe5;" horiz-adv-x="444" d="M56 -47Q23 -47 -1 -25T-26 41Q-26 76 -10 117T34 198T98 270T175 323T257 343Q300 343 330 321T360 263Q360 236 341 224T296 217Q298 226 299 235T301 254Q301 274 293 290T259 306Q231 306 202 287T147 238T99
171T66 99T54 36Q54 4 77 4Q100 4 128 26T184 83T239 152T284 213Q287 218 292 218Q296 217 307 214T329 203T339 185Q339 175 331 160T311 126T291 89T282 53Q282 40 289 29T312 17Q336 17 379 52T468 173L487 154Q463 100 430 59T359 -6T284 -30Q243 -30 223
-4T201 52Q201 54 201 55T201 57Q161 9 128 -19T56 -47ZM321 398Q281 398 262 414T243 455Q243 478 259 503T303 546T367 564Q411 564 430 547T449 507Q449 484 432 459T386 416T321 398ZM329 433Q347 433 362 444T388 470T398 500Q398 510 390 518T363 526Q346
526 330 516T305 490T295 461Q296 452 304 443T329 433Z" />
<glyph unicode="&#xe6;" horiz-adv-x="556" d="M58 -47Q24 -47 -1 -25T-26 41Q-26 76 -10 117T34 198T98 271T176 324T259 344Q286 344 304 334T332 307Q363 330 397 345T464 360Q490 360 512 347T535 294Q535 256 513 223T454 164T373 122T283 100Q282 93 282
86T281 72Q283 46 298 23T358 -1Q401 -1 443 22T521 85T582 172L601 156Q574 95 532 50T439 -19T337 -44Q279 -44 246 -15T205 56Q165 7 130 -20T58 -47ZM80 8Q106 8 139 37T204 105Q211 149 236 194T299 276Q295 288 285 295T257 303Q229 303 201 285T147 236T101
171T70 101T58 39Q58 8 80 8ZM293 137Q320 147 352 163T413 201T460 248T478 301Q478 308 475 311T462 315Q440 315 415 300T367 258T324 201T293 137Z" />
<glyph unicode="&#xe7;" horiz-adv-x="333" d="M113 -56Q61 -56 28 -24T-6 76Q-6 125 13 172T64 256T135 316T216 338Q258 338 276 317T295 268Q295 240 282 214T245 187Q226 187 214 206Q224 213 235 232T246 281Q246 289 242 293T227 298Q202 298 175 276T124
218T86 143T71 70Q71 42 85 19T142 -5Q180 -5 221 17T298 78T356 173L376 155Q352 94 310 47T216 -28T113 -56ZM189 -233Q159 -233 141 -220T123 -192Q123 -183 131 -172T155 -149Q163 -174 173 -184T195 -194Q212 -194 230 -180T262 -146T276 -111Q276 -103 272
-99T260 -95Q248 -95 233 -104T204 -122T181 -132Q172 -132 166 -123T160 -107Q160 -105 169 -92T192 -61T220 -25T244 0H260L213 -75Q221 -72 236 -68T267 -63Q290 -63 305 -75T321 -113Q321 -140 303 -167T254 -214T189 -233Z" />
<glyph unicode="&#xe8;" horiz-adv-x="341" d="M116 -44Q52 -44 18 -10T-17 77Q-17 121 5 170T66 263T150 334T242 361Q268 361 291 348T315 294Q315 256 293 223T234 164T153 122T63 100Q62 96 62 92T61 77Q61 72 62 60T71 33T94 9T138 -1Q180 -1 222 22T302
85T365 172L385 156Q358 96 316 51T222 -19T116 -44ZM74 137Q100 140 132 155T193 193T242 243T261 299Q261 310 257 314T244 318Q221 318 196 302T147 259T104 200T74 137ZM313 418Q290 446 264 471T196 528Q198 548 207 557T228 567Q243 567 262 554T298 520T327
482T338 454Q338 447 332 435T313 418Z" />
<glyph unicode="&#xe9;" horiz-adv-x="341" d="M116 -44Q52 -44 18 -10T-17 77Q-17 121 5 170T66 263T150 334T242 361Q268 361 291 348T315 294Q315 256 293 223T234 164T153 122T63 100Q62 96 62 92T61 77Q61 72 62 60T71 33T94 9T138 -1Q180 -1 222 22T302
85T365 172L385 156Q358 96 316 51T222 -19T116 -44ZM74 137Q100 140 132 155T193 193T242 243T261 299Q261 310 257 314T244 318Q221 318 196 302T147 259T104 200T74 137ZM544 419Q531 424 526 435T520 452Q520 460 530 478T556 517T589 552T623 567Q634 567
642 560T653 532Q618 498 592 473T544 419Z" />
<glyph unicode="&#xea;" horiz-adv-x="341" d="M116 -44Q52 -44 18 -10T-17 77Q-17 121 5 170T66 263T150 334T242 361Q268 361 291 348T315 294Q315 256 293 223T234 164T153 122T63 100Q62 96 62 92T61 77Q61 72 62 60T71 33T94 9T138 -1Q180 -1 222 22T302
85T365 172L385 156Q358 96 316 51T222 -19T116 -44ZM74 137Q100 140 132 155T193 193T242 243T261 299Q261 310 257 314T244 318Q221 318 196 302T147 259T104 200T74 137ZM633 411Q617 438 600 456T561 494Q534 485 510 472T459 442Q452 447 449 456T446 470Q446
485 459 500T493 527T532 548T562 556Q574 556 590 546T622 519T648 484T658 450Q658 440 653 429T633 411Z" />
<glyph unicode="&#xeb;" horiz-adv-x="341" d="M116 -44Q52 -44 18 -10T-17 77Q-17 121 5 170T66 263T150 334T242 361Q268 361 291 348T315 294Q315 256 293 223T234 164T153 122T63 100Q62 96 62 92T61 77Q61 72 62 60T71 33T94 9T138 -1Q180 -1 222 22T302
85T365 172L385 156Q358 96 316 51T222 -19T116 -44ZM74 137Q100 140 132 155T193 193T242 243T261 299Q261 310 257 314T244 318Q221 318 196 302T147 259T104 200T74 137ZM613 426Q597 426 584 434T571 460Q571 480 593 494T638 508Q653 508 664 501T675 475Q675
458 656 442T613 426ZM469 446Q453 446 440 454T426 480Q426 499 448 513T493 528Q509 528 519 521T529 496Q529 479 511 463T469 446Z" />
<glyph unicode="&#xec;" horiz-adv-x="244" d="M80 -30Q36 -30 14 -4T-8 59Q-8 82 0 117T22 190T56 263T97 318T141 340Q153 340 162 333T171 311Q171 298 156 272T120 212T84 142T68 72Q68 40 79 30T113 19Q147 19 187 53T270 172L285 156Q250 68 196 19T80 -30ZM205
415Q182 443 156 468T88 525Q90 545 99 554T120 564Q135 564 154 551T190 517T219 479T230 451Q230 444 224 432T205 415Z" />
<glyph unicode="&#xed;" horiz-adv-x="229" d="M80 -30Q36 -30 14 -4T-8 59Q-8 82 0 117T22 190T56 263T97 318T141 340Q153 340 162 333T171 311Q171 298 156 272T120 212T84 142T68 72Q68 40 79 30T113 19Q147 19 187 53T270 172L285 156Q250 68 196 19T80 -30ZM449
410Q436 415 431 426T425 443Q425 451 435 469T461 508T494 543T528 558Q539 558 547 551T558 523Q523 489 497 464T449 410Z" />
<glyph unicode="&#xee;" horiz-adv-x="270" d="M80 -30Q36 -30 14 -4T-8 59Q-8 82 0 117T22 190T56 263T97 318T141 340Q153 340 162 333T171 311Q171 298 156 272T120 212T84 142T68 72Q68 40 79 30T113 19Q147 19 187 53T270 172L285 156Q250 68 196 19T80 -30ZM542
402Q526 429 509 447T470 485Q443 476 419 463T368 433Q361 438 358 447T355 461Q355 476 368 491T402 518T441 539T471 547Q483 547 499 537T531 510T557 475T567 441Q567 431 562 420T542 402Z" />
<glyph unicode="&#xef;" horiz-adv-x="228" d="M80 -30Q36 -30 14 -4T-8 59Q-8 82 0 117T22 190T56 263T97 318T141 340Q153 340 162 333T171 311Q171 298 156 272T120 212T84 142T68 72Q68 40 79 30T113 19Q147 19 187 53T270 172L285 156Q250 68 196 19T80 -30ZM502
415Q486 415 473 423T460 449Q460 469 482 483T527 497Q542 497 553 490T564 464Q564 447 545 431T502 415ZM358 435Q342 435 329 443T315 469Q315 488 337 502T382 517Q398 517 408 510T418 485Q418 468 400 452T358 435Z" />
<glyph unicode="&#xf0;" horiz-adv-x="488" d="M59 -30Q31 -30 6 -9T-19 58Q-19 92 -3 133T40 215T103 291T177 346T255 367Q285 367 300 355T316 326Q316 320 314 314T308 300Q290 323 259 323Q228 323 200 305T147 256T104 192T75 125T64 69Q64 50 72 39T95
27Q116 27 145 48T205 105T265 189T317 290Q337 337 348 384T360 478Q360 489 359 498T356 521Q341 519 317 514T269 504T232 495Q232 522 247 536T289 557T344 568Q333 600 310 631T249 692Q270 719 300 719Q333 719 358 699T402 646T431 577Q455 579 486 583T537
594Q522 569 509 557T480 540T441 532Q443 521 444 512T445 489Q445 441 429 385T391 270T354 159T337 65Q337 48 342 38T361 28Q382 28 410 46T466 99T516 178L535 166Q512 110 478 67T406 -1T328 -26Q287 -26 271 1T255 62Q255 81 258 100T264 136Q234 92 198
54T126 -7T59 -30Z" />
<glyph unicode="&#xf1;" horiz-adv-x="473" d="M337 -20Q298 -20 278 -1T257 49Q257 69 264 91T278 137T285 181Q285 203 275 211T250 220Q220 220 189 196T128 134T72 57T27 -15Q8 -15 -9 -9T-38 14Q-37 19 -27 44T-3 105T20 180T30 251Q37 259 51 267T82 275Q117
275 117 245Q117 233 113 210T100 156Q126 191 157 222T221 272T289 292Q332 292 352 263T373 199Q373 169 363 143T344 94T334 49Q334 33 341 27T358 20Q382 20 408 43T457 101T499 173L516 159Q495 110 469 70T410 5T337 -20ZM369 351Q341 351 311 363T252 387T196
399Q179 399 164 397T131 386Q143 416 166 430T221 445Q249 445 278 433T337 409T394 397Q424 397 453 407Q439 380 420 366T369 351Z" />
<glyph unicode="&#xf2;" horiz-adv-x="372" d="M66 -32Q21 -32 5 -3T-12 62Q-12 94 -2 127T25 190T64 236T108 254Q115 254 124 252T138 244Q126 229 114 207T91 161T74 111T68 65Q68 45 75 32T102 19Q121 19 147 40T198 90Q166 119 152 153T138 237Q138 258 148
285T182 332T246 352Q289 352 306 328T324 271Q324 234 305 188T258 101Q270 95 286 95Q301 95 322 102T363 125T395 170L413 157Q391 106 355 83T283 59Q270 59 257 61T233 68Q199 28 155 -2T66 -32ZM224 122Q248 157 265 197T282 271Q282 294 275 304T254 315Q235
315 215 288T195 220Q195 199 202 169T224 122ZM308 423Q285 451 259 476T191 533Q193 553 202 562T223 572Q238 572 257 559T293 525T322 487T333 459Q333 452 327 440T308 423Z" />
<glyph unicode="&#xf3;" horiz-adv-x="372" d="M66 -32Q21 -32 5 -3T-12 62Q-12 94 -2 127T25 190T64 236T108 254Q115 254 124 252T138 244Q126 229 114 207T91 161T74 111T68 65Q68 45 75 32T102 19Q121 19 147 40T198 90Q166 119 152 153T138 237Q138 258 148
285T182 332T246 352Q289 352 306 328T324 271Q324 234 305 188T258 101Q270 95 286 95Q301 95 322 102T363 125T395 170L413 157Q391 106 355 83T283 59Q270 59 257 61T233 68Q199 28 155 -2T66 -32ZM224 122Q248 157 265 197T282 271Q282 294 275 304T254 315Q235
315 215 288T195 220Q195 199 202 169T224 122ZM539 424Q526 429 521 440T515 457Q515 465 525 483T551 522T584 557T618 572Q629 572 637 565T648 537Q613 503 587 478T539 424Z" />
<glyph unicode="&#xf4;" horiz-adv-x="372" d="M66 -32Q21 -32 5 -3T-12 62Q-12 94 -2 127T25 190T64 236T108 254Q115 254 124 252T138 244Q126 229 114 207T91 161T74 111T68 65Q68 45 75 32T102 19Q121 19 147 40T198 90Q166 119 152 153T138 237Q138 258 148
285T182 332T246 352Q289 352 306 328T324 271Q324 234 305 188T258 101Q270 95 286 95Q301 95 322 102T363 125T395 170L413 157Q391 106 355 83T283 59Q270 59 257 61T233 68Q199 28 155 -2T66 -32ZM224 122Q248 157 265 197T282 271Q282 294 275 304T254 315Q235
315 215 288T195 220Q195 199 202 169T224 122ZM628 416Q612 443 595 461T556 499Q529 490 505 477T454 447Q447 452 444 461T441 475Q441 490 454 505T488 532T527 553T557 561Q569 561 585 551T617 524T643 489T653 455Q653 445 648 434T628 416Z" />
<glyph unicode="&#xf5;" horiz-adv-x="372" d="M66 -32Q21 -32 5 -3T-12 62Q-12 94 -2 127T25 190T64 236T108 254Q115 254 124 252T138 244Q126 229 114 207T91 161T74 111T68 65Q68 45 75 32T102 19Q121 19 147 40T198 90Q166 119 152 153T138 237Q138 258 148
285T182 332T246 352Q289 352 306 328T324 271Q324 234 305 188T258 101Q270 95 286 95Q301 95 322 102T363 125T395 170L413 157Q391 106 355 83T283 59Q270 59 257 61T233 68Q199 28 155 -2T66 -32ZM224 122Q248 157 265 197T282 271Q282 294 275 304T254 315Q235
315 215 288T195 220Q195 199 202 169T224 122ZM380 411Q352 411 322 423T263 447T207 459Q190 459 175 457T142 446Q154 476 177 490T232 505Q260 505 289 493T348 469T405 457Q435 457 464 467Q450 440 431 426T380 411Z" />
<glyph unicode="&#xf6;" horiz-adv-x="350" d="M66 -32Q21 -32 5 -3T-12 62Q-12 94 -2 127T25 190T64 236T108 254Q115 254 124 252T138 244Q126 229 114 207T91 161T74 111T68 65Q68 45 75 32T102 19Q121 19 147 40T198 90Q166 119 152 153T138 237Q138 258 148
285T182 332T246 352Q289 352 306 328T324 271Q324 234 305 188T258 101Q270 95 286 95Q301 95 322 102T363 125T395 170L413 157Q391 106 355 83T283 59Q270 59 257 61T233 68Q199 28 155 -2T66 -32ZM224 122Q248 157 265 197T282 271Q282 294 275 304T254 315Q235
315 215 288T195 220Q195 199 202 169T224 122ZM610 411Q594 411 581 419T568 445Q568 465 590 479T635 493Q650 493 661 486T672 460Q672 443 653 427T610 411ZM466 431Q450 431 437 439T423 465Q423 484 445 498T490 513Q506 513 516 506T526 481Q526 464 508
448T466 431Z" />
<glyph unicode="&#xf7;" horiz-adv-x="491" d="M26 116Q34 146 65 159T140 175T235 179Q271 179 308 177T378 173T428 169Q406 154 381 145T320 132T228 128Q185 128 138 126T26 116ZM185 -15Q170 -15 157 -7T144 18Q144 37 165 51T209 65Q224 65 233 58T243 34Q243
18 225 2T185 -15ZM243 234Q228 234 215 242T202 267Q202 286 223 300T267 314Q282 314 291 307T301 283Q301 267 284 251T243 234Z" />
<glyph unicode="&#xf8;" horiz-adv-x="372" d="M66 -32Q49 -32 40 -28Q23 -39 7 -45T-26 -51Q-31 -51 -35 -50T-45 -48Q-34 -42 -21 -31T6 -5Q-4 9 -8 26T-12 62Q-12 94 -2 127T25 190T64 236T108 254Q116 254 122 252T138 245Q129 240 117 220T94 172T76 115T68
62Q88 85 109 110T150 162Q145 179 142 198T139 240Q139 274 152 299T189 338T246 352Q270 352 288 342Q294 350 300 358T312 374Q317 381 328 385T356 389Q361 389 367 389T380 386Q376 379 359 357T319 305Q324 288 324 271Q324 234 305 188T258 101Q275 91 295
91Q324 91 350 111T395 170L413 157Q391 106 355 83T283 59Q270 59 257 61T233 68Q199 28 155 -2T66 -32ZM198 90Q191 97 184 104T172 119Q149 90 130 65T93 20Q96 19 102 19Q121 19 147 40T198 90ZM224 122Q246 153 262 189T281 258Q262 233 243 209T205 160Q208
149 213 139T224 122ZM266 312Q264 314 261 314T254 315Q241 315 228 303T205 268T195 218Q213 241 230 265T266 312Z" />
<glyph unicode="&#xf9;" horiz-adv-x="441" d="M76 -30Q42 -30 21 1T-1 74Q-1 102 8 140T31 214T61 274T90 298Q97 298 111 291T137 272Q126 256 111 223T83 152T71 83Q71 79 72 64T80 36T101 23Q118 23 137 41T177 89T217 153T252 219T278 273Q287 272 301 268T327
258T338 239Q338 236 329 215T307 163T285 102T275 46Q275 32 280 22T302 11Q323 11 352 30T412 85T467 171L482 159Q460 105 425 62T350 -5T272 -30Q243 -30 229 -17T209 18T203 62Q203 67 203 72T203 82Q186 55 166 30T124 -13T76 -30ZM270 369Q247 397 221 422T153
479Q155 499 164 508T185 518Q200 518 219 505T255 471T284 433T295 405Q295 398 289 386T270 369Z" />
<glyph unicode="&#xfa;" horiz-adv-x="441" d="M76 -30Q42 -30 21 1T-1 74Q-1 102 8 140T31 214T61 274T90 298Q97 298 111 291T137 272Q126 256 111 223T83 152T71 83Q71 79 72 64T80 36T101 23Q118 23 137 41T177 89T217 153T252 219T278 273Q287 272 301 268T327
258T338 239Q338 236 329 215T307 163T285 102T275 46Q275 32 280 22T302 11Q323 11 352 30T412 85T467 171L482 159Q460 105 425 62T350 -5T272 -30Q243 -30 229 -17T209 18T203 62Q203 67 203 72T203 82Q186 55 166 30T124 -13T76 -30ZM501 370Q488 375 483 386T477
403Q477 411 487 429T513 468T546 503T580 518Q591 518 599 511T610 483Q575 449 549 424T501 370Z" />
<glyph unicode="&#xfb;" horiz-adv-x="441" d="M76 -30Q42 -30 21 1T-1 74Q-1 102 8 140T31 214T61 274T90 298Q97 298 111 291T137 272Q126 256 111 223T83 152T71 83Q71 79 72 64T80 36T101 23Q118 23 137 41T177 89T217 153T252 219T278 273Q287 272 301 268T327
258T338 239Q338 236 329 215T307 163T285 102T275 46Q275 32 280 22T302 11Q323 11 352 30T412 85T467 171L482 159Q460 105 425 62T350 -5T272 -30Q243 -30 229 -17T209 18T203 62Q203 67 203 72T203 82Q186 55 166 30T124 -13T76 -30ZM590 362Q574 389 557 407T518
445Q491 436 467 423T416 393Q409 398 406 407T403 421Q403 436 416 451T450 478T489 499T519 507Q531 507 547 497T579 470T605 435T615 401Q615 391 610 380T590 362Z" />
<glyph unicode="&#xfc;" horiz-adv-x="441" d="M76 -30Q42 -30 21 1T-1 74Q-1 102 8 140T31 214T61 274T90 298Q97 298 111 291T137 272Q126 256 111 223T83 152T71 83Q71 79 72 64T80 36T101 23Q118 23 137 41T177 89T217 153T252 219T278 273Q287 272 301 268T327
258T338 239Q338 236 329 215T307 163T285 102T275 46Q275 32 280 22T302 11Q323 11 352 30T412 85T467 171L482 159Q460 105 425 62T350 -5T272 -30Q243 -30 229 -17T209 18T203 62Q203 67 203 72T203 82Q186 55 166 30T124 -13T76 -30ZM570 377Q554 377 541 385T528
411Q528 431 550 445T595 459Q610 459 621 452T632 426Q632 409 613 393T570 377ZM426 397Q410 397 397 405T383 431Q383 450 405 464T450 479Q466 479 476 472T486 447Q486 430 468 414T426 397Z" />
<glyph unicode="&#xfd;" horiz-adv-x="400" d="M48 -280Q23 -280 2 -265T-20 -215Q-20 -183 -1 -158T48 -111T112 -72T179 -39Q190 -10 203 34T227 117Q196 74 161 41T83 8Q65 8 45 15T12 41T-2 91Q-2 117 7 154T31 226T62 285T90 309Q96 309 107 305T130 293T144
276Q135 264 124 242T103 192T87 138T80 93Q80 78 86 67T109 56Q131 56 154 74T200 120T241 177Q243 184 245 199T252 230Q257 247 269 261T305 275Q313 275 320 274T337 271Q337 256 327 213T299 112T261 -2Q303 15 348 54T422 167L439 153Q424 103 394 66T325
3T248 -40Q221 -105 190 -160T123 -247T48 -280ZM38 -243Q57 -243 91 -203T160 -83Q128 -99 96 -120T41 -166T19 -215Q19 -225 23 -234T38 -243ZM493 381Q480 386 475 397T469 414Q469 422 479 440T505 479T538 514T572 529Q583 529 591 522T602 494Q567 460 541
435T493 381Z" />
<glyph unicode="&#xfe;" horiz-adv-x="415" d="M-54 -280Q-63 -280 -71 -270T-86 -249T-92 -234Q-68 -155 -47 -79T-6 82T29 269T58 500Q60 514 63 518T85 523Q114 523 126 511T139 465Q139 451 137 430T132 385T124 333T116 278T107 226Q126 255 150 281T205
325T271 342Q319 342 352 310T385 222Q385 183 367 139T317 57T239 -6T139 -31Q107 -31 89 -23T70 -5Q70 3 80 4T103 6Q143 6 179 24T244 72T288 139T305 211Q305 240 293 261T250 282Q224 282 199 266T151 226T112 175T87 129Q68 49 51 -19T17 -139T-13 -226T-41
-273Q-47 -280 -54 -280Z" />
<glyph unicode="&#xff;" horiz-adv-x="400" d="M48 -280Q23 -280 2 -265T-20 -215Q-20 -183 -1 -158T48 -111T112 -72T179 -39Q190 -10 203 34T227 117Q196 74 161 41T83 8Q65 8 45 15T12 41T-2 91Q-2 117 7 154T31 226T62 285T90 309Q96 309 107 305T130 293T144
276Q135 264 124 242T103 192T87 138T80 93Q80 78 86 67T109 56Q131 56 154 74T200 120T241 177Q243 184 245 199T252 230Q257 247 269 261T305 275Q313 275 320 274T337 271Q337 256 327 213T299 112T261 -2Q303 15 348 54T422 167L439 153Q424 103 394 66T325
3T248 -40Q221 -105 190 -160T123 -247T48 -280ZM38 -243Q57 -243 91 -203T160 -83Q128 -99 96 -120T41 -166T19 -215Q19 -225 23 -234T38 -243ZM562 388Q546 388 533 396T520 422Q520 442 542 456T587 470Q602 470 613 463T624 437Q624 420 605 404T562 388ZM418
408Q402 408 389 416T375 442Q375 461 397 475T442 490Q458 490 468 483T478 458Q478 441 460 425T418 408Z" />
<glyph unicode="&#x2013;" horiz-adv-x="755" d="M50 105Q56 144 81 164T160 192T307 199Q376 199 422 197T503 191T574 184T658 180Q606 146 561 133T485 120Q433 120 399 121T341 124T298 127T255 128Q209 128 172 126T106 119T50 105Z" />
<glyph unicode="&#x2014;" horiz-adv-x="917" d="M63 105Q69 144 109 164T219 192T381 199Q450 199 509 197T622 191T724 184T821 180Q769 146 725 132T651 118Q582 118 516 120T396 125T312 128Q263 128 230 127T170 123T119 116T63 105Z" />
<glyph unicode="&#x2018;" horiz-adv-x="183" d="M221 573Q209 592 192 613T161 654T147 689Q147 703 159 713T185 724Q191 706 208 687T240 649T255 614Q255 602 244 591T221 573Z" />
<glyph unicode="&#x2019;" horiz-adv-x="164" d="M177 571Q165 578 154 589T143 612Q143 628 158 646T190 684T213 722Q227 722 239 712T251 687Q251 673 238 653T207 611T177 571Z" />
<glyph unicode="&#x201a;" horiz-adv-x="216" d="M32 -88Q19 -80 12 -69T5 -44Q5 -24 14 0T37 41T68 59Q81 59 90 49T100 26Q76 -1 63 -26T32 -88Z" />
<glyph unicode="&#x201c;" horiz-adv-x="307" d="M345 573Q333 592 316 613T285 654T271 689Q271 703 283 713T309 724Q315 706 332 687T364 649T379 614Q379 602 368 591T345 573ZM221 573Q209 592 192 613T161 654T147 689Q147 703 159 713T185 724Q191 706
208 687T240 649T255 614Q255 602 244 591T221 573Z" />
<glyph unicode="&#x201d;" horiz-adv-x="290" d="M302 573Q290 580 279 591T268 614Q268 630 283 648T315 686T338 724Q352 724 364 714T376 689Q376 675 363 655T332 613T302 573ZM178 573Q166 580 155 591T144 614Q144 630 159 648T191 686T214 724Q228 724
240 714T252 689Q252 675 239 655T208 613T178 573Z" />
<glyph unicode="&#x201e;" horiz-adv-x="326" d="M142 -88Q129 -80 122 -69T115 -44Q115 -24 124 0T147 41T178 59Q191 59 200 49T210 26Q186 -1 173 -26T142 -88ZM32 -88Q19 -80 12 -69T5 -44Q5 -24 14 0T37 41T68 59Q81 59 90 49T100 26Q76 -1 63 -26T32 -88Z" />
<glyph unicode="&#x2022;" horiz-adv-x="272" d="M109 113Q90 113 76 125T61 158Q61 173 70 190T95 218T129 230Q155 230 171 215T187 177Q187 164 175 149T145 124T109 113Z" />
<glyph unicode="&#x2039;" horiz-adv-x="324" d="M195 41Q176 41 150 53T96 83T50 122T25 158Q62 173 99 201T169 261T221 321Q229 312 232 302T235 287Q235 267 220 248T181 210T130 176T76 147Q96 133 115 121T163 97T239 67Q231 58 219 50T195 41Z" />
<glyph unicode="&#x203a;" horiz-adv-x="338" d="M111 41Q99 41 87 49T67 67Q115 84 143 96T191 121T230 147Q205 160 178 175T126 209T86 246T71 285Q71 290 74 300T85 321Q105 294 137 262T207 201T281 158Q276 142 257 122T210 84T157 53T111 41Z" />
</font>
</defs>
</svg>
