<?xml version="1.0" standalone="no"?>
<!DOCTYPE svg PUBLIC "-//W3C//DTD SVG 1.1//EN" "http://www.w3.org/Graphics/SVG/1.1/DTD/svg11.dtd" >
<svg xmlns="http://www.w3.org/2000/svg" xmlns:xlink="http://www.w3.org/1999/xlink" version="1.1">
<metadata>
Created by FontForge 20190801 at Sun Jan 28 23:55:12 2018
 By Unknown
Copyright (c) 2018 by Khurasan. All rights reserved.
</metadata>
<defs>
<font id="MakDah" horiz-adv-x="273" >
  <font-face 
    font-family="Mak Dah"
    font-weight="400"
    font-stretch="normal"
    units-per-em="1000"
    panose-1="2 0 0 0 0 0 0 0 0 0"
    ascent="800"
    descent="-200"
    x-height="367"
    cap-height="703"
    bbox="-249.273 -303.846 807 894.2"
    underline-thickness="50"
    underline-position="-100"
    unicode-range="U+000D-20AC"
  />
<missing-glyph horiz-adv-x="320" 
 />
    <glyph glyph-name=".notdef" horiz-adv-x="320" 
 />
    <glyph glyph-name="NULL" horiz-adv-x="0" 
 />
    <glyph glyph-name="NULL" horiz-adv-x="0" 
 />
    <glyph glyph-name="nonmarkingreturn" unicode="&#xd;" horiz-adv-x="320" 
 />
    <glyph glyph-name="space" unicode=" " horiz-adv-x="208" 
 />
    <glyph glyph-name="f" unicode="f" horiz-adv-x="227" 
d="M113 206q2 -14 5 -43.5t4 -65t-1.5 -72t-12 -64t-28 -41.5t-48.5 -5q-42 13 -57 50q-16 35 -13 69q5 60 16 119t26 117q4 13 14 47.5t24 77.5t30.5 90t34.5 86q17 37 44.5 59t53 24t42.5 -19t13 -69q-4 -39 -24 -77q-29 -51 -57.5 -101t-55.5 -101l-2 -4t-1 -4
q-3 -10 3 -13.5t15.5 -4t19.5 1t13 2.5q11 3 24.5 3.5t24.5 2.5q5 1 11.5 0.5t10.5 -3t4.5 -7.5t-5.5 -11q-26 -17 -62.5 -26.5t-65.5 -17.5zM173 556q-10 -22 -19 -44.5t-16 -44.5q-26 -67 -28 -92.5t9.5 -17t31.5 47t39 98.5q5 14 3 25.5t-6.5 19t-9 10t-4.5 -1.5zM42 -26
q14 2 17 10l6 16q11 41 12 83t-11 87q-9 -10 -15.5 -33.5t-10 -52t-3.5 -58t5 -52.5z" />
    <glyph glyph-name="g" unicode="g" horiz-adv-x="303" 
d="M189 340q5 -2 8.5 -3t6.5 -3q18 -8 26 -22t2 -37q-2 -8 -2 -17.5v-17.5q10 -7 17 2q16 10 31.5 21t30.5 22q7 4 16 4q2 0 4.5 -1t3.5 -3q2 -2 2 -4.5v-3.5q-10 -12 -18.5 -23.5t-19.5 -22.5q-16 -17 -32 -33l-33 -33q-8 -8 -13 -16.5t-6 -19.5q-8 -42 -20.5 -82
t-25.5 -82q-14 -46 -33.5 -89t-43.5 -85q-26 -51 -71 -81q-18 -12 -36.5 -13.5t-37.5 3.5q-26 4 -31 35q-2 18 -1.5 36.5t6.5 36.5q12 46 31.5 87t44.5 79q52 73 114 138q8 8 15.5 16.5t14.5 18.5q10 11 -1 27l-16 -12l-16 -12q-35 -24 -64 -18t-57 24q-9 7 -15 18
q-6 9 -8 18t3 20q5 13 10 25.5t12 23.5q10 18 20.5 35.5t23.5 34.5q34 46 88 56q36 6 62 -24q2 -3 4 -9t4 -14zM103 7q-1 -2 -4 -2l-9 -9q-35 -38 -59 -81t-42 -91q-5 -12 -6.5 -25.5t-3.5 -27.5q-1 -1 1 -3.5t4 -3.5h3t4 1q8 10 15 20l14 20q29 45 48 93t35 99q2 2 1 5
t-1 5zM35 194q9 -6 23 6t28.5 30.5t27.5 38t19 27.5q4 2 3.5 11t-5.5 14q-14 -9 -28 -20t-27.5 -26t-24 -35t-16.5 -46z" />
    <glyph glyph-name="h" unicode="h" horiz-adv-x="288" 
d="M73 304q19 2 39.5 3t38 -2.5t29.5 -12.5t14 -27q1 -7 -4 -25t-13 -39.5t-15.5 -43.5t-11 -38t0.5 -22t19 5q13 10 29.5 26t32.5 34t30.5 36t23.5 31q6 7 9.5 5.5t4.5 -8t0 -15.5t-4 -15q-8 -17 -18.5 -36.5t-24 -38t-31 -35t-39.5 -25.5q-38 -16 -65 -5t-34 40t2 63
q2 6 5.5 20t5.5 28.5t1 25t-7 9.5q-11 3 -19.5 -5t-15 -19t-11 -23t-6.5 -17q-5 -13 -8.5 -26.5t-1.5 -29.5q1 -7 -4 -11t-12 -6q-24 -2 -34.5 5t-6.5 36q6 46 15.5 104.5t21.5 120t26.5 120.5t30.5 105q7 22 30 35t46.5 16.5t40.5 -1.5t13 -20q-15 -12 -33 -48.5
t-35.5 -83.5t-32 -98t-22.5 -92z" />
    <glyph glyph-name="i" unicode="i" horiz-adv-x="178" 
d="M198 273q4 -2 3 -6t-3 -8q-13 -12 -25 -24t-26 -25q-5 -4 -19.5 -16.5t-30 -26.5t-28.5 -25.5t-14 -13.5q-7 -13 -24 -13q-19 -3 -36 8q-8 8 -12 16t-5 19q0 8 -0.5 17t1.5 18q11 43 26 81t28 79q7 11 18 12t21 -1q12 -2 22.5 -4.5t19.5 -12.5q7 -6 4 -13t-7 -18
q-9 -24 -21.5 -53t-20.5 -52q-4 -11 0.5 -10t12.5 6.5t16.5 12.5t12.5 10q12 9 24.5 17.5t24.5 18.5q5 3 11 6t11 3q5 2 9 1t7 -3zM83 418q-8 6 -7.5 14t8.5 11q12 5 23 6t23 -4q4 -2 7.5 -4t8.5 -4q16 -10 11 -21q-4 -7 -11.5 -8t-15.5 -3q-12 2 -24 4.5t-23 8.5z" />
    <glyph glyph-name="j" unicode="j" horiz-adv-x="167" 
d="M194 283q5 -3 0 -8l-20 -20l-21 -21q-19 -16 -38 -29.5t-39 -29.5q-9 -8 -12 -19q-10 -26 -19.5 -52.5t-18.5 -52.5q-13 -37 -31 -76.5t-39 -75.5t-43.5 -66.5t-45.5 -49.5q-19 -17 -47 -18t-49 13q-8 7 -12 15.5t-6 16.5q-5 24 1 52.5t19 58t31.5 59t39.5 56.5t42 49
t39 37q10 9 22 18.5t22.5 20t18 22.5t10.5 28q6 31 7.5 57t-1.5 60q-3 12 6.5 19t22.5 6q20 -2 34 -10.5t24 -22.5q6 -8 6 -19q-2 -10 -2.5 -19.5t-2.5 -17.5v-14q10 -4 16.5 0t13.5 6q12 8 23.5 14.5t24.5 12.5q4 2 8 2.5t9 0.5t7 -3zM-158 -148q9 17 29 50t40 70
t35.5 70.5t17.5 51.5h-3q-14 -11 -35.5 -39t-43.5 -60t-39.5 -62t-24.5 -45q-4 -9 -5 -22.5t2 -22.5t9.5 -9t17.5 18zM70 409q-10 1 -20 3t-18 9t-7.5 21t9.5 19q4 2 8.5 4t8.5 2q17 -1 30 -8.5t24 -18.5q1 -1 5 -11q6 -18 -14 -21h-6q-6 0 -10.5 0.5t-9.5 0.5z" />
    <glyph glyph-name="k" unicode="k" horiz-adv-x="233" 
d="M88 271q2 -7 4.5 -23.5t5 -37t5.5 -42.5t6 -39.5t6 -28t7 -8.5q7 3 19.5 21t27 41t29 47t26.5 39q9 11 15 11t9 -6.5t2 -17.5t-7 -22q-12 -17 -26.5 -42t-29.5 -50t-29.5 -46t-27.5 -31q-15 -14 -35.5 -9.5t-29.5 22.5q-6 16 -9 37t-5 43t-4.5 43t-8.5 38q-8 3 -11 -6
q-6 -18 -13 -37l-14 -38q-3 -10 -8 -14.5t-16 -6.5q-8 -1 -17.5 4.5t-12.5 13.5q-2 8 -3.5 15t0.5 15q3 23 9 43t14 40q14 56 26.5 104t24.5 92t25 85t28 83q9 25 23.5 37t29.5 14.5t29.5 -2t24.5 -12t13.5 -16.5t-3.5 -15q-12 -11 -29.5 -44.5t-34.5 -76.5t-32 -87.5
t-23 -77.5q15 17 36.5 33.5t46.5 23.5q15 4 27 -5t18.5 -21t7.5 -22t-5 -8q-11 4 -26 0.5t-30.5 -11.5t-30 -19t-24.5 -23z" />
    <glyph glyph-name="l" unicode="l" horiz-adv-x="153" 
d="M72 153q16 18 32 33t38 26q5 2 8 4.5t8 -0.5q10 -5 12 -15t-5 -17q-8 -7 -17 -13t-16 -12q-12 -11 -24 -23t-22 -24q-16 -21 -34.5 -25t-35 4.5t-27.5 26.5t-11 41q-3 26 -2 52.5t6 52.5q10 51 22 99.5t26 97.5q7 25 19 60t26 65.5t31 51.5t35 20q26 -2 43 -13.5
t20 -40.5q2 -26 -4 -51.5t-18 -50.5q-11 -23 -23 -46.5t-24 -46.5q-20 -35 -39 -69t-36 -70q-25 -52 -20 -114q0 -7 3 -11q3 -5 6.5 -5.5t8 1.5t8 5.5zM161 597q-7 -2 -7 -4q-7 -13 -19 -41t-24.5 -58.5t-23 -59t-14.5 -42.5q-1 -5 2 -10q9 12 22.5 38.5t26.5 55.5t23.5 54
t12.5 33q1 9 3 17t-2 17z" />
    <glyph glyph-name="m" unicode="m" horiz-adv-x="428" 
d="M199 194q-14 -6 -26.5 -20t-24.5 -27q-17 -19 -28 -15.5t-17 15t-9 25t-4 15.5q-5 -5 -11 -14t-12.5 -18t-12.5 -17.5t-10 -13.5q-17 -14 -36.5 -13t-35.5 18q-5 6 -9 13.5t-4 18.5q2 12 3 24t5 23q14 46 27.5 91t26.5 92q3 8 8 16q5 14 17.5 18.5t22.5 -2.5
q11 -8 16.5 -22.5t0.5 -28.5q-6 -23 -11.5 -43.5t-14.5 -40.5q-11 -26 -11 -33.5t7 -3t18.5 17.5t23 28t21 28.5t12.5 19.5q8 14 19 17t22 -3q22 -17 19 -52q-1 -4 -3 -11t-3.5 -14.5t-1 -14.5t3.5 -11q2 -11 13.5 2t26 34t27 43t17.5 30q19 13 34 8.5t28 -21.5
q14 -22 5 -46q-5 -13 -16 -36.5t-21.5 -48.5t-15 -47t4.5 -32q4 -6 15.5 -0.5t25.5 16t29 23.5t27 22q11 8 22 20t23 14q7 0 12 -7t5 -17q0 -29 -20 -40q-15 -9 -33 -25.5t-38.5 -34t-43 -33.5t-47.5 -24q-13 -4 -24.5 1.5t-19.5 22.5q-9 19 -12 33.5t-4.5 27.5t-2.5 25.5
t-5 27.5z" />
    <glyph glyph-name="n" unicode="n" horiz-adv-x="291" 
d="M135 246q-11 9 -26.5 -1.5t-33.5 -31.5t-35.5 -47.5t-30.5 -50.5q-2 -6 -7 -9t-10 -5q-10 -4 -21 2t-13 18q-2 17 0 33q3 12 6.5 25t9.5 25q19 45 39.5 95.5t40.5 95.5q17 8 31 7t27 -15q5 -6 7 -13t0 -18q-3 -9 -10 -24t-5 -25q8 -7 16.5 0.5t14.5 11.5q29 11 49 -9
q6 -6 10 -12.5t4 -15.5q-3 -23 -8.5 -46.5t-2.5 -44.5q19 10 34.5 23.5t30.5 25.5q10 8 18.5 14.5t16.5 12.5q8 5 15.5 -1.5t6.5 -14.5q-2 -9 -4.5 -17.5t-10.5 -15.5t-15 -14l-14 -14q-16 -12 -30.5 -24t-29.5 -24q-5 -5 -12.5 -8.5t-14.5 -7.5q-16 -8 -31 0.5t-19 26.5
t-1 43q0 6 1.5 11t2.5 13q2 5 2 10t2 16z" />
    <glyph glyph-name="o" unicode="o" horiz-adv-x="253" 
d="M197 243q-17 -37 -41.5 -59t-53.5 -45q-9 -6 -18.5 -11.5t-20.5 -10.5q-22 -11 -48.5 -3t-42.5 30q-14 22 -11 41.5t10 40.5q16 35 34.5 68t43.5 62q15 15 30 27q17 14 36 4q5 -2 8.5 -5.5t7.5 -4.5q58 -11 74 -75q8 -1 17 -1t17 -2l16 -4t15 -6q10 -3 8 -12t-8 -13
q-11 -8 -23.5 -10.5t-25.5 -5.5q-6 -2 -12 -2.5t-12 -2.5zM119 244q-17 14 -32.5 11t-27 -15.5t-19 -29t-8.5 -29.5q-1 -14 12 -9t29.5 18t31 29t14.5 25zM128 327l-2.5 -5t-0.5 -1.5t-0.5 -1.5l-2.5 -5t-1.5 -9t7.5 -9q19 -2 25.5 9t4.5 21.5t-10.5 14t-19.5 -13.5z" />
    <glyph glyph-name="p" unicode="p" horiz-adv-x="274" 
d="M108 361q12 0 21.5 0.5t20.5 -0.5q47 -3 82 -35q21 -18 17 -41t-22.5 -43t-45 -33.5t-49.5 -11.5q-11 1 -19 1t-15.5 1t-15 4t-17.5 10q-21 -48 -38 -117.5t-24 -166.5q0 -4 -11.5 -1.5t-24.5 9t-23.5 18t-9.5 25.5q0 47 10 96.5t24.5 98t31 95.5t29.5 90q0 1 1 6
t1.5 10.5t1.5 10.5t1 7q3 8 11.5 10t18.5 0t19.5 -6t13.5 -7q7 -7 9 -21q0 -3 0.5 -4.5zM75 250q57 0 81.5 12t27 26t-11.5 25t-33.5 11t-38 -16.5t-25.5 -57.5z" />
    <glyph glyph-name="q" unicode="q" horiz-adv-x="376" 
d="M178 342q-22 -4 -41.5 -18.5t-34.5 -35t-23 -43.5t-7 -45q16 10 33 26.5t32 36t26 40.5t15 39zM92 126q-17 2 -34.5 4.5t-33.5 7.5q-23 6 -31.5 18t-6.5 36q1 29 13.5 59.5t32 58t44.5 48.5t51 32q26 9 49 6t45 -12q27 -11 31.5 -37.5t-17.5 -55.5q-6 -11 -12 -24
t-13 -28q9 10 27.5 15t41 7t46 1.5t43.5 -1.5q12 0 21.5 -3.5t13.5 -8.5t1 -10.5t-15 -10.5q-15 -7 -31 -8t-32 -0.5t-31.5 -0.5t-28.5 -7q9 -21 10 -53t-5 -67.5t-18.5 -71.5t-30.5 -64.5t-41 -46.5t-51 -18q-40 0 -59.5 20t-13.5 62q5 31 12.5 62.5t14.5 63.5zM138 -40
q24 22 44 55t31 69.5t10.5 74t-18.5 68.5q-16 -38 -31.5 -81t-26 -81t-14 -67t4.5 -38z" />
    <glyph glyph-name="r" unicode="r" horiz-adv-x="254" 
d="M47 392q22 4 35.5 4t21 -6t10.5 -18.5t3 -34.5q5 7 16 12t24.5 8t27.5 3.5t25 -1.5q10 -2 19.5 -8t12.5 -12.5t-3.5 -12.5t-27.5 -8q-42 -3 -72 -23.5t-48.5 -48t-26.5 -58.5t-7 -55q1 -16 -13.5 -17.5t-30 7t-26.5 25.5t-3 40q7 22 16 45t17.5 46.5t14.5 48t7 50.5
q-1 7 2.5 9.5t5.5 4.5z" />
    <glyph glyph-name="s" unicode="s" horiz-adv-x="175" 
d="M14 255q-3 6 -8.5 17.5t-11 24t-10.5 24t-8 17.5q-9 19 2 35.5t31 27.5t43.5 15t41.5 -2q10 -3 15.5 -9t5.5 -12t-4.5 -10t-14.5 -4q-22 1 -32 -6.5t-11.5 -19.5t3.5 -27t13 -29q7 6 21 10.5t30 8.5t31 7t26 6q16 4 20 0t1 -11t-12.5 -13.5t-20.5 -8.5q-11 -1 -25 -5
t-26.5 -9t-21 -10.5t-9.5 -9.5q-3 -14 4 -31t10 -26q6 -19 2.5 -36.5t-15.5 -32t-31 -23.5t-43 -11q-18 0 -41 5.5t-39.5 15.5t-21.5 24.5t15 33.5q17 17 42 35.5t49 38.5zM30 207q-4 -5 -11 -11.5t-14 -14t-14 -14.5t-11 -12q8 0 19 4t19.5 11t12.5 16.5t-1 20.5z" />
    <glyph glyph-name="t" unicode="t" horiz-adv-x="284" 
d="M263 206q-56 -47 -88 -70.5t-49.5 -34t-25 -11.5t-15.5 -2q-42 -5 -70.5 18t-28.5 63q-1 59 13 111t29 106q5 16 11 38.5t12 44.5q-48 2 -94.5 -4t-89.5 -4q-20 0 -40.5 4t-39.5 11q-27 9 -28.5 21t23.5 15q65 7 132 6.5t131 6.5q18 2 25.5 8.5t10.5 20.5q5 26 13 51.5
t14 51.5q19 5 34 -1t23 -20q6 -10 6.5 -24.5t-1.5 -25.5q-2 -12 -9.5 -23t-17.5 -25q57 -6 106.5 -8t94.5 -2.5t87.5 -1t84.5 -4.5q5 -1 4.5 -7t-6.5 -13t-16.5 -12.5t-26.5 -5.5l-295 -5q-25 0 -38.5 -8.5t-20.5 -31.5q-11 -60 -25.5 -118.5t-28.5 -118.5q-3 -17 -5 -33
t1 -26.5t12.5 -13t29.5 9.5l105 69q5 2 16 11.5t23 21t24.5 21.5t21.5 14t13.5 -1t0.5 -25q-8 -14 -18.5 -24t-23.5 -20z" />
    <glyph glyph-name="u" unicode="u" horiz-adv-x="304" 
d="M146 240q-10 -16 -24.5 -31.5t-31 -26.5t-34 -16.5t-33.5 -0.5q-29 8 -37 26.5t0 50.5q10 31 19 60.5t19 58.5q17 41 40 41q19 0 32 -10.5t5 -21.5q-7 -10 -17.5 -29.5t-19.5 -40.5t-14.5 -38t-2.5 -23q11 -9 25.5 -2.5t22.5 15.5q5 6 14.5 17.5t19.5 24.5l20 26t16 24
q9 16 17.5 26.5t22.5 -1.5q13 -13 21 -26t0 -37q-6 -17 -11.5 -36t-8.5 -39q-2 -15 -1.5 -31t0.5 -42q16 9 30.5 20t26 21t20 18.5t11.5 12.5q7 7 14 6.5t9.5 -6.5t-2.5 -18t-21 -28q-8 -8 -22.5 -21.5t-31 -26t-32.5 -21.5t-27 -9q-25 1 -33.5 11.5t-10.5 39.5
q-1 18 3 39.5t7 43.5z" />
    <glyph glyph-name="v" unicode="v" horiz-adv-x="218" 
d="M61 200q7 -3 17 6.5t21.5 26.5t23.5 38t23 41.5t20.5 37t15.5 23.5q5 5 9 11t11 8q16 4 24.5 -5t2.5 -24q-9 -20 -17 -35.5t-15.5 -30.5t-15 -31t-16.5 -37q-10 -18 -21 -36.5t-21 -36.5q-11 -19 -24 -29.5t-35 -11.5q-44 -2 -60 16t-10 67q5 42 10 76t12 76q4 22 11 29
t33 3q21 -3 24 -25t-1.5 -51t-12.5 -58.5t-9 -47.5z" />
    <glyph glyph-name="w" unicode="w" horiz-adv-x="528" 
d="M245 172q34 34 52.5 81t25.5 101q4 31 14 41.5t32 -3.5q16 -10 29 -28t29.5 -35t40 -29t61.5 -9q15 1 21.5 -4.5t4.5 -12.5t-12 -14t-28 -8q-19 -2 -42.5 2t-45.5 12t-38.5 20t-20.5 26q-1 -33 -7.5 -70t-26.5 -67q-42 -71 -90 -69t-92 74q-2 4 -10 12
q-10 -11 -18.5 -20.5t-19.5 -18.5q-17 -17 -37 -21t-40 6q-27 11 -36 30t-3 56q5 36 12.5 70.5t15.5 69.5q14 53 58 31q17 -8 19.5 -21t-6.5 -43q-3 -11 -8 -26.5t-10 -32t-10 -31.5t-9 -25q10 -4 23 7.5t26 28.5t24 35.5t19 27.5q13 17 26 25t31 2q11 -4 15.5 -8t5 -10
t-1.5 -15t-3 -23q-2 -23 5.5 -56t24.5 -58z" />
    <glyph glyph-name="x" unicode="x" horiz-adv-x="253" 
d="M132 295q21 16 36.5 29t28.5 21.5t23 10.5t19 -5q4 -7 1.5 -13.5t-8 -12.5t-13 -11.5t-13.5 -10.5q-19 -16 -34.5 -26t-13.5 -23q1 -10 9.5 -22t18.5 -25t17 -26t5 -25q-1 -10 -7.5 -20.5t-15 -16t-17 -4t-11.5 14.5q-4 14 -17.5 36.5t-28.5 39.5q-11 -6 -25 -21
t-28.5 -30t-29.5 -26.5t-28 -11.5q-18 0 -22 6.5t1 16.5t16 22.5t24 24.5t25 22.5t18 16.5q6 7 14 13t7 12q-1 5 -6.5 12.5t-13 15.5t-15 15t-11.5 10q-18 14 -16.5 28t12.5 23.5t26.5 11.5t26.5 -8q13 -11 23 -27t23 -37z" />
    <glyph glyph-name="y" unicode="y" horiz-adv-x="328" 
d="M139 265q-11 -8 -28 -25.5t-37.5 -33.5t-41 -24t-37.5 3q-8 5 -10.5 22t-1 40t5.5 48.5t9 47t10 37t9 17.5q24 8 42 1t13 -38q-1 -4 -4.5 -19.5t-8 -34.5t-8 -36.5t-4.5 -24.5q9 8 26 25.5t35.5 36t34.5 35t23 22.5t14.5 12t15.5 11q13 6 22.5 4t15.5 -9t8 -16.5
t-2 -16.5q0 -4 -5 -19t-12 -32t-12.5 -33.5t-6.5 -23.5q12 6 36 19.5t49 26t47.5 19.5t31.5 1q13 -9 11 -13t-13 -9q-18 -8 -38 -19t-39 -23t-36 -23.5t-29 -21.5q-25 -17 -37.5 -42.5t-23.5 -56.5q-25 -81 -54 -160l-58 -158q-5 -14 -15 -29t-24 -23q-28 -16 -48.5 -1
t-27.5 53q-10 51 -1.5 97.5t24.5 92.5q24 66 59.5 119t77.5 99q7 8 18 20t19 23.5t11 20.5t-5 12zM98 102q-20 -18 -42 -55.5t-39.5 -80.5t-26.5 -84t-3 -65q10 28 25.5 66.5t31.5 78.5t30.5 77.5t23.5 62.5z" />
    <glyph glyph-name="z" unicode="z" 
d="M124 242q17 -11 30.5 -17.5t27.5 -14.5q58 -31 51 -102q-2 -21 -4 -42.5t-9 -41.5q-35 -86 -78 -159.5t-111 -127.5q-6 -5 -12 -9t-14 -8q-23 -9 -49 -8t-46 19q-23 20 -28.5 47.5t1.5 53.5q20 87 64.5 149.5t109.5 110.5q2 2 6 1.5t12 1.5q-4 -11 -6 -19.5t-6 -15.5
q-15 -26 -32.5 -49.5t-30.5 -48.5q-18 -33 -32 -59t-26 -61q-13 -32 15 -69q10 7 20 12.5t21 13.5q61 57 95 123.5t53 158.5q13 66 -5 95.5t-76 13.5q-16 -5 -30.5 -3.5t-25.5 24.5q28 24 46.5 54.5t27.5 75.5q-6 8 -16 0t-22.5 -17.5t-26 -13t-25.5 13.5q8 29 28 48
t44 26.5t48.5 2.5t42.5 -26q12 -14 11 -29t-7 -31q-7 -17 -16 -34.5t-20 -38.5z" />
    <glyph glyph-name="d" unicode="d" horiz-adv-x="395" 
d="M289 94q-16 0 -34.5 4.5t-35 13.5t-29 23t-15.5 34q-18 -18 -39 -32.5t-42.5 -22t-43.5 -6t-42 15.5q-19 12 -26.5 30t-7 39t7.5 42.5t17 41t22 35.5t22 25q18 17 43.5 17.5t49.5 -3.5q8 -1 19 -5t20 2q23 80 45 147t49 131q9 25 26 27.5t32 -7.5t23.5 -27.5t0.5 -33.5
q-22 -37 -38 -77t-28 -81.5t-21 -83t-16 -80.5q-12 -58 21 -113q5 -3 11 -6.5t14 -4.5t19.5 3t28.5 16q7 5 21.5 16.5t26.5 19.5t21.5 15t14.5 7.5t3.5 -8t-12.5 -30.5q-11 -14 -26 -28.5t-31.5 -27t-34.5 -20.5t-36 -8zM152 234q9 6 6.5 20.5t-11.5 28.5q-5 8 -15 9.5
t-19 -3.5q-28 -18 -46 -44t-30 -57q-3 -25 11.5 -23.5t34.5 15t40 30.5t29 24z" />
    <glyph glyph-name="A" unicode="A" horiz-adv-x="505" 
d="M226 257q-22 -30 -41.5 -58t-38.5 -57q-3 -3 -5 -7t-5 -7q-19 -15 -31.5 -34t-23.5 -39q-3 -6 -7 -11.5t-8 -10.5q-11 -11 -20 -21t-16 -24q-4 -8 -15 -6q-5 2 -8.5 7.5t-1.5 10.5q4 15 8.5 29.5t12.5 27.5l84 135q8 13 17 25.5t14 30.5h-24q-8 0 -17 -0.5t-18 -0.5
q-21 0 -35 11t-23 29q-4 8 -6.5 16.5t-4.5 16.5t4 16t14 10h14q42 3 83.5 5t83.5 5q2 0 11 3q25 38 49.5 76.5t48.5 76.5q19 30 35 61t26 66q5 14 13 26.5t15 26.5q2 4 8 6t11 3q20 1 35.5 -10.5t21.5 -29.5q3 -11 0 -21q-5 -20 -9 -39t-10 -38q-14 -51 -23.5 -102.5
t-21.5 -103.5q-2 -5 1.5 -10t10.5 -6q13 -2 26 -4.5t25 -7.5q20 -9 7 -28q-9 -14 -25 -17q-11 -2 -23 -4.5t-24 -3.5q-21 -4 -27 -26q-10 -37 -20 -73.5t-21 -74.5q-5 -20 -11.5 -40t-11.5 -40l-6 -24t-5 -23q-4 -17 -9.5 -33.5t-17.5 -30.5q-5 -7 -13.5 -6t-12.5 8
q-10 18 -14.5 37t-2.5 39l6 46t8 46q9 38 19 76t20 77q2 8 4 13q2 9 -2.5 14.5t-14.5 4.5q-28 -3 -62 -9zM340 411q-20 -7 -26.5 -22t-12.5 -32h29q4 14 7.5 27t2.5 27z" />
    <glyph glyph-name="B" unicode="B" horiz-adv-x="572" 
d="M363 421q14 -7 25.5 -12.5t22.5 -10.5q41 -16 72 -41q20 -17 35 -38q6 -9 10 -22.5t5 -27t-1.5 -26.5t-9.5 -21l-32 -36t-36 -33q-29 -26 -63 -45.5t-71 -36.5q-35 -16 -70 -31.5t-73 -26.5q-24 -8 -48 -14l-48 -12q-20 -6 -39.5 -7t-40.5 1q-9 0 -18.5 5.5t-18.5 13
t-17.5 15t-15.5 12.5q-17 15 -19 35.5t12 40.5q22 32 54 53q10 8 21 14t22 13q6 4 12 8.5t14 9.5q-15 7 -24 22.5t-11.5 36t2.5 45.5t19 52q18 35 36.5 69t37.5 69q5 10 10.5 20t10.5 20q5 8 7 16.5t-4 18.5q-10 13 6 23q27 17 37 41t17 50q1 4 1.5 7t1.5 8q6 2 12.5 3.5
t11.5 1.5q10 -1 27.5 -5.5t23.5 -10.5q7 -7 13 -16q3 -3 5 -6t6 -7q11 1 21.5 1.5t21.5 0.5h39q24 0 46.5 -1t45.5 -5q19 -2 35.5 -7.5t32.5 -12.5q20 -8 32 -22t18 -31q2 -3 0.5 -8t-3.5 -9q-7 -8 -14 -14.5t-15 -13.5q-18 -15 -37 -28.5t-42 -25.5q-20 -10 -39 -20.5
t-38 -21.5q-8 -4 -15.5 -9t-18.5 -11zM379 281q-13 -11 -27.5 -16.5t-29.5 -10.5q-60 -18 -118.5 -36.5t-110.5 -50.5q-7 -2 -11 -5q-29 -13 -53 -27.5t-46 -34.5q-18 -15 -24.5 -22.5t-4 -10.5t12 -2.5t23.5 0.5q35 2 66 9t62 18q10 3 42.5 16.5t73.5 33t84 42.5t74.5 45
t45.5 41.5t-3 30.5q-60 41 -116.5 51t-118.5 -8q-19 -5 -33 6q-6 6 -16 11q-9 -13 -17.5 -28.5t-16.5 -31.5t-13.5 -30t-8.5 -23q-2 -6 -3 -11t5 -13q33 11 66.5 21.5t68.5 17.5q38 9 73.5 16t73.5 2zM493 591q-53 16 -107.5 13.5t-98.5 -13.5q-13 -3 -23 -9t-15 -18
q-2 -6 -6 -10t-6 -10q-4 -13 -10.5 -26t-14.5 -24q-10 -19 -19 -37.5t-18 -37.5q-2 -5 -3.5 -10.5t4.5 -11.5q14 3 25.5 10.5t22.5 13.5l26 18t27 16q32 19 63.5 36.5t63.5 35.5q21 13 42 24.5t39 28.5q2 2 4 5z" />
    <glyph glyph-name="C" unicode="C" horiz-adv-x="377" 
d="M252 441q-20 -26 -36.5 -53t-33.5 -54q-28 -45 -48 -93t-38 -97q-9 -26 -13 -52.5t-5 -53.5q-1 -3 0.5 -5.5t2.5 -4.5q6 -3 10 -2t8 3q26 15 48.5 33t45.5 37q31 26 62.5 51.5t63.5 51.5q7 5 14.5 8.5t15.5 7.5q1 1 3.5 0.5t4.5 -1.5q2 -2 4 -5t1 -5q-5 -15 -12 -29.5
t-19 -26.5q-29 -32 -58.5 -63t-59.5 -63q-17 -17 -36.5 -29t-39.5 -23q-9 -5 -20.5 -6.5t-22.5 0.5q-38 8 -63 26.5t-33 56.5q-5 25 1 47q3 19 8 37.5t11 36.5q20 59 48 115t61 110q55 93 120 183q5 7 9 13.5t8 13.5q5 7 9.5 14t10.5 11q17 11 27.5 25.5t19.5 31.5
q12 20 38 12q13 -5 22 -13t17 -18q7 -10 1 -19q-5 -11 -10 -20.5t-10 -19.5q-23 -43 -40 -87.5t-20 -93.5v-4q-2 -7 -3 -13.5t-9 -10.5q-10 -5 -19 -1.5t-17 10.5q-8 6 -14.5 14t-14.5 17z" />
    <glyph glyph-name="D" unicode="D" horiz-adv-x="626" 
d="M298 512q21 13 34.5 23t26.5 19t28.5 16.5t39.5 15.5q45 13 83 -1.5t72 -46.5q11 -11 19.5 -24t15.5 -27q18 -38 5 -77q-6 -20 -13.5 -37.5t-18.5 -34.5q-20 -31 -41 -59.5t-48 -51.5q-7 -6 -13 -13.5t-12 -15.5q-18 -20 -38.5 -34t-39.5 -31q-17 -14 -34 -27.5
t-34 -27.5t-35.5 -24.5t-36.5 -21.5q-23 -13 -45 -24.5t-45 -22.5q-21 -10 -43 -15t-46 -3q-18 2 -33 9.5t-29 20.5q-10 8 -14 20t-2 26q3 32 19 57q9 14 19 28.5t21 28.5q9 11 18.5 22t20.5 19q17 14 29.5 32t14.5 38q5 35 12.5 67t17.5 65q15 57 29.5 115t23.5 118
q2 13 2.5 25.5t2.5 26.5q2 8 8 13t13 3q11 -3 24 -9t24 -15t16.5 -22t1.5 -31q-6 -23 -9.5 -48t-8.5 -50q-1 -5 -1.5 -5.5t-0.5 -8.5zM238 302q17 7 27.5 13t24.5 11q19 7 38 13t39 12q12 4 25 3.5t25 -6.5q6 -2 7.5 -10t-3.5 -13q-7 -5 -14 -9.5t-15 -6.5q-42 -11 -79 -33
t-73 -45q-17 -11 -32.5 -24t-23.5 -36q-4 -11 -12 -19.5t-22 -7.5q-11 2 -19 -8q-11 -12 -23 -23t-21 -25q-10 -12 -17 -26t-9 -30q7 -10 29 -2.5t49.5 22.5t55.5 33.5t48 31.5q72 46 128 100.5t112 122.5q12 16 29 40t30.5 48.5t18.5 47t-7 35.5q-13 13 -32 18
q-29 5 -56.5 2.5t-53.5 -19.5q-20 -12 -38.5 -24t-36.5 -26q-24 -17 -37 -29t-22 -27t-17.5 -39t-22.5 -65z" />
    <glyph glyph-name="E" unicode="E" horiz-adv-x="531" 
d="M305 357q-4 -5 -7 -9t-5 -9q-13 -36 -32 -67.5t-36 -65.5q-8 -17 -15 -33.5t-13 -33.5q8 -3 15 -1t15 4q75 20 154 21q23 1 46.5 -3.5t46.5 -11.5q13 -5 19 -15t8 -24q1 -5 -2 -10t-8 -6q-10 -1 -20 -3t-20 -1q-32 2 -64.5 -0.5t-64.5 -7.5q-38 -6 -75.5 -16t-74.5 -26
q-29 -13 -57.5 -25t-57.5 -27q-17 -10 -33 -2.5t-22 27.5q-3 17 7 26q7 7 15 12.5t16 10.5q13 8 25 14.5t26 14.5q12 29 24.5 57.5t26.5 57.5q14 32 29.5 62t30.5 61q1 3 -1 13q-13 -2 -25 -3.5t-24 -3.5q-21 -1 -31 21q-3 7 -2 14t8 10q8 4 16 7t16 5q20 6 40 11t42 10
q17 33 31.5 68.5t28.5 70.5q2 4 1.5 8.5t0.5 10.5q-6 0 -11.5 0.5t-10.5 -0.5q-5 0 -9.5 -0.5t-9.5 -1.5q-23 -2 -35 6.5t-20 31.5q-2 7 -3 12q-3 15 0.5 22t17.5 12q78 25 159 33q42 4 82 6.5t80 4.5q2 1 4 1q44 6 59 -47q2 -5 2 -9.5v-9.5q2 -17 -3 -23.5t-21 -7.5
q-26 -1 -51.5 -1t-51.5 -1q-46 -2 -92 -9q-7 -22 -13.5 -43.5t-14.5 -42.5q-8 -20 -16.5 -40.5t-14.5 -41.5q6 -8 14.5 -9t16.5 -3q11 -3 22 -6.5t22 -11.5q2 -2 3.5 -4.5t0.5 -5.5q-1 -6 -7 -13q-1 -2 -2.5 -2t-3.5 -1q-10 -2 -19 -3.5t-18 -2.5q-14 -2 -26.5 -2h-27.5z
" />
    <glyph glyph-name="F" unicode="F" horiz-adv-x="465" 
d="M370 605q-1 -20 -1.5 -32t-3.5 -21.5t-9 -20.5t-16 -29q-9 -16 -17.5 -31.5t-17.5 -32.5q-2 -5 -3.5 -10t3.5 -11q8 -1 14.5 -2t14.5 -3q7 -1 13 -1.5t13 -1.5q17 -2 33.5 -6.5t32.5 -11.5q14 -7 22.5 -17t14.5 -24q3 -6 -1 -12.5t-10 -6.5q-4 -1 -7 -1.5t-6 -0.5
q-22 2 -43 3.5t-43 2.5q-19 1 -37 1h-36q-23 0 -34 -23q-13 -32 -26 -63.5t-22 -65.5q-10 -37 -14.5 -74t-9.5 -74q-1 -11 -1 -20t-2 -19q-2 -20 -12 -20q-8 -2 -12.5 2t-8.5 9q-8 10 -11 19q-6 21 -12 41.5t-7 42.5q0 42 4 83.5t17 82.5q4 11 8.5 22t0.5 24q-20 0 -39 -1
t-39 -4q-44 -9 -60 37q-10 23 15 30q32 8 65 15.5t65 15.5q8 2 15 3.5t14 3.5q5 2 10 5t7 7l42 80t41 81q1 2 0.5 4t-0.5 6q-2 0 -5 1t-6 0q-17 -4 -35.5 -5t-35.5 -6q-22 -5 -42 -11.5t-40 -15.5q-8 -4 -17 -7q-26 -9 -45 15q-14 19 -19 43q-2 8 1 13t8 9t11 7t11 5
q55 21 111 35.5t115 23.5q46 8 91.5 12.5t93.5 4.5q33 0 66.5 -1t66.5 -8q26 -5 53.5 -7.5t53.5 -10.5l24 -8t24 -9q21 -8 30.5 -23t12.5 -37q1 -8 -5 -15t-15 -6q-15 2 -30 3.5t-30 4.5q-42 8 -84 11.5t-84 6.5q-38 4 -75.5 3t-75.5 -3q-8 0 -16.5 -2t-16.5 -4z" />
    <glyph glyph-name="G" unicode="G" horiz-adv-x="474" 
d="M93 210q14 2 24.5 7t21.5 10q24 13 46.5 29t43.5 33q33 26 64.5 53t60.5 57q4 5 8.5 10t9.5 11q16 18 15 39q-2 16 -1 32t-4 32q-3 10 4.5 16t18.5 4q24 -5 40.5 -22t17.5 -40q2 -55 -7 -107t-35 -103q-16 -31 -27 -64t-25 -65q-6 -15 -15 -27q-11 -15 -22 -30.5
t-19 -32.5q-6 -8 -13 -16.5t-14 -17.5q-16 -20 -31.5 -38.5t-31.5 -37.5q-5 -7 -11 -12.5t-11 -12.5q-16 -20 -38 -28.5t-48 -13.5q-6 0 -8 1q-4 1 -9 5q2 9 6 16q10 13 19 26t19 25q38 49 71 100t62 104q14 25 27 49.5t27 50.5q-11 0 -14 -2q-12 -9 -24.5 -17.5
t-23.5 -19.5q-20 -17 -42.5 -29t-45.5 -24q-16 -8 -33.5 -10.5t-35.5 -0.5q-26 3 -48.5 11.5t-41.5 26.5q-24 24 -21 53q1 8 2 15t4 15q6 17 13 34t16 33q31 62 67.5 119.5t78.5 114.5q17 22 35 43l36 42q9 11 20 20t24 15q30 15 55 -4q20 -14 21 -24t-17 -28
q-14 -15 -28 -29t-32 -25q-11 -8 -21 -18.5t-18 -21.5q-26 -33 -47.5 -67.5t-38.5 -72.5q-6 -15 -14 -28t-16 -27q-10 -19 -19 -37t-17 -37q-7 -14 -11 -29t1 -33z" />
    <glyph glyph-name="H" unicode="H" horiz-adv-x="411" 
d="M220 105l14 108l6 28t5 30q3 11 6 21.5t1 24.5q-5 -2 -7.5 -2t-4.5 -2q-14 -26 -33 -48.5t-33 -46.5q-20 -29 -35 -62t-33 -63q-10 -17 -7 -40q0 -11 -1 -24.5t-2 -25.5q0 -9 -6 -15t-14 -6q-10 0 -20.5 1.5t-19.5 3.5q-18 4 -25.5 13t-7.5 28q0 26 0.5 50.5t4.5 50.5
q8 51 18 100t19 99q14 63 26 126.5t25 126.5l14 87q3 11 9 16.5t18 4.5q18 0 35 -6q26 -10 33.5 -25t2.5 -44q-6 -21 -11 -43.5t-11 -45.5q-16 -62 -28.5 -124.5t-23.5 -125.5q0 -2 0.5 -4t0.5 -3q8 0 10 1q26 29 52 56.5t55 51.5q14 12 19.5 25t10.5 30q16 59 32 117.5
t32 118.5q5 23 17.5 28.5t34.5 1.5q20 -5 32.5 -21t5.5 -44q0 -3 -2 -5q-27 -80 -44 -161.5t-38 -162.5q-6 -29 -11 -57l-10 -56l-7 -32l-1 -1l-19 -101q-6 -34 -12 -69t2 -72q2 -2 1 -4.5t-1 -4.5q0 -8 -0.5 -15.5t-9.5 -12.5q-11 -4 -20 -3t-17 9q-9 8 -16.5 18.5
t-10.5 22.5q-4 15 -7.5 29.5t-1.5 29.5q3 30 4 59.5t5 59.5v1z" />
    <glyph glyph-name="I" unicode="I" horiz-adv-x="400" 
d="M104 626q6 0 12 1t13 1q20 -2 39.5 2.5t36.5 10.5q32 13 63 24.5t62 23.5q13 4 25 7t26 7q14 6 25 -0.5t19 -17.5q-2 -9 -6.5 -14.5t-11.5 -10.5q-18 -8 -34.5 -16t-32.5 -16q-19 -10 -19 -25q-1 -24 -7.5 -47t-12.5 -46q-8 -33 -15 -65l-14 -64q-7 -24 -15 -47.5
t-16 -48.5q-11 -45 -24.5 -88.5t-24.5 -88.5q-2 -4 -2 -17q5 0 9.5 -1.5t9.5 0.5q13 0 24.5 2.5t24.5 2.5q17 2 32.5 3t32.5 -1q37 0 58 -26q6 -8 6 -16q0 -5 -5.5 -10t-12.5 -5q-5 -2 -9 -2h-9q-43 6 -83 -1t-80 -18q-12 -5 -22.5 -7.5t-19.5 -7.5q-18 -5 -34.5 -8
t-35.5 -7q-17 -5 -32 -0.5t-30 11.5q-8 3 -13 10q-10 8 -7 18.5t14 13.5q17 3 32 6.5t32 6.5q12 2 18 8.5t9 17.5q13 71 35 140t42 138q14 52 27.5 102.5t22.5 101.5q2 5 2 7.5v6.5q-6 5 -13.5 5t-13.5 -1q-15 -5 -30.5 -2.5t-29.5 3.5q-8 0 -15 3.5t-12 7.5
q-8 5 -11.5 13.5t1.5 19.5z" />
    <glyph glyph-name="J" unicode="J" horiz-adv-x="406" 
d="M97 31q5 4 9.5 6t6.5 5q30 30 52 68q29 51 52.5 103t41.5 106q17 54 30.5 107.5t25.5 106.5q4 14 5 27.5t4 27.5q0 10 -11 10q-8 -2 -15.5 -2.5t-15.5 -2.5q-37 -9 -74 -19t-75 -19q-15 -3 -34 -2q-17 2 -30.5 8.5t-21.5 20.5q-8 18 8 21q69 14 133.5 32.5t130.5 35.5
q82 21 168 42q10 2 23.5 -1.5t26 -10.5t22 -16t12.5 -17q2 -4 -1.5 -8t-5.5 -6q-9 -5 -25 -5q-25 0 -48 -4.5t-46 -9.5q-19 -3 -22 -23q-4 -67 -20 -131t-33 -130q-10 -37 -23 -74t-27 -74q-14 -32 -30 -64t-40 -61q-8 -14 -17 -27t-20 -27q-6 -8 -13 -15t-14 -13
q-14 -15 -34.5 -21.5t-42.5 -6.5t-43.5 6t-36.5 17q-13 9 -18.5 22t-6.5 27q-2 14 -2.5 30t2.5 30q6 40 22.5 75t39.5 66q5 5 9 9.5t9 9.5q33 31 78 8q6 -3 8 -9t0 -11q-8 -10 -15.5 -21t-15.5 -22q-17 -24 -28 -50t-14 -55q0 -5 -2 -11t-3 -11q-2 -12 -2 -23t7 -24z" />
    <glyph glyph-name="K" unicode="K" horiz-adv-x="413" 
d="M616 699q-4 -21 -10 -37.5t-20 -28.5q-25 -26 -49 -55t-52 -53q-24 -24 -49.5 -46t-52.5 -44l-58 -46t-62 -40q-5 -5 -11.5 -9t-11.5 -8q5 -10 8 -15.5t4.5 -11t2 -12t1.5 -18.5q2 -28 2.5 -56t4.5 -56q6 -28 16 -56t28 -54q9 -13 18 -21q9 -10 22 -15.5t27 -7.5t28 0.5
t24 8.5q9 6 20 9t10 -3q-14 -28 -49 -39q-58 -16 -108.5 0t-80.5 61q-7 11 -13 22.5t-10 22.5q-11 29 -20.5 58.5t-7.5 61.5q0 5 -1 12t-3 12q-1 11 -3.5 22.5t-4.5 21.5q-2 -1 -4.5 -1t-4.5 -1q-2 -6 -4 -11.5t-5 -11.5q-30 -92 -47 -188q-2 -8 -2 -16v-16q0 -9 2 -16
t4 -15q-11 -7 -22 -9t-22 -2q-38 3 -50 36q-6 20 -4 40q3 46 16 91q14 53 31 105t37 106q11 25 20 50.5t19 51.5q14 34 28 67t27 68q9 18 15 36.5t12 36.5q6 14 14 18t23 1q12 -1 23.5 -4.5t21.5 -7.5q13 -5 16.5 -16t-1.5 -22q-21 -36 -37 -73.5t-35 -74.5q-5 -8 -8 -18.5
t-7 -19.5q-3 -8 -6 -16.5t-5 -16.5q-2 -10 -6 -19.5t-6 -20.5q10 0 13 3q30 19 55 37q51 36 97 77.5t89 85.5q33 32 64 62.5t63 62.5q5 2 8 5t8 6q5 4 12.5 1.5t11.5 -9.5v-3q5 -9 7 -19z" />
    <glyph glyph-name="L" unicode="L" horiz-adv-x="263" 
d="M130 46q23 2 52 6t59 9t59 10.5t53 11.5q14 5 28.5 7.5t28.5 4.5q13 3 23.5 -1t16 -10t5 -13.5t-9.5 -11.5q-14 -7 -48 -17.5t-77 -21.5t-89.5 -20t-85.5 -13q-8 -1 -9.5 -0.5t-9.5 0.5h-4q-26 1 -48 11.5t-42 27.5q-19 15 -20 38l-6 35q2 12 2 22t2 18q7 46 15.5 90
t21.5 89q12 35 22 71.5t20 73.5l48 158q5 17 8 34t7 34q6 25 26 22q20 -2 35 -9.5t28 -21.5q11 -11 6 -26q-8 -24 -15.5 -48t-15.5 -50q-13 -35 -25 -71t-21 -71q-16 -57 -30 -112.5t-28 -112.5q-7 -30 -10 -59.5t-1 -59.5q2 -7 7 -15t10 -9h12z" />
    <glyph glyph-name="M" unicode="M" horiz-adv-x="624" 
d="M313 359q19 8 32.5 21t24.5 28q32 44 63 86.5t63 87.5q17 22 28 46t19 52q8 27 27 37t43 1q16 -7 27.5 -17t14.5 -31q-5 -16 -11.5 -32t-11.5 -33q-23 -64 -38.5 -130.5t-26.5 -133.5q-5 -21 -7.5 -43t-7.5 -44q-4 -29 -3.5 -58t1.5 -59q9 -53 32.5 -78t55 -31.5
t67.5 1.5t69 22q14 6 24.5 6t2.5 -8q-27 -29 -62 -44t-73 -18t-75 5.5t-68 28.5q-37 26 -57 61.5t-22 83.5q0 19 1 38t3 37q4 34 8 67t9 67q-8 5 -12 -0.5t-9 -9.5q-14 -14 -27.5 -28.5t-29.5 -25.5q-30 -23 -62 -24t-62 20q-18 11 -28.5 27.5t-17.5 35.5q-4 11 -5 22.5
t-11 19.5q-3 -3 -5 -4t-4 -3q-20 -66 -39.5 -130.5t-44.5 -128.5q-14 -37 -27.5 -72.5t-29.5 -71.5q-12 -27 -30.5 -47t-41.5 -42q-3 8 -6.5 13t-3.5 9q6 26 10.5 52.5t13.5 52.5q17 51 33.5 101t32.5 100q23 72 42 143t36 143q5 20 7 39t4 37q2 17 6 34.5t7 37.5
q11 2 18.5 7t15.5 3q22 0 42.5 -8t37.5 -21q23 -17 18 -47q-8 -35 -8.5 -69.5t1.5 -69.5q2 -22 5 -43.5t7 -43.5q2 -7 6.5 -12t8.5 -12z" />
    <glyph glyph-name="N" unicode="N" horiz-adv-x="651" 
d="M483 476q-46 -46 -89 -99.5t-80 -114t-66 -128.5t-47 -142q-8 -17 -26 -12t-34.5 25.5t-24.5 51.5t5 66q18 51 41 105.5t47 110t46.5 110.5t39.5 106q2 6 4 13t4 17q-6 9 -25 -1.5t-44 -33.5t-52 -55t-49 -65t-35 -63.5t-10 -50.5q-5 -16 -20.5 -16t-31 10t-26 25.5
t-7.5 29.5q15 58 48.5 111t76.5 94.5t91.5 66.5t93.5 27q47 -8 62.5 -30.5t8.5 -68.5q-2 -10 -12.5 -32.5t-21.5 -47.5t-20 -48.5t-9 -35.5q4 5 16.5 22.5t27 37.5t27.5 37.5t19 22.5q36 41 71.5 81.5t74.5 78.5q18 17 44.5 18.5t50.5 -8t39.5 -28.5t11.5 -44
q-12 -62 -34.5 -120t-49 -114.5t-52 -113t-43.5 -114.5q-18 -62 -26 -104.5t-9.5 -70.5t3 -44.5t12 -26t16.5 -15t17 -12.5q6 -6 4.5 -9t-7.5 -5t-14 -2.5t-15 -0.5q-32 7 -51 26.5t-28.5 46t-10.5 57.5t3 63t11.5 62t15.5 53q29 88 60.5 175.5t61.5 175.5q11 29 11 39
t-7 6.5t-19 -16t-25 -28t-25 -30t-19 -21.5z" />
    <glyph glyph-name="O" unicode="O" horiz-adv-x="525" 
d="M7 167q16 61 33 127t39 127.5t51 114.5t68.5 88.5t92 48.5t121.5 -5q47 -21 78 -54t39 -90q5 -32 -2.5 -62.5t-18.5 -57.5q-22 -57 -53.5 -110.5t-70 -103t-82 -92.5t-88.5 -79q-18 -11 -39.5 -18t-43 -8.5t-43 2t-39.5 13.5q-30 18 -41 53t-1 106zM146 308q-2 0 -5 2
t-5 2q-11 -29 -21.5 -56.5t-16.5 -55.5q-15 -59 -21 -123q-2 -29 12 -39t41 4q18 13 36.5 25t33.5 26q55 60 96.5 106.5t71 91t49.5 93t34 111.5q6 31 8.5 57t-16.5 52q-20 23 -51 28.5t-57 -9.5q-18 -11 -29.5 -25.5t-20 -31t-15 -35t-12.5 -39.5q-24 -74 -35 -151
t-19 -155q-1 -5 -1.5 -11.5t-2 -12t-5 -9t-10.5 -3.5q-8 1 -18.5 9.5t-10.5 16.5q-8 24 -9.5 46.5t-3.5 46.5q-1 10 0 19.5t3 19.5z" />
    <glyph glyph-name="P" unicode="P" horiz-adv-x="607" 
d="M602 597q26 -28 26 -63t-15 -69.5t-40.5 -65t-49.5 -49.5q-57 -45 -107.5 -64.5t-88.5 -26t-61.5 -6t-26.5 -5.5q-12 -27 -22 -60t-17 -66.5t-10.5 -65t-3.5 -53.5q0 -5 1 -9.5t1 -8t-2.5 -5.5t-10.5 -2q-29 2 -48 13t-30 41q-7 26 -3 52t11.5 52.5l15 53t8.5 53.5
q-32 2 -66 8t-68 30h29h54q38 4 64.5 20.5t38.5 57.5q17 60 41.5 116.5t46.5 113.5q5 10 7.5 22.5t6.5 26.5q-21 0 -54 -13t-63.5 -33t-52 -45.5t-18.5 -50.5q1 -9 -8 -10t-22 4t-27.5 14t-25 21t-14 25t5.5 25q44 53 98 84t122 41q83 12 161 -0.5t152 -54.5q19 -10 35 -22
t30 -26zM280 347q35 -2 74 12.5t75 38.5t65 54t43.5 59t11.5 54.5t-31 39.5q-42 25 -88 30.5t-96 2.5q25 -17 27.5 -36.5t-5.5 -42.5q-17 -40 -31 -79t-28 -81q-2 -8 -8.5 -25t-8.5 -27z" />
    <glyph glyph-name="Q" unicode="Q" horiz-adv-x="565" 
d="M330 100q17 -46 46.5 -63.5t60.5 -11.5q12 2 15.5 0t1 -5.5t-9.5 -8t-16 -7.5q-28 -10 -65 -3t-81 48q-10 -9 -23.5 -19t-24.5 -19q-29 -24 -58.5 -33.5t-58 -6t-55 19t-48.5 41.5q-16 18 -19.5 39.5t0.5 44.5q6 30 12.5 60t17.5 59q36 108 86 209t120 194q14 16 29 31.5
t33 27.5q24 18 47.5 15t46.5 -23q11 -8 20.5 -15.5t20.5 -9.5q60 -14 95.5 -46t50 -74t8.5 -89.5t-29 -92.5q-32 -63 -76 -116t-92 -104q-27 -24 -55 -42zM320 207q56 57 102 117t69 134q9 27 8.5 56.5t-8.5 58.5q-12 25 -32.5 33t-43.5 2.5t-47.5 -23t-45.5 -44.5
q2 -28 5 -48.5t1 -37.5q0 -14 -3.5 -27t-5.5 -27q-8 -41 -7 -93t8 -101zM104 22q26 5 51.5 24.5t53.5 43.5q12 11 15 26.5t1 31.5q-6 33 -8.5 64t-2.5 63q0 31 2 70t7 69q2 12 4 25.5t2 26.5q-31 -38 -56 -99t-42 -126t-24.5 -124.5t-2.5 -94.5z" />
    <glyph glyph-name="R" unicode="R" horiz-adv-x="554" 
d="M590 49q-37 -34 -80 -57q-63 -29 -120 -18.5t-104 58.5q-52 54 -81.5 114t-40.5 125q-8 -12 -13 -19t-7 -14q-10 -28 -21 -59.5t-20.5 -63.5t-15.5 -63.5t-6 -58.5q0 -12 -6.5 -12.5t-11.5 0.5q-7 1 -12.5 4.5t-10.5 6.5q-24 20 -32 48t-3 57q6 34 13.5 71t21.5 69
q31 78 65.5 154.5t69.5 151.5q7 12 13 25.5t14 28.5q-31 -3 -61.5 -24t-47.5 -59q-10 -19 -23.5 -19.5t-33.5 15.5q-14 10 -23.5 25.5t-11.5 31.5t4.5 32t26.5 28q53 34 111 51t118 20.5t120.5 -4.5t118.5 -24q40 -15 63 -37.5t32.5 -47t7 -50t-11.5 -46.5
q-16 -36 -54.5 -72t-85.5 -64.5t-96.5 -46t-86.5 -16.5q7 -47 23 -90t39 -78t52 -59t62 -32t68.5 3t71.5 46q15 12 24 13t10.5 -5t-5.5 -16.5t-23 -22.5zM298 606q0 -17 0.5 -25t-3.5 -18q-9 -20 -18 -44l-18 -48t-18.5 -47t-19.5 -41q27 -1 69 5.5t85 20.5t80 35.5t54 49.5
q23 40 17.5 64.5t-34.5 36.5t-79 13.5t-115 -2.5z" />
    <glyph glyph-name="S" unicode="S" horiz-adv-x="680" 
d="M580 454q63 -49 73 -100.5t-32 -111.5q-26 -42 -65 -76t-77 -60q-35 -26 -85.5 -51t-104.5 -43q-27 -9 -55 -16t-57 -9t-57.5 3t-56.5 21q-32 16 -49.5 44t-12.5 69q2 32 10 64t31 58q61 66 117.5 102.5t116.5 52t126.5 16t146.5 -3.5q-23 20 -48 28.5t-54 10.5
q-35 2 -69 3t-68 3q-37 2 -73.5 16t-60.5 42q-21 26 -18.5 49t19.5 42t44.5 34.5t56.5 27t56 19t44 11.5q25 7 50.5 11t49 0.5t42.5 -15.5t32 -36q4 -11 0.5 -19t-9.5 -12.5t-13.5 -4t-10.5 6.5q-12 13 -36.5 13t-54 -8t-60 -22t-55 -28.5t-39 -27t-11.5 -17.5q0 -7 5 -10.5
t12.5 -5t15.5 -2t14 -1.5q42 -5 86 -9t89 -15q24 -6 49 -17.5t46 -25.5zM490 256q26 24 47.5 56t23.5 79q-37 2 -83.5 -2t-95.5 -15t-97.5 -31t-89 -49.5t-70.5 -70t-41 -93.5q-6 -29 -4.5 -44.5t10.5 -21.5t26.5 -4t44.5 10q95 26 176 72.5t153 113.5z" />
    <glyph glyph-name="T" unicode="T" horiz-adv-x="460" 
d="M302 608q-68 -8 -129.5 -20t-122.5 -22q-45 -7 -56 -0.5t-3.5 19t25.5 27t30 23.5q45 23 101.5 40t117 29t121.5 19.5t114 12.5t95 7.5t64 4.5q31 2 50 -16.5t21 -48.5q2 -19 -7.5 -30t-28.5 -11q-80 2 -166.5 -4t-167.5 -21q21 -26 27 -49.5t3.5 -46.5t-10 -47
t-14.5 -49q-14 -55 -31.5 -112t-35.5 -114.5t-34.5 -114t-28.5 -110.5q-5 -11 -19 -9.5t-28 12t-24 28.5t-6 39q3 21 6 37.5t6 32.5t7 33t10 37q21 75 45.5 150t47.5 150q8 23 12 58t9 66z" />
    <glyph glyph-name="U" unicode="U" horiz-adv-x="557" 
d="M108 102q13 4 37 27.5t54 58.5t63 79t65.5 89t62 88t51.5 77q9 18 17.5 39.5t16.5 44.5q0 13 -1 26.5t0.5 25.5t7.5 23t20 20q12 8 24 13q17 1 31 -4.5t22.5 -15.5t11 -24t-2.5 -30q-28 -81 -56.5 -163t-56.5 -165q-24 -68 -49.5 -134t-49.5 -134q-9 -26 -15.5 -54.5
t-12.5 -55.5q-2 -6 -3.5 -11.5t-4.5 -10t-7.5 -7.5t-13.5 -4q-17 0 -28.5 6.5t-13.5 23.5q-8 39 -1 77t19 75.5t26 74.5t21 75q2 6 3.5 12.5t-0.5 11.5q-10 -11 -23 -29.5t-27.5 -38t-28 -37.5t-23.5 -29q-17 -15 -31.5 -28.5t-33.5 -26.5q-29 -19 -59.5 -18t-62.5 16
q-30 17 -44 39.5t-10 55.5q3 18 10 43.5t15 52.5t16 53t14 45q13 55 31.5 111t35.5 110q2 4 2.5 8t2.5 8q10 23 21.5 28.5t30.5 -0.5q26 -9 31.5 -20.5t-2.5 -33.5q-12 -42 -27.5 -90.5t-31 -99t-30.5 -99t-26 -90.5q0 -9 -3 -21t-4 -24t3 -22.5t17 -16.5z" />
    <glyph glyph-name="V" unicode="V" horiz-adv-x="413" 
d="M14 128q6 26 10 44t7 34t6.5 33.5t9.5 42.5q20 88 42.5 173t26.5 174q0 45 44 31q25 -8 29 -26t-1 -44q-7 -38 -23.5 -101.5t-34.5 -133t-35 -134.5t-24 -106q8 10 18 23t19.5 26t18.5 25t16 20q40 50 94 113.5t112.5 128t117.5 122.5t109 97q8 6 17.5 12.5t17.5 12.5
q18 15 35.5 22t33 4.5t28.5 -14t21 -34.5q-18 -4 -45 -21.5t-60 -44t-70 -60.5t-73.5 -70t-71 -72t-62.5 -68q-62 -71 -117.5 -146t-97.5 -160q-8 -15 -13 -21.5t-11.5 -8t-16.5 0t-26 4.5q-28 4 -42 12.5t-18 23t-1 35.5t10 51z" />
    <glyph glyph-name="W" unicode="W" horiz-adv-x="734" 
d="M369 33q48 49 89 99.5t74.5 105t59.5 115t44 129.5q8 30 12 62t6 63q1 13 0.5 26.5t-4.5 26.5t-13 23.5t-25 17.5q48 15 84.5 -9.5t45.5 -74.5q8 -48 0.5 -95.5t-20.5 -93.5q-20 -78 -54 -148t-76 -136q-13 -20 -25 -35.5t-24.5 -29.5t-25.5 -28.5t-28 -32.5
q-32 -39 -71 -42t-80 17q-34 17 -45.5 50t-10.5 71.5t8.5 77t11.5 66.5q-7 -11 -18.5 -31.5t-23.5 -43t-23.5 -43t-18.5 -30.5q-11 -15 -21 -29.5t-20 -29.5q-14 -21 -33.5 -31t-41.5 -10t-43.5 9.5t-39.5 28.5q-12 19 -16 61.5t-1.5 98.5t11 120.5t21 128.5t29 121.5
t34.5 99.5q8 18 24 19.5t31 -7t24.5 -23.5t4.5 -30q-21 -54 -43.5 -128.5t-39.5 -152.5t-23.5 -152t5.5 -128q11 11 17.5 16t10.5 11q22 32 45.5 69t47 75t47 75.5t45.5 69.5q8 12 12 26t9 28q14 42 31.5 51.5t46.5 -16.5q18 -17 15.5 -35t-8.5 -35q-8 -60 -21 -119
t-22 -110t-8.5 -90t21.5 -59z" />
    <glyph glyph-name="X" unicode="X" horiz-adv-x="452" 
d="M394 20q-13 0 -23 -3t-20 -2t-20 8.5t-22 27.5q-14 22 -32.5 70t-42.5 114q-22 -32 -45 -66.5t-44.5 -72t-39.5 -76.5t-30 -80q-18 -6 -29 2t-16.5 24.5t-5 37t6.5 39.5q10 31 26 61.5t34 61.5t37 63.5t36 67.5q11 18 14.5 39.5t2.5 45.5q-1 26 -4 60.5t-8 71.5t-13 74.5
t-18 70.5q38 11 68 -5.5t35 -51.5q4 -21 6.5 -46.5t4.5 -51.5t3 -51.5t3 -47.5q43 66 87.5 123.5t96.5 120.5q13 15 28 29.5t31.5 23t34.5 9t36 -12.5t12.5 -20t-21.5 -21q-84 -74 -147 -160.5t-106 -163.5q-8 -14 -8 -29.5t2 -28.5q7 -33 18.5 -69t24 -70t25.5 -64t22 -52z
" />
    <glyph glyph-name="Y" unicode="Y" horiz-adv-x="408" 
d="M102 451q10 -5 26.5 3.5t37 26.5t43.5 42.5t46 51.5t44.5 53t39.5 47q15 9 36.5 12t44.5 -3q16 -5 22 -13t3 -24q-10 -54 -20.5 -113t-21.5 -113q-2 -19 -8.5 -37t-12.5 -37q-7 -25 -14.5 -48t-15.5 -47q-14 -41 -30.5 -81t-33.5 -80q-17 -41 -36.5 -79.5t-50.5 -74.5
q-24 -27 -52.5 -42t-61.5 -21q-39 -7 -60.5 16t-27.5 61t2.5 83.5t29.5 83.5q32 50 64.5 91.5t76.5 83.5q20 17 41 32t42 29q33 18 54 51.5t33.5 70t18.5 69t9 48.5q-18 -16 -45.5 -46t-57.5 -62t-58.5 -61t-49.5 -42q-21 -14 -42.5 -13t-40 12t-31 29.5t-14.5 41.5
q-4 9 -3 27t5.5 41t11.5 48.5t15 48.5q6 16 17 29t25 21t29 11.5t29 1.5q22 -5 26 -14t-7 -27q-11 -21 -27.5 -50t-30.5 -57t-20.5 -51t1.5 -30zM280 310q-4 -1 -7 -1t-5 -1q-3 -3 -6.5 -4.5t-6.5 -4.5q-18 -21 -40.5 -47.5t-44.5 -55t-42 -56.5t-32 -52q-14 -28 -24 -58.5
t-11 -63.5q10 -29 29.5 -20.5t43 39.5t48.5 77t46 94t35 90t17 64z" />
    <glyph glyph-name="Z" unicode="Z" horiz-adv-x="832" 
d="M747 391q9 -5 15.5 -7.5t10.5 -7.5q11 -7 22 -16t12 -19q0 -17 -12.5 -23t-26.5 -8q-14 -3 -28 -5.5t-29 -4.5q-18 -1 -32 -10.5t-27 -26.5q-25 -32 -53 -59.5t-56 -56.5q-3 -5 -9 -6.5t-11 -3.5q2 -4 4.5 -7t4.5 -6q25 5 55.5 6.5t60.5 -0.5t58 -9t49 -18
q16 -8 26.5 -23.5t18.5 -31.5q8 -15 1.5 -25.5t-21.5 -8.5q-10 0 -14 4q-27 15 -54.5 19.5t-55 3t-55.5 -6.5t-55 -9q-26 -5 -51.5 -7t-48.5 -10q-49 -17 -95 -38.5t-94 -41.5q-54 -24 -107 -48t-107 -46q-20 -8 -42.5 7t-36.5 45q35 30 73 53.5t80 42.5q45 20 90.5 38
t91.5 38q14 7 27.5 14.5t26.5 17.5q28 20 58 46t59.5 55t57.5 59t52 58q-13 10 -32 10t-37.5 1.5t-33 10t-17.5 35.5q40 2 76 4.5t73 4.5q38 0 53 35q16 32 30 66t28 67q13 31 -1.5 54.5t-43.5 28.5q-51 11 -102.5 11.5t-102.5 -14.5q-190 -53 -315 -217
q-11 -15 -21.5 -30.5t-21.5 -31.5q-23 -38 -70 -6q-20 14 -22.5 27.5t9.5 34.5q33 59 77 103.5t94 81.5q45 34 93 61t102 44q75 21 147 18t144 -33q22 -9 43 -24.5t39 -31.5q31 -28 34.5 -65.5t-16.5 -77.5q-11 -20 -19.5 -41t-19.5 -43z" />
    <glyph glyph-name="zero" unicode="0" horiz-adv-x="232" 
d="M-20 174q0 21 6 51t16.5 62.5t25.5 63.5t33 55q19 25 37.5 38t45.5 5q12 15 24.5 22.5t24 7t19 -9t9.5 -24.5q2 -23 -1 -44t-10 -41q-12 -46 -34 -87t-51 -78q-14 -18 -29 -36t-40 -27q-9 -3 -22 -1t-25 8t-20.5 15t-8.5 20zM157 426q-8 10 -21.5 0t-28.5 -31
t-29.5 -49.5t-24 -55.5t-13 -48.5t4.5 -29.5q3 -2 10 -2t15 7t17.5 18.5t18.5 24t17 25t13 22.5q8 18 16 46t12 51q1 7 -1.5 12t-5.5 10z" />
    <glyph glyph-name="one" unicode="1" horiz-adv-x="199" 
d="M163 187q6 -13 4 -18t-12 -7q-12 -8 -31 -8q-8 -2 -12.5 -7t-9.5 -13q-8 -14 -29 -16.5t-44 5.5q-25 7 -27.5 24t13.5 27q3 1 9.5 2.5t12.5 4t11 5.5t6 6q14 46 30 90t30 89q2 8 3.5 16.5t-0.5 16.5q-12 -4 -19.5 -6t-13 -0.5t-9.5 6.5t-10 14q6 6 12.5 12t14.5 12
q13 11 25 22t25 23q4 4 11.5 5t16.5 0t17 -2.5t12 -2.5q21 -8 14 -27q0 -7 -6 -11l-12 -34t-11 -35l-16 -46l-16 -46q-8 -22 -15.5 -43.5t-15.5 -41.5v-7t-2 -9h44z" />
    <glyph glyph-name="two" unicode="2" horiz-adv-x="337" 
d="M143 217q24 6 49 10.5t48.5 3.5t43.5 -10t33 -31q2 -4 2 -9q0 -1 -2.5 -7.5t-6.5 -14t-9.5 -13.5t-10.5 -6q-28 34 -66 44t-76 0q-20 -7 -38.5 -17t-35.5 -22q-8 -6 -16.5 -12.5t-16.5 -11.5q-9 -2 -16 3t-12 12.5t-8.5 16t-6.5 14.5v6q25 20 42 33t35 32q14 16 37 40.5
t44.5 52t38 55t17.5 49.5q-4 11 -14 9.5t-22.5 -8t-24 -15.5t-18.5 -13q-8 -5 -15.5 3t-13.5 18q-5 7 -10 23q32 27 64.5 35.5t70.5 0.5q14 -4 24 -14.5t15 -24.5q2 -6 2 -10.5v-11.5q-2 -10 -7 -20.5t-9 -21.5q-17 -29 -39 -65.5t-45 -61.5q-8 -8 -16 -17.5t-13 -21.5z" />
    <glyph glyph-name="three" unicode="3" horiz-adv-x="301" 
d="M210 197q-41 -42 -75.5 -55t-61 -10t-43 14.5t-21.5 18.5q-5 4 -7 13.5t-0.5 19.5t6.5 19.5t14 13.5q35 -24 69.5 -21.5t64 20.5t52 46t33.5 55q6 10 -9 11t-36.5 -4.5t-41 -14t-21.5 -16.5q-7 1 -11 8t-6 17t-3.5 19.5t-2.5 15.5q12 4 26 12t26 19.5t21.5 24.5t13.5 27
q-12 -4 -21.5 -10.5t-17 -13t-14 -12.5t-13.5 -9q-8 -4 -15 -2.5t-12.5 7t-8 14t-0.5 17.5q8 4 12.5 8t9.5 6q11 6 20.5 11t20.5 10q20 8 40.5 10t42.5 -5q16 -12 16.5 -24.5t-7 -24.5t-18 -24t-17.5 -22q8 -2 14.5 -3.5t11.5 -3.5q9 -3 15 -5.5t14 -6.5q18 -14 22 -32
t-7 -35q-14 -26 -33 -54.5t-42 -48.5z" />
    <glyph glyph-name="four" unicode="4" horiz-adv-x="224" 
d="M135 127q-3 -5 -14 -4.5t-23.5 9t-21.5 24.5t-7 42q4 11 11 32t15.5 44.5t16 44t12.5 29.5l-23 -23t-26 -23q-6 -5 -14 -10t-16 -7q-21 -8 -33 8q-5 2 -7 7.5t-4 9.5q16 24 36.5 46t40.5 43.5t39 44t33 47.5q20 2 36 -2t33 -9q7 -4 6 -9.5t-1 -13.5q-11 -33 -21.5 -64
t-25.5 -60l-16.5 -49.5t-15 -51.5t-9.5 -52t-1 -53zM186 460q-8 -5 -18.5 -14t-20.5 -19t-19 -20.5t-14 -17.5q-2 0 -1.5 -2t-1.5 -5q23 17 42.5 34.5t32.5 43.5z" />
    <glyph glyph-name="five" unicode="5" horiz-adv-x="290" 
d="M72 464q3 22 15 22t26 -3q40 -10 82.5 -11.5t73.5 14.5q3 1 5.5 -4t2.5 -13t-3.5 -15.5t-12.5 -10.5q-33 -13 -62 -14.5t-68 12.5q-1 -4 -1.5 -14.5t-1.5 -22t-2 -22.5t-2 -16q25 10 42.5 13t31.5 1t26.5 -10t29.5 -20q15 -13 20.5 -38t-7.5 -43q-16 -28 -46 -50
q-19 -14 -40.5 -25.5t-42.5 -23.5q-25 -15 -51.5 -25.5t-55.5 -18.5q-4 -1 -10.5 -0.5t-12 2.5t-7 6t4.5 9q45 29 82.5 56t86.5 54q11 8 22 20t18.5 24.5t9 23.5t-5.5 17q-10 7 -26.5 2t-34 -16t-33 -23.5t-24.5 -18.5q-4 -4 -9.5 -8t-9.5 -6q-20 -12 -33 5q-2 5 -2 19
t-3 21q9 12 13.5 30.5t7 39t3.5 41.5t4 40z" />
    <glyph glyph-name="six" unicode="6" horiz-adv-x="224" 
d="M96 286q9 6 19 6q20 -2 36.5 -5.5t34.5 -11.5q10 -8 12.5 -14.5t-0.5 -20.5q-5 -19 -17.5 -36t-25.5 -31q-10 -10 -22 -15.5t-26 -12.5q-23 -11 -45.5 -8.5t-39 15t-25 34t-2.5 48.5q3 24 19 56.5t37.5 65.5t46 62t45.5 47q17 15 37.5 22t43.5 -10q8 -4 -1 -9
q-12 -3 -31 -20.5t-40 -43t-41 -56t-33.5 -58.5t-16.5 -51t10 -34q9 -8 23.5 -7t28 8t24 18t12.5 22q3 7 -3.5 12.5t-16.5 9.5t-20.5 6.5t-16.5 3.5q-2 0 -3 1l-2 2q-1 3 -1 5z" />
    <glyph glyph-name="seven" unicode="7" horiz-adv-x="232" 
d="M199 335q3 -3 7 -3.5t8.5 -0.5t8.5 -1.5t6 -6.5q0 -5 -1.5 -9.5t-12.5 -6.5q-13 -5 -27.5 -3t-26.5 -8q-6 -6 -15.5 -26.5t-23 -45.5t-30 -50t-34.5 -38q-12 -9 -27 -11.5t-26 1.5q-2 1 -0.5 4.5t4.5 6.5q9 9 21 29t25 44t26 47.5t24 40.5q-5 2 -14 2t-17 2q-9 1 -11 4
t0 6.5t6.5 6.5t9.5 4h7.5t15 0.5t15 1t7.5 0.5q20 22 38.5 44.5t41.5 47.5q-15 -6 -35.5 -18.5t-45.5 -14.5q-20 -2 -34 8.5t-25 27.5q-10 15 -0.5 15.5t21.5 -5.5q16 -4 32.5 -0.5t34 11t35.5 16t36 14.5q4 2 17 5.5t26.5 4.5t22 -2.5t3.5 -14.5q-1 -2 2 -2t7 0.5t7 1
t2 0.5q2 -8 -1.5 -13t-8.5 -10q-18 -16 -34 -34q-17 -14 -36.5 -33.5t-30.5 -38.5z" />
    <glyph glyph-name="eight" unicode="8" horiz-adv-x="259" 
d="M74 359q-12 28 -3.5 52t28.5 42t47 28t51 9q14 -3 27 -8.5t23 -13.5q9 -10 13 -18t2 -19q-2 -17 -3 -32t-4 -29q-2 -13 -15 -23t-27 -14.5t-23.5 -3t-5.5 12.5q3 8 8 17.5t10 19.5t8.5 20.5t2.5 20.5q-2 22 -15 27.5t-29 1.5t-31.5 -13.5t-22.5 -17.5q-6 -7 -8 -18.5
t-0.5 -22.5t6.5 -18t13 -4t14.5 2t13.5 -4q16 -4 13 -22q0 -12 5 -12q11 -3 23 -11t20 -18q12 -14 12.5 -24.5t-8.5 -27.5q-8 -18 -21 -32.5t-26 -28.5q-4 -4 -8 -7.5t-7 -7.5q-15 -16 -32 -28t-37 -20q-17 -7 -42.5 -5t-36.5 22q-2 4 -4 7.5t-4 8.5q0 3 -1 6.5t-1 6.5
q2 18 10 39.5t19 43t24.5 40.5t26.5 33q2 2 2.5 4t2.5 2q5 10 1 17q-3 7 -5 11t-6 9zM130 304q-5 -4 -21 -20.5t-31 -36.5t-22 -39t5 -27q7 -6 29 4t43.5 27.5t35.5 37t7 32.5q-2 4 -5 6t-4 4q-11 8 -18.5 8t-18.5 4z" />
    <glyph glyph-name="nine" unicode="9" horiz-adv-x="214" 
d="M125 317q-12 -3 -23 -13t-21 -12q-8 -2 -17.5 -1.5t-19 4t-17.5 10t-11 16.5q-5 11 0 21q5 11 8 18.5t9 15.5q0 2 1.5 3t1.5 3q11 26 27.5 45.5t36.5 38.5q9 7 15.5 10.5t17.5 10.5q8 2 19 0q5 -2 9 -2.5t9 -2.5q3 -3 5.5 -4t3.5 -3q5 -3 10 -6.5t10 -6.5
q15 -9 18.5 -26.5t0.5 -37.5t-10 -40t-13 -33q-9 -19 -16 -37.5t-17 -36.5q-10 -17 -19 -32.5t-18 -31.5q-14 -26 -42 -42.5t-56 -27.5q-5 -3 -12 -3t-14 -1q-1 7 3 14q9 11 17.5 20t16.5 20q14 19 25.5 36.5t24.5 38.5q8 14 18.5 36.5t18.5 38.5zM163 441q0 12 -8.5 9
t-20.5 -14t-25.5 -27t-23 -30.5t-14 -25t2.5 -10.5h4q28 15 43 29t35 38q7 10 7 29v2z" />
    <glyph glyph-name="colon" unicode=":" horiz-adv-x="132" 
d="M30 221q4 15 18 20t28 -3q9 -5 17.5 -9.5t7.5 -16.5q-2 -11 -13.5 -21.5t-22.5 -10.5q-27 -2 -34.5 6.5t-0.5 34.5zM30 345q4 15 18 20t28 -3q9 -5 17.5 -9.5t7.5 -16.5q-2 -11 -13.5 -21.5t-22.5 -10.5q-27 -2 -34.5 6.5t-0.5 34.5z" />
    <glyph glyph-name="semicolon" unicode=";" horiz-adv-x="135" 
d="M40 345q4 15 18 20t28 -3q9 -5 17.5 -9.5t7.5 -16.5q-2 -11 -13.5 -21.5t-22.5 -10.5q-27 -2 -34.5 6.5t-0.5 34.5zM26 161q7 23 13.5 47t12.5 50q8 5 18 3.5t19 -7.5q10 -7 8 -17t-4 -18q-5 -19 -13.5 -35.5t-24.5 -27.5q-6 -5 -12 -8.5t-10.5 -3.5t-6.5 3.5t0 13.5z
" />
    <glyph glyph-name="less" unicode="&#x3c;" horiz-adv-x="286" 
d="M26 233q37 44 70.5 84t68.5 79q23 27 42.5 23t32.5 -51q-26 -29 -54.5 -62t-57.5 -63q10 -24 27 -40t35 -30.5t33.5 -30t24.5 -38.5q-1 -9 -9 -12t-18.5 -1.5t-21.5 6t-18 9.5q-36 23 -70.5 49t-68.5 52q-6 5 -9.5 13t-6.5 13z" />
    <glyph glyph-name="equal" unicode="=" horiz-adv-x="295" 
d="M104 332q20 0 31 -0.5t19.5 -1.5t18.5 -1.5t30 -0.5q22 -1 38.5 -9t22 -17t-4 -16.5t-39.5 -7.5q-23 0 -37 -0.5t-26 -0.5h-25.5t-36.5 1q-15 2 -32.5 6t-29.5 16q-10 10 -2.5 16.5t22 10t30 4.5t21.5 1zM96 241q20 0 31 -0.5t19.5 -1.5t18.5 -1.5t30 -0.5q22 -1 38.5 -9
t22 -17t-4 -16.5t-39.5 -7.5q-23 0 -37 -0.5t-26 -0.5h-25.5t-36.5 1q-15 2 -32.5 6t-29.5 16q-10 10 -2.5 16.5t22 10t30 4.5t21.5 1z" />
    <glyph glyph-name="greater" unicode="&#x3e;" horiz-adv-x="261" 
d="M198 216q-32 -26 -62 -46.5t-62 -49.5q-13 -12 -21 -17t-14 -2t-9.5 15.5t-7.5 36.5q30 26 56.5 48t58.5 48q-5 12 -19.5 29t-31.5 37t-33 41.5t-23 41.5q2 9 10 14t17.5 6.5t19.5 -0.5t16 -8q16 -14 31.5 -32t30 -37.5t29 -38.5t29.5 -34q9 -9 11 -16.5t-1.5 -13.5
t-10.5 -11t-14 -11z" />
    <glyph glyph-name="question" unicode="?" horiz-adv-x="299" 
d="M96 198q-19 -1 -33.5 5t-22.5 17t-8.5 26t8.5 32q10 23 26.5 43.5t33.5 40.5t37.5 36.5t39.5 35.5q11 12 20 25t17 27q8 16 2.5 25.5t-21.5 10.5q-27 2 -46 -11t-35 -32q-8 -11 -16.5 -17.5t-22.5 -1.5q-35 11 -20 46q7 19 20.5 34t30 24t35.5 11.5t39 -3.5
q24 -7 45.5 -17.5t38.5 -29.5q23 -23 25.5 -48t-17.5 -51q-17 -21 -48 -44t-60.5 -50.5t-50 -60.5t-17.5 -73zM40 109q-3 11 4 15t20 4q21 0 39.5 -9t17.5 -20q0 -10 -14 -19t-28 -10q-37 -2 -39 39z" />
    <glyph glyph-name="at" unicode="@" horiz-adv-x="371" 
d="M187 211q-18 -5 -33.5 -8.5t-30.5 -5.5q-35 0 -26 28q9 23 19 43.5t21 41.5q8 14 21.5 19t28.5 7q23 0 30.5 -6.5t10.5 -29.5q3 -15 7 -31l9 -36q10 1 19 14t14.5 30.5t7.5 37t-1 33.5q-3 20 -10.5 36t-27.5 24q-35 4 -63 -7t-48 -33t-32.5 -52t-16.5 -65
q-4 -38 5.5 -68.5t30 -48.5t51.5 -21t69 16q-20 -30 -55 -40.5t-70 -2t-62 34.5t-29 70q-3 53 18 104t58 89t86.5 57t103.5 8q44 -9 60.5 -35.5t11.5 -67.5q-3 -38 -21.5 -72.5t-44.5 -64.5q-9 -11 -22.5 -16t-28.5 -5.5t-29.5 4t-24.5 13.5z" />
    <glyph glyph-name="exclam" unicode="!" horiz-adv-x="221" 
d="M103 547q6 25 30 21q8 -1 14.5 -2t13.5 -3q19 -8 24 -17t0 -29q-11 -42 -22 -83l-22 -82q-9 -32 -16.5 -64t-15.5 -63q-9 -47 -36 -42q-6 0 -8 3.5t-2.5 9t-0.5 13.5t-2 18q-2 46 1.5 87.5t10 80.5t15 76.5t16.5 75.5zM26 96q0 2 0.5 4.5t1.5 6.5q5 23 19 29t40 -2
q24 -6 16 -24q-5 -8 -9 -16.5t-8 -16.5q-5 -8 -15 -12t-21 -2q-25 4 -24 33z" />
    <glyph glyph-name="quotedbl" unicode="&#x22;" horiz-adv-x="190" 
d="M32 607q2 15 2 31t2 32q0 10 8 16q19 15 37 -3q15 -17 7 -42q-4 -11 -7.5 -23.5t-8.5 -25.5t-14.5 -15.5t-17.5 -1.5q-11 2 -11 11.5t3 20.5zM109 607q2 15 2 31t2 32q0 10 8 16q19 15 37 -3q15 -17 7 -42q-4 -11 -7.5 -23.5t-8.5 -25.5t-14.5 -15.5t-17.5 -1.5
q-11 2 -11 11.5t3 20.5z" />
    <glyph glyph-name="numbersign" unicode="#" horiz-adv-x="371" 
d="M162 186q3 12 5.5 25.5t5.5 27.5q-20 0 -24.5 -9.5t-9.5 -21.5q-3 -11 -10 -21t-28 -6q-18 3 -23 9q-6 7 -6 15.5t2.5 17.5t6.5 17.5t7 16.5q-5 2 -12.5 3l-15 2t-14.5 2.5t-11 3.5q-9 4 -12 10t-1 11t7.5 9t13.5 4h42q6 1 7.5 2.5t1.5 3.5t-1 3.5t0 2.5q2 3 -14.5 2
t-29.5 2q-7 1 -8.5 5t0 8.5t5.5 8t9 4.5q10 2 19.5 2.5t17 2t12.5 5t5 11.5q0 2 1 3q0 1 1 1q4 16 9 24.5t11.5 11.5t15.5 2t21 -4q9 -2 14 -3t7.5 -2.5t2.5 -5t-3 -10.5q-2 -6 -3 -12.5t-3 -13.5q21 -4 31 -4.5t15 4.5q7 8 12 20t5 20q5 11 12 18.5t22 5.5t24.5 -12
t7.5 -24q0 -6 -2 -13t-4 -15q6 -1 11 -2t11 -3q7 -2 12 -7t5.5 -10.5t-3.5 -10t-15 -5.5t-19 -1t-14 -1t-10 -5t-8 -13q0 -1 4 -1.5t9.5 -1t12 -1t10.5 -1.5t4 -4t-1.5 -6t-3.5 -5.5t-2 -3.5q-1 -2 -8.5 -2.5t-16 -1.5t-16 -2t-8.5 -3q-10 -20 -20.5 -40t-21.5 -40
q-8 -15 -14.5 -20.5t-20.5 -3.5q-21 2 -23.5 6.5t2.5 18.5zM169 307q0 -2 -3.5 -8t-3.5 -8q8 2 19 -0.5t19 -0.5q0 2 1 5t3 11q-9 -3 -18 0t-17 1z" />
    <glyph glyph-name="dollar" unicode="$" horiz-adv-x="305" 
d="M210 562v80q36 8 50.5 -2t11.5 -40q-1 -12 -2 -23.5t0 -23t5 -22.5t15 -21q9 -8 7 -20t-19 -17q-14 -3 -17 -12t-5 -20q-3 -15 -6.5 -28.5t-5.5 -27.5q0 -9 2 -19.5t8 -16.5q32 -42 29 -82t-29 -81q-9 -14 -20 -25.5t-22 -25.5l-12 -12t-9 -14q-8 -21 -19 -29t-35 3
q-8 3 -17 3t-18 -0.5t-18.5 -0.5t-18.5 2q-38 11 -48 31.5t7 57.5q38 94 129 138q23 11 26 23t-14 32q-12 12 -25 24t-25 26q-33 36 -25.5 69.5t51.5 51.5q17 8 33 12t36 10zM107 141q18 9 26.5 19.5t12.5 23t5.5 28.5t6.5 37q-9 -8 -18 -20.5t-16 -27.5t-11.5 -30.5
t-5.5 -29.5zM202 494q-15 -12 -22.5 -19.5t-8 -14.5t5 -15.5t16.5 -21.5q2 18 4 34.5t5 36.5zM206 197q15 18 22 29.5t8.5 19.5t-2 15t-9.5 16q-3 -12 -5 -21.5t-3.5 -18.5t-4 -18.5t-6.5 -21.5z" />
    <glyph glyph-name="percent" unicode="%" horiz-adv-x="364" 
d="M179 247q20 3 37.5 5.5t35.5 2.5q19 0 35 -5t25 -23q9 -17 3 -29.5t-17 -24.5q-11 -14 -26.5 -14.5t-29.5 4.5q-11 3 -20.5 8t-22.5 13q-17 -19 -34.5 -38.5t-34.5 -39.5q-27 -30 -50 -32t-60 25l28 56t27 57q29 59 57 117.5t57 117.5q8 18 14 36.5t11 36.5q5 12 10 22
t20 8q14 -2 28 -6.5t24 -12.5q12 -10 5 -20t-13 -20q-14 -20 -31.5 -54t-33.5 -70t-28.5 -69t-15.5 -51zM122 555h17q23 0 37.5 -10t14.5 -24q3 -33 -34 -50q-9 -4 -21.5 -5t-25 1t-23 7t-16.5 13q-6 9 -7.5 21.5t1.5 23.5q2 11 8 16t14 6.5t17 1t18 -0.5z" />
    <glyph glyph-name="ampersand" unicode="&#x26;" horiz-adv-x="449" 
d="M146 353q-16 16 -24 29t-9 25.5t5 25.5t19 30q27 36 69 64q13 10 25 16t26.5 7.5t33 -0.5t45.5 -6q5 15 9 31t9 32q3 12 9.5 19t21.5 3q13 -5 22 -12.5t3 -23.5q-9 -28 -18.5 -55t-18.5 -55q-14 -46 -29 -92t-29 -93q0 -3 -3.5 -11.5t-3.5 -14.5q10 4 30.5 13t38 14t25 1
t-9.5 -25q-8 -10 -17 -18.5t-19 -16.5q-54 -40 -80 -92.5t-39 -112.5q-10 -32 -20 -35t-16 12t-6 43.5t11 59.5q-27 -25 -64 -35.5t-69 -5.5t-51 25.5t-9 56.5q12 46 34 85.5t57 71.5q11 9 21 19zM268 323q-28 5 -41.5 3t-30.5 -19q-20 -20 -39.5 -41t-36.5 -44
q-8 -11 -16.5 -26t-13 -30.5t-3 -29t12.5 -21.5q71 34 115.5 83t52.5 125zM285 367q8 23 14 45.5t14 45.5q5 10 4.5 20t-12.5 14q-8 3 -20 1.5t-17 -6.5q-27 -25 -44 -48t-18 -40.5t17 -26t62 -5.5z" />
    <glyph glyph-name="quotesingle" unicode="'" horiz-adv-x="117" 
d="M32 607q2 15 2 31t2 32q0 10 8 16q19 15 37 -3q15 -17 7 -42q-4 -11 -7.5 -23.5t-8.5 -25.5t-14.5 -15.5t-17.5 -1.5q-11 2 -11 11.5t3 20.5z" />
    <glyph glyph-name="parenleft" unicode="(" horiz-adv-x="199" 
d="M312 614q-19 -1 -44.5 -23t-52.5 -59t-53 -84.5t-45.5 -99t-31 -103t-9 -97t20.5 -81t57 -53.5q-9 -4 -15 -6.5t-10 -2.5q-44 -2 -76 23.5t-43 71.5q-13 51 -4 116t31.5 130.5t53.5 125t61 98.5q13 17 29 31t33 25q12 7 26.5 11.5t28 4t25 -6.5t18.5 -21z" />
    <glyph glyph-name="parenright" unicode=")" horiz-adv-x="243" 
d="M-65 42q19 1 44.5 23t52.5 59t53 84.5t45.5 99t31 103t9 97t-20.5 81t-57 53.5q9 4 15 6.5t10 2.5q44 2 76 -23.5t43 -71.5q13 -51 4 -116t-31.5 -130.5t-53.5 -125t-61 -98.5q-13 -17 -29 -31t-33 -25q-12 -7 -26.5 -11.5t-28 -4t-25 6.5t-18.5 21z" />
    <glyph glyph-name="asterisk" unicode="*" horiz-adv-x="226" 
d="M141 570q-2 -5 -6 -10t-7 -10q1 -3 6.5 -4.5t11 -2.5t10.5 -2t7 -3q4 -5 2 -8.5t-7 -6.5t-11.5 -4.5t-10.5 -1.5q-2 -7 8 -13.5t14 -11.5q6 -4 12.5 -11t3.5 -14q-1 -4 -5 -6.5t-7 -2.5q-11 1 -19 4.5t-14 8.5t-12 11t-13 14q-13 -1 -19.5 -9.5t-16.5 -13.5
q-5 -5 -13.5 -4t-12.5 4q-11 11 -10.5 14t11.5 14q5 5 10.5 9.5t7.5 8.5q0 3 -2.5 5t-6.5 4l-7 3.5t-4 2.5q-13 10 -9 19.5t15 7.5q8 -2 17.5 -5.5t18.5 -5.5q6 9 7 14t1.5 9t2.5 7.5t10 11.5q20 12 33 7t4 -29z" />
    <glyph glyph-name="plus" unicode="+" horiz-adv-x="306" 
d="M176 394q8 -11 6 -30t0 -40q21 6 43.5 5t36 -7.5t12.5 -17.5t-28 -24q-30 -6 -45.5 -15t-21.5 -37q-2 -9 -4.5 -19t-5.5 -19q-5 -15 -15 -21t-20 -4t-17.5 11.5t-7.5 25.5q0 28 3 49q-17 6 -34 4t-32 7q-15 8 -14.5 17.5t14.5 18.5q12 8 24 9t24 7q17 2 24.5 18.5
t1.5 46.5q-3 17 2.5 25t15.5 8.5t20.5 -4.5t17.5 -14z" />
    <glyph glyph-name="comma" unicode="," horiz-adv-x="110" 
d="M18 122q7 23 13.5 47t12.5 50q8 5 18 3.5t19 -7.5q10 -7 8 -17t-4 -18q-5 -19 -13.5 -35.5t-24.5 -27.5q-6 -5 -12 -8.5t-10.5 -3.5t-6.5 3.5t0 13.5z" />
    <glyph glyph-name="hyphen" unicode="-" horiz-adv-x="340" 
d="M125 299q20 0 31 -0.5t19.5 -1.5t18.5 -1.5t30 -0.5q22 -1 38.5 -9t22 -17t-4 -16.5t-39.5 -7.5q-23 0 -37 -0.5t-26 -0.5h-25.5t-36.5 1q-15 2 -32.5 6t-29.5 16q-10 10 -2.5 16.5t22 10t30 4.5t21.5 1z" />
    <glyph glyph-name="period" unicode="." horiz-adv-x="126" 
d="M32 188q4 15 18 20t28 -3q9 -5 17.5 -9.5t7.5 -16.5q-2 -11 -13.5 -21.5t-22.5 -10.5q-27 -2 -34.5 6.5t-0.5 34.5z" />
    <glyph glyph-name="slash" unicode="/" horiz-adv-x="356" 
d="M-17 47q12 38 22.5 75.5t25.5 71.5q55 128 112 251.5t114 249.5q8 18 17 27t27 3q18 -8 34 -18t22 -34q2 -8 -1.5 -16.5t-6.5 -16.5q-32 -62 -62.5 -122.5t-62.5 -122.5q-18 -38 -39 -72.5t-41 -72.5q-24 -51 -45.5 -101.5t-41.5 -101.5q-8 -15 -16.5 -25.5t-23.5 -12.5
q-14 0 -22.5 8.5t-11.5 29.5z" />
    <glyph glyph-name="bracketleft" unicode="[" horiz-adv-x="222" 
d="M287 642q-20 -3 -35 -5.5t-29 -4.5q-17 -66 -36 -138t-37.5 -144t-37 -143t-34.5 -136q25 -11 40.5 -12t24 -0.5t11.5 -2t4 -17.5q-20 -10 -40.5 -21t-40.5 -20q-8 -4 -19 -3t-22 5t-20 11t-12 15q-4 8 -4 21t2 24q22 81 44 160t42 160q17 60 29.5 120.5t26.5 120.5
q1 6 0 12t0 12q-1 23 8 35.5t24 10.5q26 -6 50.5 -16.5t48.5 -19.5q3 -2 5 -7.5t7 -16.5z" />
    <glyph glyph-name="bracketright" unicode="]" horiz-adv-x="222" 
d="M-43 51q20 3 35 5.5t29 4.5q17 66 35.5 138t37.5 144t37 143t35 136q-26 11 -41 12t-23.5 0.5t-11.5 2t-4 17.5q20 10 40.5 21t40.5 20q8 4 19 3t22 -5t20 -11t12 -15q4 -8 4 -21t-2 -24q-22 -81 -44 -160t-42 -160q-17 -60 -29.5 -120.5t-26.5 -120.5q-1 -6 0 -12t0 -12
q1 -23 -8 -35.5t-24 -10.5q-26 6 -50.5 16.5t-48.5 19.5q-3 2 -5 7.5t-7 16.5z" />
    <glyph glyph-name="backslash" unicode="\" horiz-adv-x="341" 
d="M321 47q-3 -21 -11.5 -29.5t-22.5 -8.5q-15 2 -23.5 12.5t-16.5 25.5q-20 51 -41.5 101.5t-45.5 101.5q-20 38 -41 72.5t-39 72.5q-32 62 -62.5 122.5t-62.5 122.5q-3 8 -6.5 16.5t-1.5 16.5q6 24 22 34t34 18q18 6 27 -3t17 -27q57 -126 114 -249.5t112 -251.5
q15 -34 25.5 -71.5t22.5 -75.5z" />
    <glyph glyph-name="underscore" unicode="_" horiz-adv-x="400" 
d="M101 158q20 0 46.5 -0.5t53.5 -1.5t52.5 -1.5t45.5 -0.5q22 -1 38.5 -9t22 -17t-4 -16.5t-39.5 -7.5q-23 0 -52 -0.5t-60 -0.5h-60t-52 1q-15 2 -32.5 6t-29.5 16q-10 10 -2.5 16.5t22 10t30 4.5t21.5 1z" />
    <glyph glyph-name="braceright" unicode="}" horiz-adv-x="258" 
d="M-23 51q34 23 46 52t19 62q10 57 37 108.5t77 93.5q-29 20 -33 48.5t4 64.5q7 30 18 65.5t18.5 68.5t8.5 59.5t-12 39.5q13 15 33 12q29 -6 37 -29t5 -55t-13.5 -68t-19.5 -67q-4 -14 -8 -31t-4 -33.5t5.5 -29.5t21.5 -19q35 -15 5 -44q-35 -32 -52.5 -58t-28 -52
t-19 -56.5t-24.5 -72.5q-8 -21 -22 -39.5t-30.5 -28t-34.5 -9t-34 17.5z" />
    <glyph glyph-name="braceleft" unicode="{" horiz-adv-x="200" 
d="M265 683q-17 -12 -28 -25t-18 -27t-11.5 -30t-7.5 -32q-10 -57 -37 -108.5t-77 -93.5q29 -20 33 -48.5t-4 -64.5q-7 -30 -18 -65.5t-18.5 -68.5t-8.5 -59.5t12 -39.5q-13 -15 -33 -12q-29 6 -37 29t-5 55t13.5 67.5t19.5 67.5q4 13 8 30.5t4 34t-5.5 29.5t-21.5 19
q-35 15 -5 44q34 32 52 58t28.5 52t19 56.5t24.5 72.5q8 21 22 39.5t30.5 28t34.5 8.5t34 -17z" />
    <glyph glyph-name="grave" unicode="`" horiz-adv-x="189" 
d="M136 470q-3 0 -6 1l-6 2q-33 14 -55.5 37.5t-43.5 48.5q-7 8 -3 14.5t16 9.5q24 8 40 -11q13 -16 26.5 -31t26.5 -32q2 -3 7.5 -12t9 -17t2 -12t-13.5 2z" />
    <glyph glyph-name="asciicircum" unicode="^" horiz-adv-x="170" 
d="M90 550q-5 -5 -10 -12.5t-10 -16t-10.5 -15t-11.5 -7.5q-19 -4 -26.5 1.5t6.5 22.5q9 12 19 29.5t18 28.5q9 14 19 18.5t26 1.5q15 -3 20.5 -12t7.5 -21q2 -14 5.5 -29t5.5 -30q1 -5 -1.5 -12t-7.5 -11q-7 -6 -15 -3.5t-13 8.5q-3 4 -6 12t-5.5 17t-5 17t-5.5 13z" />
    <glyph glyph-name="bar" unicode="|" horiz-adv-x="197" 
d="M224 635q-28 -128 -53.5 -247t-49.5 -238q-5 -20 -8.5 -41t-8.5 -41q-4 -13 -7 -26t-10 -20q-9 -9 -22 -18t-20 -6q-11 5 -18.5 20t-6.5 29q-2 30 0.5 60t7.5 60q17 83 35.5 165.5t35.5 166.5q8 43 14.5 84.5t11.5 84.5q4 20 10.5 34t24.5 19q19 6 35.5 5t30.5 -23
q3 -5 3.5 -13.5t-1.5 -17.5q0 -12 -1.5 -23t-2.5 -14z" />
    <glyph glyph-name="asciitilde" unicode="~" horiz-adv-x="336" 
d="M208 270q8 -1 17.5 7t18 18t16 18.5t12.5 8.5q26 2 31.5 -9t-3.5 -34q-10 -22 -30.5 -36t-44.5 -19.5t-49 -1t-44 19.5q-7 5 -17.5 13.5t-17.5 14.5q-19 -18 -36.5 -21t-36.5 23q33 58 77.5 54t106.5 -56z" />
    <glyph glyph-name="a" unicode="a" horiz-adv-x="314" 
d="M91 206q-13 -5 -21.5 -9t-16.5 -7q-11 -5 -21.5 -4t-21.5 4q-14 5 -22 15.5t-6 24.5q4 21 8 43t12 43q11 32 45 38q8 3 17 4.5t17 2.5q10 2 20 2t21 1q4 5 7.5 10.5t8.5 10.5q22 32 57 16q2 -2 5 -3.5t5 -3.5q15 -9 9 -27q-9 -19 -17.5 -43.5t-14 -50.5t-6.5 -50.5
t4 -43.5q0 -2 1 -3.5t2 -3.5q8 -6 23.5 -1.5t23.5 9.5q26 17 48 36.5t36 31.5q2 2 6 3.5t8 -0.5q8 -4 6.5 -13t-6.5 -14q-23 -26 -46 -51.5t-52 -46.5q-20 -15 -45 -20t-51 6q-17 7 -28 20t-13 33q0 8 -0.5 17.5t-1.5 23.5zM104 318q-27 7 -40 -12q-8 -11 -12 -23t-7 -26
q-3 -9 0.5 -10t9 1t11 5t6.5 4q34 17 32 61z" />
    <glyph glyph-name="b" unicode="b" horiz-adv-x="312" 
d="M47 145q-7 -4 -9.5 -12.5t-4.5 -15.5q-3 -17 -1 -34q0 -21 -9 -27t-20 -1.5t-20.5 16.5t-10.5 28q-1 18 5.5 58t19 91t28.5 108.5t34 111.5t36.5 99t35.5 71q6 9 22 9t31.5 -6.5t25 -18.5t2.5 -25q-20 -40 -48 -108t-57 -147q31 16 61.5 22t54.5 1.5t39.5 -19t17.5 -38.5
q1 -18 -2 -42.5t-11 -49.5t-20 -47t-27 -35q-19 -16 -39 -23t-38.5 -7t-36 5.5t-31.5 14.5q-6 5 -13 10t-15 11zM87 199q15 -32 34 -30.5t36.5 21.5t30.5 50t16 54q1 14 -7.5 14.5t-22.5 -7.5t-30.5 -21.5t-29.5 -29t-21 -29.5t-6 -22z" />
    <glyph glyph-name="c" unicode="c" horiz-adv-x="235" 
d="M245 212q1 -13 -7.5 -20.5t-21.5 -16.5q-26 -20 -54.5 -30.5t-59.5 -17.5q-23 -5 -40 3q-9 5 -18 8.5t-17 9.5q-14 10 -23.5 18.5t-14 18t-4.5 22t4 30.5q6 29 24.5 59t44 50t55 24.5t59.5 -17.5q5 -3 8 -7.5t7 -9.5q7 -11 2 -16t-16 -9q-5 -1 -13 -1q-24 -1 -45.5 -13.5
t-36 -31.5t-19.5 -42t4 -45q5 -8 13 -9.5t13 -0.5q31 6 58 20.5t56 30.5q14 10 25.5 10.5t16.5 -17.5z" />
    <glyph glyph-name="e" unicode="e" horiz-adv-x="295" 
d="M71 220q-2 -6 -2.5 -14.5t0 -17t3.5 -15.5t8 -11q10 -7 22 -4.5t21 7.5l22 10t21 11q29 20 57.5 39.5t61.5 30.5q15 4 19.5 -2t2.5 -16t-11 -20.5t-21 -15.5q-28 -11 -52 -25.5t-47 -32.5q-17 -14 -36.5 -20.5t-41.5 -10.5q-20 -2 -38 -2.5t-36 7.5q-28 11 -40 36.5
t-5 57.5q8 38 22 72.5t43 61.5q12 12 27 22t31.5 14.5t35 2t36.5 -16.5q22 -16 21 -45q-1 -9 -2 -17t-3 -17q-2 -24 -16.5 -33t-38.5 -15q-16 -4 -31.5 -10t-32.5 -11zM124 322q-18 -8 -24.5 -22.5t-8.5 -32.5q0 -2 2.5 -4.5t4.5 -2.5q0 -2 2 -2t2 2q17 12 23.5 26t-1.5 36z
" />
    <glyph glyph-name="tilde" unicode="&#x2dc;" horiz-adv-x="272" 
d="M164 551q6 0 12.5 5.5t12.5 12.5t11.5 13t9.5 6q18 2 22 -6t-3 -24q-7 -15 -21.5 -25.5t-31.5 -14t-34.5 -1t-31.5 13.5l-12.5 10l-12.5 10q-14 -13 -26 -15t-26 17q23 42 55 39t76 -41z" />
    <glyph glyph-name="Atilde" unicode="&#xc3;" horiz-adv-x="594" 
d="M323 257q-22 -30 -41.5 -58t-38.5 -57q-3 -3 -5 -7t-5 -7q-19 -15 -31.5 -34t-23.5 -39q-3 -6 -7 -11.5t-8 -10.5q-11 -11 -20 -21t-16 -24q-4 -8 -15 -6q-5 2 -8.5 7.5t-1.5 10.5q4 15 8.5 29.5t12.5 27.5l84 135q8 13 17 25.5t14 30.5h-24q-8 0 -17 -0.5t-18 -0.5
q-21 0 -35 11t-23 29q-4 8 -6.5 16.5t-4.5 16.5t4 16t14 10h14q42 3 83.5 5t83.5 5q2 0 11 3q25 38 49.5 76.5t48.5 76.5q19 30 35 61t26 66q5 14 13 26.5t15 26.5q2 4 8 6t11 3q20 1 35.5 -10.5t21.5 -29.5q3 -11 0 -21q-5 -20 -9 -39t-10 -38q-14 -51 -23.5 -102.5
t-21.5 -103.5q-2 -5 1.5 -10t10.5 -6q13 -2 26 -4.5t25 -7.5q20 -9 7 -28q-9 -14 -25 -17q-11 -2 -23 -4.5t-24 -3.5q-21 -4 -27 -26q-10 -37 -20 -73.5t-21 -74.5q-5 -20 -11.5 -40t-11.5 -40l-6 -24t-5 -23q-4 -17 -9.5 -33.5t-17.5 -30.5q-5 -7 -13.5 -6t-12.5 8
q-10 18 -14.5 37t-2.5 39l6 46t8 46q9 38 19 76t20 77q2 8 4 13q2 9 -2.5 14.5t-14.5 4.5q-28 -3 -62 -9zM437 411q-20 -7 -26.5 -22t-12.5 -32h29q4 14 7.5 27t2.5 27zM623 801q6 0 12.5 5.5t12.5 12.5t11.5 13t9.5 6q18 2 22 -6t-3 -24q-7 -15 -21.5 -25.5t-31.5 -14
t-34.5 -1t-31.5 13.5l-12.5 10l-12.5 10q-14 -13 -26 -15t-26 17q23 42 55 39t76 -41z" />
    <glyph glyph-name="atilde" unicode="&#xe3;" 
d="M50 206q-13 -5 -21.5 -9t-16.5 -7q-11 -5 -21.5 -4t-21.5 4q-14 5 -22 15.5t-6 24.5q4 21 8 43t12 43q11 32 45 38q8 3 17 4.5t17 2.5q10 2 20 2t21 1q4 5 7.5 10.5t8.5 10.5q22 32 57 16q2 -2 5 -3.5t5 -3.5q15 -9 9 -27q-9 -19 -17.5 -43.5t-14 -50.5t-6.5 -50.5
t4 -43.5q0 -2 1 -3.5t2 -3.5q8 -6 23.5 -1.5t23.5 9.5q26 17 48 36.5t36 31.5q2 2 6 3.5t8 -0.5q8 -4 6.5 -13t-6.5 -14q-23 -26 -46 -51.5t-52 -46.5q-20 -15 -45 -20t-51 6q-17 7 -28 20t-13 33q0 8 -0.5 17.5t-1.5 23.5zM63 318q-27 7 -40 -12q-8 -11 -12 -23t-7 -26
q-3 -9 0.5 -10t9 1t11 5t6.5 4q34 17 32 61zM185 482q6 0 12.5 5.5t12.5 12.5t11.5 13t9.5 6q18 2 22 -6t-3 -24q-7 -15 -21.5 -25.5t-31.5 -14t-34.5 -1t-31.5 13.5l-12.5 10l-12.5 10q-14 -13 -26 -15t-26 17q23 42 55 39t76 -41z" />
    <glyph glyph-name="Ntilde" unicode="&#xd1;" horiz-adv-x="611" 
d="M443 476q-46 -46 -89 -99.5t-80 -114t-66 -128.5t-47 -142q-8 -17 -26 -12t-34.5 25.5t-24.5 51.5t5 66q18 51 41 105.5t47 110t46.5 110.5t39.5 106q2 6 4 13t4 17q-6 9 -25 -1.5t-44 -33.5t-52 -55t-49 -65t-35 -63.5t-10 -50.5q-5 -16 -20.5 -16t-31 10t-26 25.5
t-7.5 29.5q15 58 48.5 111t76.5 94.5t91.5 66.5t93.5 27q47 -8 62.5 -30.5t8.5 -68.5q-2 -10 -12.5 -32.5t-21.5 -47.5t-20 -48.5t-9 -35.5q4 5 16.5 22.5t27 37.5t27.5 37.5t19 22.5q36 41 71.5 81.5t74.5 78.5q18 17 44.5 18.5t50.5 -8t39.5 -28.5t11.5 -44
q-12 -62 -34.5 -120t-49 -114.5t-52 -113t-43.5 -114.5q-18 -62 -26 -104.5t-9.5 -70.5t3 -44.5t12 -26t16.5 -15t17 -12.5q6 -6 4.5 -9t-7.5 -5t-14 -2.5t-15 -0.5q-32 7 -51 26.5t-28.5 46t-10.5 57.5t3 63t11.5 62t15.5 53q29 88 60.5 175.5t61.5 175.5q11 29 11 39
t-7 6.5t-19 -16t-25 -28t-25 -30t-19 -21.5zM465 781q6 0 12.5 5.5t12.5 12.5t11.5 13t9.5 6q18 2 22 -6t-3 -24q-7 -15 -21.5 -25.5t-31.5 -14t-34.5 -1t-31.5 13.5l-12.5 10l-12.5 10q-14 -13 -26 -15t-26 17q23 42 55 39t76 -41z" />
    <glyph glyph-name="ntilde" unicode="&#xf1;" horiz-adv-x="213" 
d="M57 246q-11 9 -26.5 -1.5t-33.5 -31.5t-35.5 -47.5t-30.5 -50.5q-2 -6 -7 -9t-10 -5q-10 -4 -21 2t-13 18q-2 17 0 33q3 12 6.5 25t9.5 25q19 45 39.5 95.5t40.5 95.5q17 8 31 7t27 -15q5 -6 7 -13t0 -18q-3 -9 -10 -24t-5 -25q8 -7 16.5 0.5t14.5 11.5q29 11 49 -9
q6 -6 10 -12.5t4 -15.5q-3 -23 -8.5 -46.5t-2.5 -44.5q19 10 34.5 23.5t30.5 25.5q10 8 18.5 14.5t16.5 12.5q8 5 15.5 -1.5t6.5 -14.5q-2 -9 -4.5 -17.5t-10.5 -15.5t-15 -14l-14 -14q-16 -12 -30.5 -24t-29.5 -24q-5 -5 -12.5 -8.5t-14.5 -7.5q-16 -8 -31 0.5t-19 26.5
t-1 43q0 6 1.5 11t2.5 13q2 5 2 10t2 16zM156 482q6 0 12.5 5.5t12.5 12.5t11.5 13t9.5 6q18 2 22 -6t-3 -24q-7 -15 -21.5 -25.5t-31.5 -14t-34.5 -1t-31.5 13.5l-12.5 10l-12.5 10q-14 -13 -26 -15t-26 17q23 42 55 39t76 -41z" />
    <glyph glyph-name="Otilde" unicode="&#xd5;" horiz-adv-x="525" 
d="M30 167q16 61 33 127t39 127.5t51 114.5t68.5 88.5t92 48.5t121.5 -5q47 -21 78 -54t39 -90q5 -32 -2.5 -62.5t-18.5 -57.5q-22 -57 -53.5 -110.5t-70 -103t-82 -92.5t-88.5 -79q-18 -11 -39.5 -18t-43 -8.5t-43 2t-39.5 13.5q-30 18 -41 53t-1 106zM169 308q-2 0 -5 2
t-5 2q-11 -29 -21.5 -56.5t-16.5 -55.5q-15 -59 -21 -123q-2 -29 12 -39t41 4q18 13 36.5 25t33.5 26q55 60 96.5 106.5t71 91t49.5 93t34 111.5q6 31 8.5 57t-16.5 52q-20 23 -51 28.5t-57 -9.5q-18 -11 -29.5 -25.5t-20 -31t-15 -35t-12.5 -39.5q-24 -74 -35 -151
t-19 -155q-1 -5 -1.5 -11.5t-2 -12t-5 -9t-10.5 -3.5q-8 1 -18.5 9.5t-10.5 16.5q-8 24 -9.5 46.5t-3.5 46.5q-1 10 0 19.5t3 19.5zM477 774q6 0 12.5 5.5t12.5 12.5t11.5 13t9.5 6q18 2 22 -6t-3 -24q-7 -15 -21.5 -25.5t-31.5 -14t-34.5 -1t-31.5 13.5l-12.5 10l-12.5 10
q-14 -13 -26 -15t-26 17q23 42 55 39t76 -41z" />
    <glyph glyph-name="circumflex" unicode="&#x2c6;" horiz-adv-x="188" 
d="M94 530q-5 -5 -10 -12.5t-10 -16t-10.5 -15t-11.5 -7.5q-19 -4 -26.5 1.5t6.5 22.5q9 12 19 29.5t18 28.5q9 14 19 18.5t26 1.5q15 -3 20.5 -12t7.5 -21q2 -14 5.5 -29t5.5 -30q1 -5 -1.5 -12t-7.5 -11q-7 -6 -15 -3.5t-13 8.5q-3 4 -6 12t-5.5 17t-5 17t-5.5 13z" />
    <glyph glyph-name="Acircumflex" unicode="&#xc2;" horiz-adv-x="594" 
d="M323 257q-22 -30 -41.5 -58t-38.5 -57q-3 -3 -5 -7t-5 -7q-19 -15 -31.5 -34t-23.5 -39q-3 -6 -7 -11.5t-8 -10.5q-11 -11 -20 -21t-16 -24q-4 -8 -15 -6q-5 2 -8.5 7.5t-1.5 10.5q4 15 8.5 29.5t12.5 27.5l84 135q8 13 17 25.5t14 30.5h-24q-8 0 -17 -0.5t-18 -0.5
q-21 0 -35 11t-23 29q-4 8 -6.5 16.5t-4.5 16.5t4 16t14 10h14q42 3 83.5 5t83.5 5q2 0 11 3q25 38 49.5 76.5t48.5 76.5q19 30 35 61t26 66q5 14 13 26.5t15 26.5q2 4 8 6t11 3q20 1 35.5 -10.5t21.5 -29.5q3 -11 0 -21q-5 -20 -9 -39t-10 -38q-14 -51 -23.5 -102.5
t-21.5 -103.5q-2 -5 1.5 -10t10.5 -6q13 -2 26 -4.5t25 -7.5q20 -9 7 -28q-9 -14 -25 -17q-11 -2 -23 -4.5t-24 -3.5q-21 -4 -27 -26q-10 -37 -20 -73.5t-21 -74.5q-5 -20 -11.5 -40t-11.5 -40l-6 -24t-5 -23q-4 -17 -9.5 -33.5t-17.5 -30.5q-5 -7 -13.5 -6t-12.5 8
q-10 18 -14.5 37t-2.5 39l6 46t8 46q9 38 19 76t20 77q2 8 4 13q2 9 -2.5 14.5t-14.5 4.5q-28 -3 -62 -9zM437 411q-20 -7 -26.5 -22t-12.5 -32h29q4 14 7.5 27t2.5 27zM568 817q-5 -5 -10 -12.5t-10 -16t-10.5 -15t-11.5 -7.5q-19 -4 -26.5 1.5t6.5 22.5q9 12 19 29.5
t18 28.5q9 14 19 18.5t26 1.5q15 -3 20.5 -12t7.5 -21q2 -14 5.5 -29t5.5 -30q1 -5 -1.5 -12t-7.5 -11q-7 -6 -15 -3.5t-13 8.5q-3 4 -6 12t-5.5 17t-5 17t-5.5 13z" />
    <glyph glyph-name="acircumflex" unicode="&#xe2;" 
d="M50 206q-13 -5 -21.5 -9t-16.5 -7q-11 -5 -21.5 -4t-21.5 4q-14 5 -22 15.5t-6 24.5q4 21 8 43t12 43q11 32 45 38q8 3 17 4.5t17 2.5q10 2 20 2t21 1q4 5 7.5 10.5t8.5 10.5q22 32 57 16q2 -2 5 -3.5t5 -3.5q15 -9 9 -27q-9 -19 -17.5 -43.5t-14 -50.5t-6.5 -50.5
t4 -43.5q0 -2 1 -3.5t2 -3.5q8 -6 23.5 -1.5t23.5 9.5q26 17 48 36.5t36 31.5q2 2 6 3.5t8 -0.5q8 -4 6.5 -13t-6.5 -14q-23 -26 -46 -51.5t-52 -46.5q-20 -15 -45 -20t-51 6q-17 7 -28 20t-13 33q0 8 -0.5 17.5t-1.5 23.5zM63 318q-27 7 -40 -12q-8 -11 -12 -23t-7 -26
q-3 -9 0.5 -10t9 1t11 5t6.5 4q34 17 32 61zM144 530q-5 -5 -10 -12.5t-10 -16t-10.5 -15t-11.5 -7.5q-19 -4 -26.5 1.5t6.5 22.5q9 12 19 29.5t18 28.5q9 14 19 18.5t26 1.5q15 -3 20.5 -12t7.5 -21q2 -14 5.5 -29t5.5 -30q1 -5 -1.5 -12t-7.5 -11q-7 -6 -15 -3.5t-13 8.5
q-3 4 -6 12t-5.5 17t-5 17t-5.5 13z" />
    <glyph glyph-name="Ecircumflex" unicode="&#xca;" horiz-adv-x="543" 
d="M317 357q-4 -5 -7 -9t-5 -9q-13 -36 -32 -67.5t-36 -65.5q-8 -17 -15 -33.5t-13 -33.5q8 -3 15 -1t15 4q75 20 154 21q23 1 46.5 -3.5t46.5 -11.5q13 -5 19 -15t8 -24q1 -5 -2 -10t-8 -6q-10 -1 -20 -3t-20 -1q-32 2 -64.5 -0.5t-64.5 -7.5q-38 -6 -75.5 -16t-74.5 -26
q-29 -13 -57.5 -25t-57.5 -27q-17 -10 -33 -2.5t-22 27.5q-3 17 7 26q7 7 15 12.5t16 10.5q13 8 25 14.5t26 14.5q12 29 24.5 57.5t26.5 57.5q14 32 29.5 62t30.5 61q1 3 -1 13q-13 -2 -25 -3.5t-24 -3.5q-21 -1 -31 21q-3 7 -2 14t8 10q8 4 16 7t16 5q20 6 40 11t42 10
q17 33 31.5 68.5t28.5 70.5q2 4 1.5 8.5t0.5 10.5q-6 0 -11.5 0.5t-10.5 -0.5q-5 0 -9.5 -0.5t-9.5 -1.5q-23 -2 -35 6.5t-20 31.5q-2 7 -3 12q-3 15 0.5 22t17.5 12q78 25 159 33q42 4 82 6.5t80 4.5q2 1 4 1q44 6 59 -47q2 -5 2 -9.5v-9.5q2 -17 -3 -23.5t-21 -7.5
q-26 -1 -51.5 -1t-51.5 -1q-46 -2 -92 -9q-7 -22 -13.5 -43.5t-14.5 -42.5q-8 -20 -16.5 -40.5t-14.5 -41.5q6 -8 14.5 -9t16.5 -3q11 -3 22 -6.5t22 -11.5q2 -2 3.5 -4.5t0.5 -5.5q-1 -6 -7 -13q-1 -2 -2.5 -2t-3.5 -1q-10 -2 -19 -3.5t-18 -2.5q-14 -2 -26.5 -2h-27.5z
M438 842q-5 -5 -10 -12.5t-10 -16t-10.5 -15t-11.5 -7.5q-19 -4 -26.5 1.5t6.5 22.5q9 12 19 29.5t18 28.5q9 14 19 18.5t26 1.5q15 -3 20.5 -12t7.5 -21q2 -14 5.5 -29t5.5 -30q1 -5 -1.5 -12t-7.5 -11q-7 -6 -15 -3.5t-13 8.5q-3 4 -6 12t-5.5 17t-5 17t-5.5 13z" />
    <glyph glyph-name="ecircumflex" unicode="&#xea;" horiz-adv-x="167" 
d="M-64 220q-2 -6 -2.5 -14.5t0 -17t3.5 -15.5t8 -11q10 -7 22 -4.5t21 7.5l22 10t21 11q29 20 57.5 39.5t61.5 30.5q15 4 19.5 -2t2.5 -16t-11 -20.5t-21 -15.5q-28 -11 -52 -25.5t-47 -32.5q-17 -14 -36.5 -20.5t-41.5 -10.5q-20 -2 -38 -2.5t-36 7.5q-28 11 -40 36.5
t-5 57.5q8 38 22 72.5t43 61.5q12 12 27 22t31.5 14.5t35 2t36.5 -16.5q22 -16 21 -45q-1 -9 -2 -17t-3 -17q-2 -24 -16.5 -33t-38.5 -15q-16 -4 -31.5 -10t-32.5 -11zM-11 322q-18 -8 -24.5 -22.5t-8.5 -32.5q0 -2 2.5 -4.5t4.5 -2.5q0 -2 2 -2t2 2q17 12 23.5 26t-1.5 36z
M30 505q-5 -5 -10 -12.5t-10 -16t-10.5 -15t-11.5 -7.5q-19 -4 -26.5 1.5t6.5 22.5q9 12 19 29.5t18 28.5q9 14 19 18.5t26 1.5q15 -3 20.5 -12t7.5 -21q2 -14 5.5 -29t5.5 -30q1 -5 -1.5 -12t-7.5 -11q-7 -6 -15 -3.5t-13 8.5q-3 4 -6 12t-5.5 17t-5 17t-5.5 13z" />
    <glyph glyph-name="icircumflex" unicode="&#xee;" horiz-adv-x="157" 
d="M178 273q-3 2 -7 3t-9 -1q-5 0 -11 -3t-11 -6q-12 -10 -24.5 -18.5t-24.5 -17.5q-4 -3 -12.5 -10t-16.5 -12.5t-12.5 -6.5t-0.5 10q8 23 20.5 52t21.5 53q4 11 7 18t-4 13q-9 10 -19.5 12.5t-22.5 4.5q-10 2 -21 1t-18 -12q-13 -41 -28 -79t-26 -81q-2 -9 -1.5 -18
t0.5 -17q1 -11 5 -19t12 -16q17 -11 36 -8q17 0 24 13q1 2 14 13.5t28.5 25.5t30 26.5t19.5 16.5q14 13 26 25t25 24q2 4 3 8t-3 6zM114 564q-5 -5 -10 -12.5t-10 -16t-10.5 -15t-11.5 -7.5q-19 -4 -26.5 1.5t6.5 22.5q9 12 19 29.5t18 28.5q9 14 19 18.5t26 1.5
q15 -3 20.5 -12t7.5 -21q2 -14 5.5 -29t5.5 -30q1 -5 -1.5 -12t-7.5 -11q-7 -6 -15 -3.5t-13 8.5q-3 4 -6 12t-5.5 17t-5 17t-5.5 13z" />
    <glyph glyph-name="Icircumflex" unicode="&#xce;" horiz-adv-x="400" 
d="M104 626q6 0 12 1t13 1q20 -2 39.5 2.5t36.5 10.5q32 13 63 24.5t62 23.5q13 4 25 7t26 7q14 6 25 -0.5t19 -17.5q-2 -9 -6.5 -14.5t-11.5 -10.5q-18 -8 -34.5 -16t-32.5 -16q-19 -10 -19 -25q-1 -24 -7.5 -47t-12.5 -46q-8 -33 -15 -65l-14 -64q-7 -24 -15 -47.5
t-16 -48.5q-11 -45 -24.5 -88.5t-24.5 -88.5q-2 -4 -2 -17q5 0 9.5 -1.5t9.5 0.5q13 0 24.5 2.5t24.5 2.5q17 2 32.5 3t32.5 -1q37 0 58 -26q6 -8 6 -16q0 -5 -5.5 -10t-12.5 -5q-5 -2 -9 -2h-9q-43 6 -83 -1t-80 -18q-12 -5 -22.5 -7.5t-19.5 -7.5q-18 -5 -34.5 -8
t-35.5 -7q-17 -5 -32 -0.5t-30 11.5q-8 3 -13 10q-10 8 -7 18.5t14 13.5q17 3 32 6.5t32 6.5q12 2 18 8.5t9 17.5q13 71 35 140t42 138q14 52 27.5 102.5t22.5 101.5q2 5 2 7.5v6.5q-6 5 -13.5 5t-13.5 -1q-15 -5 -30.5 -2.5t-29.5 3.5q-8 0 -15 3.5t-12 7.5
q-8 5 -11.5 13.5t1.5 19.5zM317 816q-5 -5 -10 -12.5t-10 -16t-10.5 -15t-11.5 -7.5q-19 -4 -26.5 1.5t6.5 22.5q9 12 19 29.5t18 28.5q9 14 19 18.5t26 1.5q15 -3 20.5 -12t7.5 -21q2 -14 5.5 -29t5.5 -30q1 -5 -1.5 -12t-7.5 -11q-7 -6 -15 -3.5t-13 8.5q-3 4 -6 12
t-5.5 17t-5 17t-5.5 13z" />
    <glyph glyph-name="Ocircumflex" unicode="&#xd4;" horiz-adv-x="525" 
d="M30 167q16 61 33 127t39 127.5t51 114.5t68.5 88.5t92 48.5t121.5 -5q47 -21 78 -54t39 -90q5 -32 -2.5 -62.5t-18.5 -57.5q-22 -57 -53.5 -110.5t-70 -103t-82 -92.5t-88.5 -79q-18 -11 -39.5 -18t-43 -8.5t-43 2t-39.5 13.5q-30 18 -41 53t-1 106zM169 308q-2 0 -5 2
t-5 2q-11 -29 -21.5 -56.5t-16.5 -55.5q-15 -59 -21 -123q-2 -29 12 -39t41 4q18 13 36.5 25t33.5 26q55 60 96.5 106.5t71 91t49.5 93t34 111.5q6 31 8.5 57t-16.5 52q-20 23 -51 28.5t-57 -9.5q-18 -11 -29.5 -25.5t-20 -31t-15 -35t-12.5 -39.5q-24 -74 -35 -151
t-19 -155q-1 -5 -1.5 -11.5t-2 -12t-5 -9t-10.5 -3.5q-8 1 -18.5 9.5t-10.5 16.5q-8 24 -9.5 46.5t-3.5 46.5q-1 10 0 19.5t3 19.5zM458 800q-5 -5 -10 -12.5t-10 -16t-10.5 -15t-11.5 -7.5q-19 -4 -26.5 1.5t6.5 22.5q9 12 19 29.5t18 28.5q9 14 19 18.5t26 1.5
q15 -3 20.5 -12t7.5 -21q2 -14 5.5 -29t5.5 -30q1 -5 -1.5 -12t-7.5 -11q-7 -6 -15 -3.5t-13 8.5q-3 4 -6 12t-5.5 17t-5 17t-5.5 13z" />
    <glyph glyph-name="ocircumflex" unicode="&#xf4;" horiz-adv-x="178" 
d="M129 243q-17 -37 -41.5 -59t-53.5 -45q-9 -6 -18.5 -11.5t-20.5 -10.5q-22 -11 -48.5 -3t-42.5 30q-14 22 -11 41.5t10 40.5q16 35 34.5 68t43.5 62q15 15 30 27q17 14 36 4q5 -2 8.5 -5.5t7.5 -4.5q58 -11 74 -75q8 -1 17 -1t17 -2l16 -4t15 -6q10 -3 8 -12t-8 -13
q-11 -8 -23.5 -10.5t-25.5 -5.5q-6 -2 -12 -2.5t-12 -2.5zM51 244q-17 14 -32.5 11t-27 -15.5t-19 -29t-8.5 -29.5q-1 -14 12 -9t29.5 18t31 29t14.5 25zM60 327l-2.5 -5t-0.5 -1.5t-0.5 -1.5l-2.5 -5t-1.5 -9t7.5 -9q19 -2 25.5 9t4.5 21.5t-10.5 14t-19.5 -13.5zM122 505
q-5 -5 -10 -12.5t-10 -16t-10.5 -15t-11.5 -7.5q-19 -4 -26.5 1.5t6.5 22.5q9 12 19 29.5t18 28.5q9 14 19 18.5t26 1.5q15 -3 20.5 -12t7.5 -21q2 -14 5.5 -29t5.5 -30q1 -5 -1.5 -12t-7.5 -11q-7 -6 -15 -3.5t-13 8.5q-3 4 -6 12t-5.5 17t-5 17t-5.5 13z" />
    <glyph glyph-name="Ucircumflex" unicode="&#xdb;" horiz-adv-x="695" 
d="M246 102q13 4 37 27.5t54 58.5t63 79t65.5 89t62 88t51.5 77q9 18 17.5 39.5t16.5 44.5q0 13 -1 26.5t0.5 25.5t7.5 23t20 20q12 8 24 13q17 1 31 -4.5t22.5 -15.5t11 -24t-2.5 -30q-28 -81 -56.5 -163t-56.5 -165q-24 -68 -49.5 -134t-49.5 -134q-9 -26 -15.5 -54.5
t-12.5 -55.5q-2 -6 -3.5 -11.5t-4.5 -10t-7.5 -7.5t-13.5 -4q-17 0 -28.5 6.5t-13.5 23.5q-8 39 -1 77t19 75.5t26 74.5t21 75q2 6 3.5 12.5t-0.5 11.5q-10 -11 -23 -29.5t-27.5 -38t-28 -37.5t-23.5 -29q-17 -15 -31.5 -28.5t-33.5 -26.5q-29 -19 -59.5 -18t-62.5 16
q-30 17 -44 39.5t-10 55.5q3 18 10 43.5t15 52.5t16 53t14 45q13 55 31.5 111t35.5 110q2 4 2.5 8t2.5 8q10 23 21.5 28.5t30.5 -0.5q26 -9 31.5 -20.5t-2.5 -33.5q-12 -42 -27.5 -90.5t-31 -99t-30.5 -99t-26 -90.5q0 -9 -3 -21t-4 -24t3 -22.5t17 -16.5zM502 787
q-5 -5 -10 -12.5t-10 -16t-10.5 -15t-11.5 -7.5q-19 -4 -26.5 1.5t6.5 22.5q9 12 19 29.5t18 28.5q9 14 19 18.5t26 1.5q15 -3 20.5 -12t7.5 -21q2 -14 5.5 -29t5.5 -30q1 -5 -1.5 -12t-7.5 -11q-7 -6 -15 -3.5t-13 8.5q-3 4 -6 12t-5.5 17t-5 17t-5.5 13z" />
    <glyph glyph-name="ucircumflex" unicode="&#xfb;" horiz-adv-x="289" 
d="M125 240q-10 -16 -24.5 -31.5t-31 -26.5t-34 -16.5t-33.5 -0.5q-29 8 -37 26.5t0 50.5q10 31 19 60.5t19 58.5q17 41 40 41q19 0 32 -10.5t5 -21.5q-7 -10 -17.5 -29.5t-19.5 -40.5t-14.5 -38t-2.5 -23q11 -9 25.5 -2.5t22.5 15.5q5 6 14.5 17.5t19.5 24.5l20 26t16 24
q9 16 17.5 26.5t22.5 -1.5q13 -13 21 -26t0 -37q-6 -17 -11.5 -36t-8.5 -39q-2 -15 -1.5 -31t0.5 -42q16 9 30.5 20t26 21t20 18.5t11.5 12.5q7 7 14 6.5t9.5 -6.5t-2.5 -18t-21 -28q-8 -8 -22.5 -21.5t-31 -26t-32.5 -21.5t-27 -9q-25 1 -33.5 11.5t-10.5 39.5
q-1 18 3 39.5t7 43.5zM152 530q-5 -5 -10 -12.5t-10 -16t-10.5 -15t-11.5 -7.5q-19 -4 -26.5 1.5t6.5 22.5q9 12 19 29.5t18 28.5q9 14 19 18.5t26 1.5q15 -3 20.5 -12t7.5 -21q2 -14 5.5 -29t5.5 -30q1 -5 -1.5 -12t-7.5 -11q-7 -6 -15 -3.5t-13 8.5q-3 4 -6 12t-5.5 17
t-5 17t-5.5 13z" />
    <glyph glyph-name="dieresis" unicode="&#xa8;" horiz-adv-x="314" 
d="M51 581q4 15 18 20t28 -3q9 -5 17.5 -9.5t7.5 -16.5q-2 -11 -13.5 -21.5t-22.5 -10.5q-27 -2 -34.5 6.5t-0.5 34.5zM190 581q4 15 18 20t28 -3q9 -5 17.5 -9.5t7.5 -16.5q-2 -11 -13.5 -21.5t-22.5 -10.5q-27 -2 -34.5 6.5t-0.5 34.5z" />
    <glyph glyph-name="Adieresis" unicode="&#xc4;" horiz-adv-x="594" 
d="M323 257q-22 -30 -41.5 -58t-38.5 -57q-3 -3 -5 -7t-5 -7q-19 -15 -31.5 -34t-23.5 -39q-3 -6 -7 -11.5t-8 -10.5q-11 -11 -20 -21t-16 -24q-4 -8 -15 -6q-5 2 -8.5 7.5t-1.5 10.5q4 15 8.5 29.5t12.5 27.5l84 135q8 13 17 25.5t14 30.5h-24q-8 0 -17 -0.5t-18 -0.5
q-21 0 -35 11t-23 29q-4 8 -6.5 16.5t-4.5 16.5t4 16t14 10h14q42 3 83.5 5t83.5 5q2 0 11 3q25 38 49.5 76.5t48.5 76.5q19 30 35 61t26 66q5 14 13 26.5t15 26.5q2 4 8 6t11 3q20 1 35.5 -10.5t21.5 -29.5q3 -11 0 -21q-5 -20 -9 -39t-10 -38q-14 -51 -23.5 -102.5
t-21.5 -103.5q-2 -5 1.5 -10t10.5 -6q13 -2 26 -4.5t25 -7.5q20 -9 7 -28q-9 -14 -25 -17q-11 -2 -23 -4.5t-24 -3.5q-21 -4 -27 -26q-10 -37 -20 -73.5t-21 -74.5q-5 -20 -11.5 -40t-11.5 -40l-6 -24t-5 -23q-4 -17 -9.5 -33.5t-17.5 -30.5q-5 -7 -13.5 -6t-12.5 8
q-10 18 -14.5 37t-2.5 39l6 46t8 46q9 38 19 76t20 77q2 8 4 13q2 9 -2.5 14.5t-14.5 4.5q-28 -3 -62 -9zM437 411q-20 -7 -26.5 -22t-12.5 -32h29q4 14 7.5 27t2.5 27zM465 792q4 15 18 20t28 -3q9 -5 17.5 -9.5t7.5 -16.5q-2 -11 -13.5 -21.5t-22.5 -10.5
q-27 -2 -34.5 6.5t-0.5 34.5zM604 792q4 15 18 20t28 -3q9 -5 17.5 -9.5t7.5 -16.5q-2 -11 -13.5 -21.5t-22.5 -10.5q-27 -2 -34.5 6.5t-0.5 34.5z" />
    <glyph glyph-name="adieresis" unicode="&#xe4;" 
d="M50 206q-13 -5 -21.5 -9t-16.5 -7q-11 -5 -21.5 -4t-21.5 4q-14 5 -22 15.5t-6 24.5q4 21 8 43t12 43q11 32 45 38q8 3 17 4.5t17 2.5q10 2 20 2t21 1q4 5 7.5 10.5t8.5 10.5q22 32 57 16q2 -2 5 -3.5t5 -3.5q15 -9 9 -27q-9 -19 -17.5 -43.5t-14 -50.5t-6.5 -50.5
t4 -43.5q0 -2 1 -3.5t2 -3.5q8 -6 23.5 -1.5t23.5 9.5q26 17 48 36.5t36 31.5q2 2 6 3.5t8 -0.5q8 -4 6.5 -13t-6.5 -14q-23 -26 -46 -51.5t-52 -46.5q-20 -15 -45 -20t-51 6q-17 7 -28 20t-13 33q0 8 -0.5 17.5t-1.5 23.5zM63 318q-27 7 -40 -12q-8 -11 -12 -23t-7 -26
q-3 -9 0.5 -10t9 1t11 5t6.5 4q34 17 32 61zM33 502q4 15 18 20t28 -3q9 -5 17.5 -9.5t7.5 -16.5q-2 -11 -13.5 -21.5t-22.5 -10.5q-27 -2 -34.5 6.5t-0.5 34.5zM172 502q4 15 18 20t28 -3q9 -5 17.5 -9.5t7.5 -16.5q-2 -11 -13.5 -21.5t-22.5 -10.5q-27 -2 -34.5 6.5
t-0.5 34.5z" />
    <glyph glyph-name="Edieresis" unicode="&#xcb;" horiz-adv-x="543" 
d="M317 357q-4 -5 -7 -9t-5 -9q-13 -36 -32 -67.5t-36 -65.5q-8 -17 -15 -33.5t-13 -33.5q8 -3 15 -1t15 4q75 20 154 21q23 1 46.5 -3.5t46.5 -11.5q13 -5 19 -15t8 -24q1 -5 -2 -10t-8 -6q-10 -1 -20 -3t-20 -1q-32 2 -64.5 -0.5t-64.5 -7.5q-38 -6 -75.5 -16t-74.5 -26
q-29 -13 -57.5 -25t-57.5 -27q-17 -10 -33 -2.5t-22 27.5q-3 17 7 26q7 7 15 12.5t16 10.5q13 8 25 14.5t26 14.5q12 29 24.5 57.5t26.5 57.5q14 32 29.5 62t30.5 61q1 3 -1 13q-13 -2 -25 -3.5t-24 -3.5q-21 -1 -31 21q-3 7 -2 14t8 10q8 4 16 7t16 5q20 6 40 11t42 10
q17 33 31.5 68.5t28.5 70.5q2 4 1.5 8.5t0.5 10.5q-6 0 -11.5 0.5t-10.5 -0.5q-5 0 -9.5 -0.5t-9.5 -1.5q-23 -2 -35 6.5t-20 31.5q-2 7 -3 12q-3 15 0.5 22t17.5 12q78 25 159 33q42 4 82 6.5t80 4.5q2 1 4 1q44 6 59 -47q2 -5 2 -9.5v-9.5q2 -17 -3 -23.5t-21 -7.5
q-26 -1 -51.5 -1t-51.5 -1q-46 -2 -92 -9q-7 -22 -13.5 -43.5t-14.5 -42.5q-8 -20 -16.5 -40.5t-14.5 -41.5q6 -8 14.5 -9t16.5 -3q11 -3 22 -6.5t22 -11.5q2 -2 3.5 -4.5t0.5 -5.5q-1 -6 -7 -13q-1 -2 -2.5 -2t-3.5 -1q-10 -2 -19 -3.5t-18 -2.5q-14 -2 -26.5 -2h-27.5z
M349 788q4 15 18 20t28 -3q9 -5 17.5 -9.5t7.5 -16.5q-2 -11 -13.5 -21.5t-22.5 -10.5q-27 -2 -34.5 6.5t-0.5 34.5zM488 788q4 15 18 20t28 -3q9 -5 17.5 -9.5t7.5 -16.5q-2 -11 -13.5 -21.5t-22.5 -10.5q-27 -2 -34.5 6.5t-0.5 34.5z" />
    <glyph glyph-name="edieresis" unicode="&#xeb;" horiz-adv-x="167" 
d="M-64 220q-2 -6 -2.5 -14.5t0 -17t3.5 -15.5t8 -11q10 -7 22 -4.5t21 7.5l22 10t21 11q29 20 57.5 39.5t61.5 30.5q15 4 19.5 -2t2.5 -16t-11 -20.5t-21 -15.5q-28 -11 -52 -25.5t-47 -32.5q-17 -14 -36.5 -20.5t-41.5 -10.5q-20 -2 -38 -2.5t-36 7.5q-28 11 -40 36.5
t-5 57.5q8 38 22 72.5t43 61.5q12 12 27 22t31.5 14.5t35 2t36.5 -16.5q22 -16 21 -45q-1 -9 -2 -17t-3 -17q-2 -24 -16.5 -33t-38.5 -15q-16 -4 -31.5 -10t-32.5 -11zM-11 322q-18 -8 -24.5 -22.5t-8.5 -32.5q0 -2 2.5 -4.5t4.5 -2.5q0 -2 2 -2t2 2q17 12 23.5 26t-1.5 36z
M-80 490q4 15 18 20t28 -3q9 -5 17.5 -9.5t7.5 -16.5q-2 -11 -13.5 -21.5t-22.5 -10.5q-27 -2 -34.5 6.5t-0.5 34.5zM59 490q4 15 18 20t28 -3q9 -5 17.5 -9.5t7.5 -16.5q-2 -11 -13.5 -21.5t-22.5 -10.5q-27 -2 -34.5 6.5t-0.5 34.5z" />
    <glyph glyph-name="Idieresis" unicode="&#xcf;" horiz-adv-x="400" 
d="M104 626q6 0 12 1t13 1q20 -2 39.5 2.5t36.5 10.5q32 13 63 24.5t62 23.5q13 4 25 7t26 7q14 6 25 -0.5t19 -17.5q-2 -9 -6.5 -14.5t-11.5 -10.5q-18 -8 -34.5 -16t-32.5 -16q-19 -10 -19 -25q-1 -24 -7.5 -47t-12.5 -46q-8 -33 -15 -65l-14 -64q-7 -24 -15 -47.5
t-16 -48.5q-11 -45 -24.5 -88.5t-24.5 -88.5q-2 -4 -2 -17q5 0 9.5 -1.5t9.5 0.5q13 0 24.5 2.5t24.5 2.5q17 2 32.5 3t32.5 -1q37 0 58 -26q6 -8 6 -16q0 -5 -5.5 -10t-12.5 -5q-5 -2 -9 -2h-9q-43 6 -83 -1t-80 -18q-12 -5 -22.5 -7.5t-19.5 -7.5q-18 -5 -34.5 -8
t-35.5 -7q-17 -5 -32 -0.5t-30 11.5q-8 3 -13 10q-10 8 -7 18.5t14 13.5q17 3 32 6.5t32 6.5q12 2 18 8.5t9 17.5q13 71 35 140t42 138q14 52 27.5 102.5t22.5 101.5q2 5 2 7.5v6.5q-6 5 -13.5 5t-13.5 -1q-15 -5 -30.5 -2.5t-29.5 3.5q-8 0 -15 3.5t-12 7.5
q-8 5 -11.5 13.5t1.5 19.5zM244 798q4 15 18 20t28 -3q9 -5 17.5 -9.5t7.5 -16.5q-2 -11 -13.5 -21.5t-22.5 -10.5q-27 -2 -34.5 6.5t-0.5 34.5zM383 798q4 15 18 20t28 -3q9 -5 17.5 -9.5t7.5 -16.5q-2 -11 -13.5 -21.5t-22.5 -10.5q-27 -2 -34.5 6.5t-0.5 34.5z" />
    <glyph glyph-name="idieresis" unicode="&#xef;" horiz-adv-x="157" 
d="M178 273q-3 2 -7 3t-9 -1q-5 0 -11 -3t-11 -6q-12 -10 -24.5 -18.5t-24.5 -17.5q-4 -3 -12.5 -10t-16.5 -12.5t-12.5 -6.5t-0.5 10q8 23 20.5 52t21.5 53q4 11 7 18t-4 13q-9 10 -19.5 12.5t-22.5 4.5q-10 2 -21 1t-18 -12q-13 -41 -28 -79t-26 -81q-2 -9 -1.5 -18
t0.5 -17q1 -11 5 -19t12 -16q17 -11 36 -8q17 0 24 13q1 2 14 13.5t28.5 25.5t30 26.5t19.5 16.5q14 13 26 25t25 24q2 4 3 8t-3 6zM18 546q4 15 18 20t28 -3q9 -5 17.5 -9.5t7.5 -16.5q-2 -11 -13.5 -21.5t-22.5 -10.5q-27 -2 -34.5 6.5t-0.5 34.5zM157 546q4 15 18 20
t28 -3q9 -5 17.5 -9.5t7.5 -16.5q-2 -11 -13.5 -21.5t-22.5 -10.5q-27 -2 -34.5 6.5t-0.5 34.5z" />
    <glyph glyph-name="Odieresis" unicode="&#xd6;" horiz-adv-x="525" 
d="M30 167q16 61 33 127t39 127.5t51 114.5t68.5 88.5t92 48.5t121.5 -5q47 -21 78 -54t39 -90q5 -32 -2.5 -62.5t-18.5 -57.5q-22 -57 -53.5 -110.5t-70 -103t-82 -92.5t-88.5 -79q-18 -11 -39.5 -18t-43 -8.5t-43 2t-39.5 13.5q-30 18 -41 53t-1 106zM169 308q-2 0 -5 2
t-5 2q-11 -29 -21.5 -56.5t-16.5 -55.5q-15 -59 -21 -123q-2 -29 12 -39t41 4q18 13 36.5 25t33.5 26q55 60 96.5 106.5t71 91t49.5 93t34 111.5q6 31 8.5 57t-16.5 52q-20 23 -51 28.5t-57 -9.5q-18 -11 -29.5 -25.5t-20 -31t-15 -35t-12.5 -39.5q-24 -74 -35 -151
t-19 -155q-1 -5 -1.5 -11.5t-2 -12t-5 -9t-10.5 -3.5q-8 1 -18.5 9.5t-10.5 16.5q-8 24 -9.5 46.5t-3.5 46.5q-1 10 0 19.5t3 19.5zM353 783q4 15 18 20t28 -3q9 -5 17.5 -9.5t7.5 -16.5q-2 -11 -13.5 -21.5t-22.5 -10.5q-27 -2 -34.5 6.5t-0.5 34.5zM492 783q4 15 18 20
t28 -3q9 -5 17.5 -9.5t7.5 -16.5q-2 -11 -13.5 -21.5t-22.5 -10.5q-27 -2 -34.5 6.5t-0.5 34.5z" />
    <glyph glyph-name="odieresis" unicode="&#xf6;" horiz-adv-x="178" 
d="M129 243q-17 -37 -41.5 -59t-53.5 -45q-9 -6 -18.5 -11.5t-20.5 -10.5q-22 -11 -48.5 -3t-42.5 30q-14 22 -11 41.5t10 40.5q16 35 34.5 68t43.5 62q15 15 30 27q17 14 36 4q5 -2 8.5 -5.5t7.5 -4.5q58 -11 74 -75q8 -1 17 -1t17 -2l16 -4t15 -6q10 -3 8 -12t-8 -13
q-11 -8 -23.5 -10.5t-25.5 -5.5q-6 -2 -12 -2.5t-12 -2.5zM51 244q-17 14 -32.5 11t-27 -15.5t-19 -29t-8.5 -29.5q-1 -14 12 -9t29.5 18t31 29t14.5 25zM60 327l-2.5 -5t-0.5 -1.5t-0.5 -1.5l-2.5 -5t-1.5 -9t7.5 -9q19 -2 25.5 9t4.5 21.5t-10.5 14t-19.5 -13.5zM8 470
q4 15 18 20t28 -3q9 -5 17.5 -9.5t7.5 -16.5q-2 -11 -13.5 -21.5t-22.5 -10.5q-27 -2 -34.5 6.5t-0.5 34.5zM147 470q4 15 18 20t28 -3q9 -5 17.5 -9.5t7.5 -16.5q-2 -11 -13.5 -21.5t-22.5 -10.5q-27 -2 -34.5 6.5t-0.5 34.5z" />
    <glyph glyph-name="udieresis" unicode="&#xfc;" horiz-adv-x="289" 
d="M125 240q-10 -16 -24.5 -31.5t-31 -26.5t-34 -16.5t-33.5 -0.5q-29 8 -37 26.5t0 50.5q10 31 19 60.5t19 58.5q17 41 40 41q19 0 32 -10.5t5 -21.5q-7 -10 -17.5 -29.5t-19.5 -40.5t-14.5 -38t-2.5 -23q11 -9 25.5 -2.5t22.5 15.5q5 6 14.5 17.5t19.5 24.5l20 26t16 24
q9 16 17.5 26.5t22.5 -1.5q13 -13 21 -26t0 -37q-6 -17 -11.5 -36t-8.5 -39q-2 -15 -1.5 -31t0.5 -42q16 9 30.5 20t26 21t20 18.5t11.5 12.5q7 7 14 6.5t9.5 -6.5t-2.5 -18t-21 -28q-8 -8 -22.5 -21.5t-31 -26t-32.5 -21.5t-27 -9q-25 1 -33.5 11.5t-10.5 39.5
q-1 18 3 39.5t7 43.5zM57 507q4 15 18 20t28 -3q9 -5 17.5 -9.5t7.5 -16.5q-2 -11 -13.5 -21.5t-22.5 -10.5q-27 -2 -34.5 6.5t-0.5 34.5zM196 507q4 15 18 20t28 -3q9 -5 17.5 -9.5t7.5 -16.5q-2 -11 -13.5 -21.5t-22.5 -10.5q-27 -2 -34.5 6.5t-0.5 34.5z" />
    <glyph glyph-name="Udieresis" unicode="&#xdc;" horiz-adv-x="695" 
d="M246 102q13 4 37 27.5t54 58.5t63 79t65.5 89t62 88t51.5 77q9 18 17.5 39.5t16.5 44.5q0 13 -1 26.5t0.5 25.5t7.5 23t20 20q12 8 24 13q17 1 31 -4.5t22.5 -15.5t11 -24t-2.5 -30q-28 -81 -56.5 -163t-56.5 -165q-24 -68 -49.5 -134t-49.5 -134q-9 -26 -15.5 -54.5
t-12.5 -55.5q-2 -6 -3.5 -11.5t-4.5 -10t-7.5 -7.5t-13.5 -4q-17 0 -28.5 6.5t-13.5 23.5q-8 39 -1 77t19 75.5t26 74.5t21 75q2 6 3.5 12.5t-0.5 11.5q-10 -11 -23 -29.5t-27.5 -38t-28 -37.5t-23.5 -29q-17 -15 -31.5 -28.5t-33.5 -26.5q-29 -19 -59.5 -18t-62.5 16
q-30 17 -44 39.5t-10 55.5q3 18 10 43.5t15 52.5t16 53t14 45q13 55 31.5 111t35.5 110q2 4 2.5 8t2.5 8q10 23 21.5 28.5t30.5 -0.5q26 -9 31.5 -20.5t-2.5 -33.5q-12 -42 -27.5 -90.5t-31 -99t-30.5 -99t-26 -90.5q0 -9 -3 -21t-4 -24t3 -22.5t17 -16.5zM396 773
q4 15 18 20t28 -3q9 -5 17.5 -9.5t7.5 -16.5q-2 -11 -13.5 -21.5t-22.5 -10.5q-27 -2 -34.5 6.5t-0.5 34.5zM535 773q4 15 18 20t28 -3q9 -5 17.5 -9.5t7.5 -16.5q-2 -11 -13.5 -21.5t-22.5 -10.5q-27 -2 -34.5 6.5t-0.5 34.5z" />
    <glyph glyph-name="ydieresis" unicode="&#xff;" horiz-adv-x="229" 
d="M40 265q-11 -8 -28 -25.5t-37.5 -33.5t-41 -24t-37.5 3q-8 5 -10.5 22t-1 40t5.5 48.5t9 47t10 37t9 17.5q24 8 42 1t13 -38q-1 -4 -4.5 -19.5t-8 -34.5t-8 -36.5t-4.5 -24.5q9 8 26 25.5t35.5 36t34.5 35t23 22.5t14.5 12t15.5 11q13 6 22.5 4t15.5 -9t8 -16.5t-2 -16.5
q0 -4 -5 -19t-12 -32t-12.5 -33.5t-6.5 -23.5q12 6 36 19.5t49 26t47.5 19.5t31.5 1q13 -9 11 -13t-13 -9q-18 -8 -38 -19t-39 -23t-36 -23.5t-29 -21.5q-25 -17 -37.5 -42.5t-23.5 -56.5q-25 -81 -54 -160l-58 -158q-5 -14 -15 -29t-24 -23q-28 -16 -48.5 -1t-27.5 53
q-10 51 -1.5 97.5t24.5 92.5q24 66 59.5 119t77.5 99q7 8 18 20t19 23.5t11 20.5t-5 12zM-1 102q-20 -18 -42 -55.5t-39.5 -80.5t-26.5 -84t-3 -65q10 28 25.5 66.5t31.5 78.5t30.5 77.5t23.5 62.5zM-34 515q4 15 18 20t28 -3q9 -5 17.5 -9.5t7.5 -16.5q-2 -11 -13.5 -21.5
t-22.5 -10.5q-27 -2 -34.5 6.5t-0.5 34.5zM105 515q4 15 18 20t28 -3q9 -5 17.5 -9.5t7.5 -16.5q-2 -11 -13.5 -21.5t-22.5 -10.5q-27 -2 -34.5 6.5t-0.5 34.5z" />
    <glyph glyph-name="Ydieresis" unicode="&#x178;" horiz-adv-x="451" 
d="M145 451q10 -5 26.5 3.5t37 26.5t43.5 42.5t46 51.5t44.5 53t39.5 47q15 9 36.5 12t44.5 -3q16 -5 22 -13t3 -24q-10 -54 -20.5 -113t-21.5 -113q-2 -19 -8.5 -37t-12.5 -37q-7 -25 -14.5 -48t-15.5 -47q-14 -41 -30.5 -81t-33.5 -80q-17 -41 -36.5 -79.5t-50.5 -74.5
q-24 -27 -52.5 -42t-61.5 -21q-39 -7 -60.5 16t-27.5 61t2.5 83.5t29.5 83.5q32 50 64.5 91.5t76.5 83.5q20 17 41 32t42 29q33 18 54 51.5t33.5 70t18.5 69t9 48.5q-18 -16 -45.5 -46t-57.5 -62t-58.5 -61t-49.5 -42q-21 -14 -42.5 -13t-40 12t-31 29.5t-14.5 41.5
q-4 9 -3 27t5.5 41t11.5 48.5t15 48.5q6 16 17 29t25 21t29 11.5t29 1.5q22 -5 26 -14t-7 -27q-11 -21 -27.5 -50t-30.5 -57t-20.5 -51t1.5 -30zM323 310q-4 -1 -7 -1t-5 -1q-3 -3 -6.5 -4.5t-6.5 -4.5q-18 -21 -40.5 -47.5t-44.5 -55t-42 -56.5t-32 -52q-14 -28 -24 -58.5
t-11 -63.5q10 -29 29.5 -20.5t43 39.5t48.5 77t46 94t35 90t17 64zM262 793q4 15 18 20t28 -3q9 -5 17.5 -9.5t7.5 -16.5q-2 -11 -13.5 -21.5t-22.5 -10.5q-27 -2 -34.5 6.5t-0.5 34.5zM401 793q4 15 18 20t28 -3q9 -5 17.5 -9.5t7.5 -16.5q-2 -11 -13.5 -21.5t-22.5 -10.5
q-27 -2 -34.5 6.5t-0.5 34.5z" />
    <glyph glyph-name="germandbls" unicode="&#xdf;" horiz-adv-x="446" 
d="M38 137q-38 -6 -35 41q3 29 6.5 57t10.5 55q8 31 20 69t28.5 76t38 73t48.5 60.5t59.5 37.5t72.5 4q26 -5 50 -12t47 -24q25 -20 25 -49.5t-16 -55.5t-43 -43.5t-57 -12.5q8 -6 12.5 -8.5t9.5 -7.5q18 -12 37 -24t34 -30q15 -15 22.5 -36.5t7.5 -44t-8.5 -45t-25.5 -39.5
q-27 -28 -56.5 -45t-62.5 -22q-67 -9 -117 47q-5 5 -8 11.5t-6 12.5q-5 12 -5.5 21.5t3 13t11 -1t17.5 -19.5q32 -45 63.5 -46t75.5 43q16 15 24 37t3 49q-9 57 -53 75q-11 4 -26.5 12t-26.5 19t-12.5 23.5t15.5 24.5q30 4 54 19.5t37 35.5t13 40.5t-18 34.5q-6 4 -14 7.5
t-19 2.5t-24.5 -7t-30.5 -20q-35 -30 -63 -77q-22 -40 -37.5 -82t-26 -81.5t-15.5 -74.5t-6 -60q0 -20 -6 -24.5t-27 -9.5z" />
    <glyph glyph-name="Agrave" unicode="&#xc0;" horiz-adv-x="594" 
d="M323 257q-22 -30 -41.5 -58t-38.5 -57q-3 -3 -5 -7t-5 -7q-19 -15 -31.5 -34t-23.5 -39q-3 -6 -7 -11.5t-8 -10.5q-11 -11 -20 -21t-16 -24q-4 -8 -15 -6q-5 2 -8.5 7.5t-1.5 10.5q4 15 8.5 29.5t12.5 27.5l84 135q8 13 17 25.5t14 30.5h-24q-8 0 -17 -0.5t-18 -0.5
q-21 0 -35 11t-23 29q-4 8 -6.5 16.5t-4.5 16.5t4 16t14 10h14q42 3 83.5 5t83.5 5q2 0 11 3q25 38 49.5 76.5t48.5 76.5q19 30 35 61t26 66q5 14 13 26.5t15 26.5q2 4 8 6t11 3q20 1 35.5 -10.5t21.5 -29.5q3 -11 0 -21q-5 -20 -9 -39t-10 -38q-14 -51 -23.5 -102.5
t-21.5 -103.5q-2 -5 1.5 -10t10.5 -6q13 -2 26 -4.5t25 -7.5q20 -9 7 -28q-9 -14 -25 -17q-11 -2 -23 -4.5t-24 -3.5q-21 -4 -27 -26q-10 -37 -20 -73.5t-21 -74.5q-5 -20 -11.5 -40t-11.5 -40l-6 -24t-5 -23q-4 -17 -9.5 -33.5t-17.5 -30.5q-5 -7 -13.5 -6t-12.5 8
q-10 18 -14.5 37t-2.5 39l6 46t8 46q9 38 19 76t20 77q2 8 4 13q2 9 -2.5 14.5t-14.5 4.5q-28 -3 -62 -9zM437 411q-20 -7 -26.5 -22t-12.5 -32h29q4 14 7.5 27t2.5 27zM613 747q-3 0 -6 1l-6 2q-33 14 -55.5 37.5t-43.5 48.5q-7 8 -3 14.5t16 9.5q24 8 40 -11
q13 -16 26.5 -31t26.5 -32q2 -3 7.5 -12t9 -17t2 -12t-13.5 2z" />
    <glyph glyph-name="agrave" unicode="&#xe0;" 
d="M50 206q-13 -5 -21.5 -9t-16.5 -7q-11 -5 -21.5 -4t-21.5 4q-14 5 -22 15.5t-6 24.5q4 21 8 43t12 43q11 32 45 38q8 3 17 4.5t17 2.5q10 2 20 2t21 1q4 5 7.5 10.5t8.5 10.5q22 32 57 16q2 -2 5 -3.5t5 -3.5q15 -9 9 -27q-9 -19 -17.5 -43.5t-14 -50.5t-6.5 -50.5
t4 -43.5q0 -2 1 -3.5t2 -3.5q8 -6 23.5 -1.5t23.5 9.5q26 17 48 36.5t36 31.5q2 2 6 3.5t8 -0.5q8 -4 6.5 -13t-6.5 -14q-23 -26 -46 -51.5t-52 -46.5q-20 -15 -45 -20t-51 6q-17 7 -28 20t-13 33q0 8 -0.5 17.5t-1.5 23.5zM63 318q-27 7 -40 -12q-8 -11 -12 -23t-7 -26
q-3 -9 0.5 -10t9 1t11 5t6.5 4q34 17 32 61zM181 456q-3 0 -6 1l-6 2q-33 14 -55.5 37.5t-43.5 48.5q-7 8 -3 14.5t16 9.5q24 8 40 -11q13 -16 26.5 -31t26.5 -32q2 -3 7.5 -12t9 -17t2 -12t-13.5 2z" />
    <glyph glyph-name="Egrave" unicode="&#xc8;" horiz-adv-x="543" 
d="M317 357q-4 -5 -7 -9t-5 -9q-13 -36 -32 -67.5t-36 -65.5q-8 -17 -15 -33.5t-13 -33.5q8 -3 15 -1t15 4q75 20 154 21q23 1 46.5 -3.5t46.5 -11.5q13 -5 19 -15t8 -24q1 -5 -2 -10t-8 -6q-10 -1 -20 -3t-20 -1q-32 2 -64.5 -0.5t-64.5 -7.5q-38 -6 -75.5 -16t-74.5 -26
q-29 -13 -57.5 -25t-57.5 -27q-17 -10 -33 -2.5t-22 27.5q-3 17 7 26q7 7 15 12.5t16 10.5q13 8 25 14.5t26 14.5q12 29 24.5 57.5t26.5 57.5q14 32 29.5 62t30.5 61q1 3 -1 13q-13 -2 -25 -3.5t-24 -3.5q-21 -1 -31 21q-3 7 -2 14t8 10q8 4 16 7t16 5q20 6 40 11t42 10
q17 33 31.5 68.5t28.5 70.5q2 4 1.5 8.5t0.5 10.5q-6 0 -11.5 0.5t-10.5 -0.5q-5 0 -9.5 -0.5t-9.5 -1.5q-23 -2 -35 6.5t-20 31.5q-2 7 -3 12q-3 15 0.5 22t17.5 12q78 25 159 33q42 4 82 6.5t80 4.5q2 1 4 1q44 6 59 -47q2 -5 2 -9.5v-9.5q2 -17 -3 -23.5t-21 -7.5
q-26 -1 -51.5 -1t-51.5 -1q-46 -2 -92 -9q-7 -22 -13.5 -43.5t-14.5 -42.5q-8 -20 -16.5 -40.5t-14.5 -41.5q6 -8 14.5 -9t16.5 -3q11 -3 22 -6.5t22 -11.5q2 -2 3.5 -4.5t0.5 -5.5q-1 -6 -7 -13q-1 -2 -2.5 -2t-3.5 -1q-10 -2 -19 -3.5t-18 -2.5q-14 -2 -26.5 -2h-27.5z
M464 758q-3 0 -6 1l-6 2q-33 14 -55.5 37.5t-43.5 48.5q-7 8 -3 14.5t16 9.5q24 8 40 -11q13 -16 26.5 -31t26.5 -32q2 -3 7.5 -12t9 -17t2 -12t-13.5 2z" />
    <glyph glyph-name="egrave" unicode="&#xe8;" horiz-adv-x="167" 
d="M-64 220q-2 -6 -2.5 -14.5t0 -17t3.5 -15.5t8 -11q10 -7 22 -4.5t21 7.5l22 10t21 11q29 20 57.5 39.5t61.5 30.5q15 4 19.5 -2t2.5 -16t-11 -20.5t-21 -15.5q-28 -11 -52 -25.5t-47 -32.5q-17 -14 -36.5 -20.5t-41.5 -10.5q-20 -2 -38 -2.5t-36 7.5q-28 11 -40 36.5
t-5 57.5q8 38 22 72.5t43 61.5q12 12 27 22t31.5 14.5t35 2t36.5 -16.5q22 -16 21 -45q-1 -9 -2 -17t-3 -17q-2 -24 -16.5 -33t-38.5 -15q-16 -4 -31.5 -10t-32.5 -11zM-11 322q-18 -8 -24.5 -22.5t-8.5 -32.5q0 -2 2.5 -4.5t4.5 -2.5q0 -2 2 -2t2 2q17 12 23.5 26t-1.5 36z
M75 450q-3 0 -6 1l-6 2q-33 14 -55.5 37.5t-43.5 48.5q-7 8 -3 14.5t16 9.5q24 8 40 -11q13 -16 26.5 -31t26.5 -32q2 -3 7.5 -12t9 -17t2 -12t-13.5 2z" />
    <glyph glyph-name="igrave" unicode="&#xec;" horiz-adv-x="157" 
d="M178 273q-3 2 -7 3t-9 -1q-5 0 -11 -3t-11 -6q-12 -10 -24.5 -18.5t-24.5 -17.5q-4 -3 -12.5 -10t-16.5 -12.5t-12.5 -6.5t-0.5 10q8 23 20.5 52t21.5 53q4 11 7 18t-4 13q-9 10 -19.5 12.5t-22.5 4.5q-10 2 -21 1t-18 -12q-13 -41 -28 -79t-26 -81q-2 -9 -1.5 -18
t0.5 -17q1 -11 5 -19t12 -16q17 -11 36 -8q17 0 24 13q1 2 14 13.5t28.5 25.5t30 26.5t19.5 16.5q14 13 26 25t25 24q2 4 3 8t-3 6zM156 504q-3 0 -6 1l-6 2q-33 14 -55.5 37.5t-43.5 48.5q-7 8 -3 14.5t16 9.5q24 8 40 -11q13 -16 26.5 -31t26.5 -32q2 -3 7.5 -12t9 -17
t2 -12t-13.5 2z" />
    <glyph glyph-name="Igrave" unicode="&#xcc;" horiz-adv-x="400" 
d="M104 626q6 0 12 1t13 1q20 -2 39.5 2.5t36.5 10.5q32 13 63 24.5t62 23.5q13 4 25 7t26 7q14 6 25 -0.5t19 -17.5q-2 -9 -6.5 -14.5t-11.5 -10.5q-18 -8 -34.5 -16t-32.5 -16q-19 -10 -19 -25q-1 -24 -7.5 -47t-12.5 -46q-8 -33 -15 -65l-14 -64q-7 -24 -15 -47.5
t-16 -48.5q-11 -45 -24.5 -88.5t-24.5 -88.5q-2 -4 -2 -17q5 0 9.5 -1.5t9.5 0.5q13 0 24.5 2.5t24.5 2.5q17 2 32.5 3t32.5 -1q37 0 58 -26q6 -8 6 -16q0 -5 -5.5 -10t-12.5 -5q-5 -2 -9 -2h-9q-43 6 -83 -1t-80 -18q-12 -5 -22.5 -7.5t-19.5 -7.5q-18 -5 -34.5 -8
t-35.5 -7q-17 -5 -32 -0.5t-30 11.5q-8 3 -13 10q-10 8 -7 18.5t14 13.5q17 3 32 6.5t32 6.5q12 2 18 8.5t9 17.5q13 71 35 140t42 138q14 52 27.5 102.5t22.5 101.5q2 5 2 7.5v6.5q-6 5 -13.5 5t-13.5 -1q-15 -5 -30.5 -2.5t-29.5 3.5q-8 0 -15 3.5t-12 7.5
q-8 5 -11.5 13.5t1.5 19.5zM352 770q-3 0 -6 1l-6 2q-33 14 -55.5 37.5t-43.5 48.5q-7 8 -3 14.5t16 9.5q24 8 40 -11q13 -16 26.5 -31t26.5 -32q2 -3 7.5 -12t9 -17t2 -12t-13.5 2z" />
    <glyph glyph-name="Ograve" unicode="&#xd2;" horiz-adv-x="525" 
d="M30 167q16 61 33 127t39 127.5t51 114.5t68.5 88.5t92 48.5t121.5 -5q47 -21 78 -54t39 -90q5 -32 -2.5 -62.5t-18.5 -57.5q-22 -57 -53.5 -110.5t-70 -103t-82 -92.5t-88.5 -79q-18 -11 -39.5 -18t-43 -8.5t-43 2t-39.5 13.5q-30 18 -41 53t-1 106zM169 308q-2 0 -5 2
t-5 2q-11 -29 -21.5 -56.5t-16.5 -55.5q-15 -59 -21 -123q-2 -29 12 -39t41 4q18 13 36.5 25t33.5 26q55 60 96.5 106.5t71 91t49.5 93t34 111.5q6 31 8.5 57t-16.5 52q-20 23 -51 28.5t-57 -9.5q-18 -11 -29.5 -25.5t-20 -31t-15 -35t-12.5 -39.5q-24 -74 -35 -151
t-19 -155q-1 -5 -1.5 -11.5t-2 -12t-5 -9t-10.5 -3.5q-8 1 -18.5 9.5t-10.5 16.5q-8 24 -9.5 46.5t-3.5 46.5q-1 10 0 19.5t3 19.5zM466 739q-3 0 -6 1l-6 2q-33 14 -55.5 37.5t-43.5 48.5q-7 8 -3 14.5t16 9.5q24 8 40 -11q13 -16 26.5 -31t26.5 -32q2 -3 7.5 -12t9 -17
t2 -12t-13.5 2z" />
    <glyph glyph-name="ograve" unicode="&#xf2;" horiz-adv-x="178" 
d="M129 243q-17 -37 -41.5 -59t-53.5 -45q-9 -6 -18.5 -11.5t-20.5 -10.5q-22 -11 -48.5 -3t-42.5 30q-14 22 -11 41.5t10 40.5q16 35 34.5 68t43.5 62q15 15 30 27q17 14 36 4q5 -2 8.5 -5.5t7.5 -4.5q58 -11 74 -75q8 -1 17 -1t17 -2l16 -4t15 -6q10 -3 8 -12t-8 -13
q-11 -8 -23.5 -10.5t-25.5 -5.5q-6 -2 -12 -2.5t-12 -2.5zM51 244q-17 14 -32.5 11t-27 -15.5t-19 -29t-8.5 -29.5q-1 -14 12 -9t29.5 18t31 29t14.5 25zM60 327l-2.5 -5t-0.5 -1.5t-0.5 -1.5l-2.5 -5t-1.5 -9t7.5 -9q19 -2 25.5 9t4.5 21.5t-10.5 14t-19.5 -13.5zM161 443
q-3 0 -6 1l-6 2q-33 14 -55.5 37.5t-43.5 48.5q-7 8 -3 14.5t16 9.5q24 8 40 -11q13 -16 26.5 -31t26.5 -32q2 -3 7.5 -12t9 -17t2 -12t-13.5 2z" />
    <glyph glyph-name="ugrave" unicode="&#xf9;" horiz-adv-x="289" 
d="M125 240q-10 -16 -24.5 -31.5t-31 -26.5t-34 -16.5t-33.5 -0.5q-29 8 -37 26.5t0 50.5q10 31 19 60.5t19 58.5q17 41 40 41q19 0 32 -10.5t5 -21.5q-7 -10 -17.5 -29.5t-19.5 -40.5t-14.5 -38t-2.5 -23q11 -9 25.5 -2.5t22.5 15.5q5 6 14.5 17.5t19.5 24.5l20 26t16 24
q9 16 17.5 26.5t22.5 -1.5q13 -13 21 -26t0 -37q-6 -17 -11.5 -36t-8.5 -39q-2 -15 -1.5 -31t0.5 -42q16 9 30.5 20t26 21t20 18.5t11.5 12.5q7 7 14 6.5t9.5 -6.5t-2.5 -18t-21 -28q-8 -8 -22.5 -21.5t-31 -26t-32.5 -21.5t-27 -9q-25 1 -33.5 11.5t-10.5 39.5
q-1 18 3 39.5t7 43.5zM194 446q-3 0 -6 1l-6 2q-33 14 -55.5 37.5t-43.5 48.5q-7 8 -3 14.5t16 9.5q24 8 40 -11q13 -16 26.5 -31t26.5 -32q2 -3 7.5 -12t9 -17t2 -12t-13.5 2z" />
    <glyph glyph-name="Ugrave" unicode="&#xd9;" horiz-adv-x="695" 
d="M246 102q13 4 37 27.5t54 58.5t63 79t65.5 89t62 88t51.5 77q9 18 17.5 39.5t16.5 44.5q0 13 -1 26.5t0.5 25.5t7.5 23t20 20q12 8 24 13q17 1 31 -4.5t22.5 -15.5t11 -24t-2.5 -30q-28 -81 -56.5 -163t-56.5 -165q-24 -68 -49.5 -134t-49.5 -134q-9 -26 -15.5 -54.5
t-12.5 -55.5q-2 -6 -3.5 -11.5t-4.5 -10t-7.5 -7.5t-13.5 -4q-17 0 -28.5 6.5t-13.5 23.5q-8 39 -1 77t19 75.5t26 74.5t21 75q2 6 3.5 12.5t-0.5 11.5q-10 -11 -23 -29.5t-27.5 -38t-28 -37.5t-23.5 -29q-17 -15 -31.5 -28.5t-33.5 -26.5q-29 -19 -59.5 -18t-62.5 16
q-30 17 -44 39.5t-10 55.5q3 18 10 43.5t15 52.5t16 53t14 45q13 55 31.5 111t35.5 110q2 4 2.5 8t2.5 8q10 23 21.5 28.5t30.5 -0.5q26 -9 31.5 -20.5t-2.5 -33.5q-12 -42 -27.5 -90.5t-31 -99t-30.5 -99t-26 -90.5q0 -9 -3 -21t-4 -24t3 -22.5t17 -16.5zM520 736
q-3 0 -6 1l-6 2q-33 14 -55.5 37.5t-43.5 48.5q-7 8 -3 14.5t16 9.5q24 8 40 -11q13 -16 26.5 -31t26.5 -32q2 -3 7.5 -12t9 -17t2 -12t-13.5 2z" />
    <glyph glyph-name="acute" unicode="&#xb4;" horiz-adv-x="171" 
d="M35 371q-12 -6 -13.5 -2t2 12t9 17t7.5 12q13 17 26.5 32t26.5 31q16 19 40 11q12 -3 16 -9.5t-3 -14.5q-21 -25 -43.5 -48.5t-55.5 -37.5l-6 -2t-6 -1z" />
    <glyph glyph-name="Aacute" unicode="&#xc1;" horiz-adv-x="594" 
d="M323 257q-22 -30 -41.5 -58t-38.5 -57q-3 -3 -5 -7t-5 -7q-19 -15 -31.5 -34t-23.5 -39q-3 -6 -7 -11.5t-8 -10.5q-11 -11 -20 -21t-16 -24q-4 -8 -15 -6q-5 2 -8.5 7.5t-1.5 10.5q4 15 8.5 29.5t12.5 27.5l84 135q8 13 17 25.5t14 30.5h-24q-8 0 -17 -0.5t-18 -0.5
q-21 0 -35 11t-23 29q-4 8 -6.5 16.5t-4.5 16.5t4 16t14 10h14q42 3 83.5 5t83.5 5q2 0 11 3q25 38 49.5 76.5t48.5 76.5q19 30 35 61t26 66q5 14 13 26.5t15 26.5q2 4 8 6t11 3q20 1 35.5 -10.5t21.5 -29.5q3 -11 0 -21q-5 -20 -9 -39t-10 -38q-14 -51 -23.5 -102.5
t-21.5 -103.5q-2 -5 1.5 -10t10.5 -6q13 -2 26 -4.5t25 -7.5q20 -9 7 -28q-9 -14 -25 -17q-11 -2 -23 -4.5t-24 -3.5q-21 -4 -27 -26q-10 -37 -20 -73.5t-21 -74.5q-5 -20 -11.5 -40t-11.5 -40l-6 -24t-5 -23q-4 -17 -9.5 -33.5t-17.5 -30.5q-5 -7 -13.5 -6t-12.5 8
q-10 18 -14.5 37t-2.5 39l6 46t8 46q9 38 19 76t20 77q2 8 4 13q2 9 -2.5 14.5t-14.5 4.5q-28 -3 -62 -9zM437 411q-20 -7 -26.5 -22t-12.5 -32h29q4 14 7.5 27t2.5 27zM521 746q-12 -6 -13.5 -2t2 12t9 17t7.5 12q13 17 26.5 32t26.5 31q16 19 40 11q12 -3 16 -9.5
t-3 -14.5q-21 -25 -43.5 -48.5t-55.5 -37.5l-6 -2t-6 -1z" />
    <glyph glyph-name="aacute" unicode="&#xe1;" 
d="M50 206q-13 -5 -21.5 -9t-16.5 -7q-11 -5 -21.5 -4t-21.5 4q-14 5 -22 15.5t-6 24.5q4 21 8 43t12 43q11 32 45 38q8 3 17 4.5t17 2.5q10 2 20 2t21 1q4 5 7.5 10.5t8.5 10.5q22 32 57 16q2 -2 5 -3.5t5 -3.5q15 -9 9 -27q-9 -19 -17.5 -43.5t-14 -50.5t-6.5 -50.5
t4 -43.5q0 -2 1 -3.5t2 -3.5q8 -6 23.5 -1.5t23.5 9.5q26 17 48 36.5t36 31.5q2 2 6 3.5t8 -0.5q8 -4 6.5 -13t-6.5 -14q-23 -26 -46 -51.5t-52 -46.5q-20 -15 -45 -20t-51 6q-17 7 -28 20t-13 33q0 8 -0.5 17.5t-1.5 23.5zM63 318q-27 7 -40 -12q-8 -11 -12 -23t-7 -26
q-3 -9 0.5 -10t9 1t11 5t6.5 4q34 17 32 61zM100 457q-12 -6 -13.5 -2t2 12t9 17t7.5 12q13 17 26.5 32t26.5 31q16 19 40 11q12 -3 16 -9.5t-3 -14.5q-21 -25 -43.5 -48.5t-55.5 -37.5l-6 -2t-6 -1z" />
    <glyph glyph-name="eacute" unicode="&#xe9;" horiz-adv-x="167" 
d="M-64 220q-2 -6 -2.5 -14.5t0 -17t3.5 -15.5t8 -11q10 -7 22 -4.5t21 7.5l22 10t21 11q29 20 57.5 39.5t61.5 30.5q15 4 19.5 -2t2.5 -16t-11 -20.5t-21 -15.5q-28 -11 -52 -25.5t-47 -32.5q-17 -14 -36.5 -20.5t-41.5 -10.5q-20 -2 -38 -2.5t-36 7.5q-28 11 -40 36.5
t-5 57.5q8 38 22 72.5t43 61.5q12 12 27 22t31.5 14.5t35 2t36.5 -16.5q22 -16 21 -45q-1 -9 -2 -17t-3 -17q-2 -24 -16.5 -33t-38.5 -15q-16 -4 -31.5 -10t-32.5 -11zM-11 322q-18 -8 -24.5 -22.5t-8.5 -32.5q0 -2 2.5 -4.5t4.5 -2.5q0 -2 2 -2t2 2q17 12 23.5 26t-1.5 36z
M-29 438q-12 -6 -13.5 -2t2 12t9 17t7.5 12q13 17 26.5 32t26.5 31q16 19 40 11q12 -3 16 -9.5t-3 -14.5q-21 -25 -43.5 -48.5t-55.5 -37.5l-6 -2t-6 -1z" />
    <glyph glyph-name="Eacute" unicode="&#xc9;" horiz-adv-x="543" 
d="M317 357q-4 -5 -7 -9t-5 -9q-13 -36 -32 -67.5t-36 -65.5q-8 -17 -15 -33.5t-13 -33.5q8 -3 15 -1t15 4q75 20 154 21q23 1 46.5 -3.5t46.5 -11.5q13 -5 19 -15t8 -24q1 -5 -2 -10t-8 -6q-10 -1 -20 -3t-20 -1q-32 2 -64.5 -0.5t-64.5 -7.5q-38 -6 -75.5 -16t-74.5 -26
q-29 -13 -57.5 -25t-57.5 -27q-17 -10 -33 -2.5t-22 27.5q-3 17 7 26q7 7 15 12.5t16 10.5q13 8 25 14.5t26 14.5q12 29 24.5 57.5t26.5 57.5q14 32 29.5 62t30.5 61q1 3 -1 13q-13 -2 -25 -3.5t-24 -3.5q-21 -1 -31 21q-3 7 -2 14t8 10q8 4 16 7t16 5q20 6 40 11t42 10
q17 33 31.5 68.5t28.5 70.5q2 4 1.5 8.5t0.5 10.5q-6 0 -11.5 0.5t-10.5 -0.5q-5 0 -9.5 -0.5t-9.5 -1.5q-23 -2 -35 6.5t-20 31.5q-2 7 -3 12q-3 15 0.5 22t17.5 12q78 25 159 33q42 4 82 6.5t80 4.5q2 1 4 1q44 6 59 -47q2 -5 2 -9.5v-9.5q2 -17 -3 -23.5t-21 -7.5
q-26 -1 -51.5 -1t-51.5 -1q-46 -2 -92 -9q-7 -22 -13.5 -43.5t-14.5 -42.5q-8 -20 -16.5 -40.5t-14.5 -41.5q6 -8 14.5 -9t16.5 -3q11 -3 22 -6.5t22 -11.5q2 -2 3.5 -4.5t0.5 -5.5q-1 -6 -7 -13q-1 -2 -2.5 -2t-3.5 -1q-10 -2 -19 -3.5t-18 -2.5q-14 -2 -26.5 -2h-27.5z
M401 744q-12 -6 -13.5 -2t2 12t9 17t7.5 12q13 17 26.5 32t26.5 31q16 19 40 11q12 -3 16 -9.5t-3 -14.5q-21 -25 -43.5 -48.5t-55.5 -37.5l-6 -2t-6 -1z" />
    <glyph glyph-name="Iacute" unicode="&#xcd;" horiz-adv-x="400" 
d="M104 626q6 0 12 1t13 1q20 -2 39.5 2.5t36.5 10.5q32 13 63 24.5t62 23.5q13 4 25 7t26 7q14 6 25 -0.5t19 -17.5q-2 -9 -6.5 -14.5t-11.5 -10.5q-18 -8 -34.5 -16t-32.5 -16q-19 -10 -19 -25q-1 -24 -7.5 -47t-12.5 -46q-8 -33 -15 -65l-14 -64q-7 -24 -15 -47.5
t-16 -48.5q-11 -45 -24.5 -88.5t-24.5 -88.5q-2 -4 -2 -17q5 0 9.5 -1.5t9.5 0.5q13 0 24.5 2.5t24.5 2.5q17 2 32.5 3t32.5 -1q37 0 58 -26q6 -8 6 -16q0 -5 -5.5 -10t-12.5 -5q-5 -2 -9 -2h-9q-43 6 -83 -1t-80 -18q-12 -5 -22.5 -7.5t-19.5 -7.5q-18 -5 -34.5 -8
t-35.5 -7q-17 -5 -32 -0.5t-30 11.5q-8 3 -13 10q-10 8 -7 18.5t14 13.5q17 3 32 6.5t32 6.5q12 2 18 8.5t9 17.5q13 71 35 140t42 138q14 52 27.5 102.5t22.5 101.5q2 5 2 7.5v6.5q-6 5 -13.5 5t-13.5 -1q-15 -5 -30.5 -2.5t-29.5 3.5q-8 0 -15 3.5t-12 7.5
q-8 5 -11.5 13.5t1.5 19.5zM274 759q-12 -6 -13.5 -2t2 12t9 17t7.5 12q13 17 26.5 32t26.5 31q16 19 40 11q12 -3 16 -9.5t-3 -14.5q-21 -25 -43.5 -48.5t-55.5 -37.5l-6 -2t-6 -1z" />
    <glyph glyph-name="iacute" unicode="&#xed;" horiz-adv-x="157" 
d="M178 273q-3 2 -7 3t-9 -1q-5 0 -11 -3t-11 -6q-12 -10 -24.5 -18.5t-24.5 -17.5q-4 -3 -12.5 -10t-16.5 -12.5t-12.5 -6.5t-0.5 10q8 23 20.5 52t21.5 53q4 11 7 18t-4 13q-9 10 -19.5 12.5t-22.5 4.5q-10 2 -21 1t-18 -12q-13 -41 -28 -79t-26 -81q-2 -9 -1.5 -18
t0.5 -17q1 -11 5 -19t12 -16q17 -11 36 -8q17 0 24 13q1 2 14 13.5t28.5 25.5t30 26.5t19.5 16.5q14 13 26 25t25 24q2 4 3 8t-3 6zM65 501q-12 -6 -13.5 -2t2 12t9 17t7.5 12q13 17 26.5 32t26.5 31q16 19 40 11q12 -3 16 -9.5t-3 -14.5q-21 -25 -43.5 -48.5t-55.5 -37.5
l-6 -2t-6 -1z" />
    <glyph glyph-name="oacute" unicode="&#xf3;" horiz-adv-x="178" 
d="M129 243q-17 -37 -41.5 -59t-53.5 -45q-9 -6 -18.5 -11.5t-20.5 -10.5q-22 -11 -48.5 -3t-42.5 30q-14 22 -11 41.5t10 40.5q16 35 34.5 68t43.5 62q15 15 30 27q17 14 36 4q5 -2 8.5 -5.5t7.5 -4.5q58 -11 74 -75q8 -1 17 -1t17 -2l16 -4t15 -6q10 -3 8 -12t-8 -13
q-11 -8 -23.5 -10.5t-25.5 -5.5q-6 -2 -12 -2.5t-12 -2.5zM51 244q-17 14 -32.5 11t-27 -15.5t-19 -29t-8.5 -29.5q-1 -14 12 -9t29.5 18t31 29t14.5 25zM60 327l-2.5 -5t-0.5 -1.5t-0.5 -1.5l-2.5 -5t-1.5 -9t7.5 -9q19 -2 25.5 9t4.5 21.5t-10.5 14t-19.5 -13.5zM67 426
q-12 -6 -13.5 -2t2 12t9 17t7.5 12q13 17 26.5 32t26.5 31q16 19 40 11q12 -3 16 -9.5t-3 -14.5q-21 -25 -43.5 -48.5t-55.5 -37.5l-6 -2t-6 -1z" />
    <glyph glyph-name="Oacute" unicode="&#xd3;" horiz-adv-x="525" 
d="M30 167q16 61 33 127t39 127.5t51 114.5t68.5 88.5t92 48.5t121.5 -5q47 -21 78 -54t39 -90q5 -32 -2.5 -62.5t-18.5 -57.5q-22 -57 -53.5 -110.5t-70 -103t-82 -92.5t-88.5 -79q-18 -11 -39.5 -18t-43 -8.5t-43 2t-39.5 13.5q-30 18 -41 53t-1 106zM169 308q-2 0 -5 2
t-5 2q-11 -29 -21.5 -56.5t-16.5 -55.5q-15 -59 -21 -123q-2 -29 12 -39t41 4q18 13 36.5 25t33.5 26q55 60 96.5 106.5t71 91t49.5 93t34 111.5q6 31 8.5 57t-16.5 52q-20 23 -51 28.5t-57 -9.5q-18 -11 -29.5 -25.5t-20 -31t-15 -35t-12.5 -39.5q-24 -74 -35 -151
t-19 -155q-1 -5 -1.5 -11.5t-2 -12t-5 -9t-10.5 -3.5q-8 1 -18.5 9.5t-10.5 16.5q-8 24 -9.5 46.5t-3.5 46.5q-1 10 0 19.5t3 19.5zM366 771q-12 -6 -13.5 -2t2 12t9 17t7.5 12q13 17 26.5 32t26.5 31q16 19 40 11q12 -3 16 -9.5t-3 -14.5q-21 -25 -43.5 -48.5t-55.5 -37.5
l-6 -2t-6 -1z" />
    <glyph glyph-name="uacute" unicode="&#xfa;" horiz-adv-x="289" 
d="M125 240q-10 -16 -24.5 -31.5t-31 -26.5t-34 -16.5t-33.5 -0.5q-29 8 -37 26.5t0 50.5q10 31 19 60.5t19 58.5q17 41 40 41q19 0 32 -10.5t5 -21.5q-7 -10 -17.5 -29.5t-19.5 -40.5t-14.5 -38t-2.5 -23q11 -9 25.5 -2.5t22.5 15.5q5 6 14.5 17.5t19.5 24.5l20 26t16 24
q9 16 17.5 26.5t22.5 -1.5q13 -13 21 -26t0 -37q-6 -17 -11.5 -36t-8.5 -39q-2 -15 -1.5 -31t0.5 -42q16 9 30.5 20t26 21t20 18.5t11.5 12.5q7 7 14 6.5t9.5 -6.5t-2.5 -18t-21 -28q-8 -8 -22.5 -21.5t-31 -26t-32.5 -21.5t-27 -9q-25 1 -33.5 11.5t-10.5 39.5
q-1 18 3 39.5t7 43.5zM118 428q-12 -6 -13.5 -2t2 12t9 17t7.5 12q13 17 26.5 32t26.5 31q16 19 40 11q12 -3 16 -9.5t-3 -14.5q-21 -25 -43.5 -48.5t-55.5 -37.5l-6 -2t-6 -1z" />
    <glyph glyph-name="Uacute" unicode="&#xda;" horiz-adv-x="695" 
d="M246 102q13 4 37 27.5t54 58.5t63 79t65.5 89t62 88t51.5 77q9 18 17.5 39.5t16.5 44.5q0 13 -1 26.5t0.5 25.5t7.5 23t20 20q12 8 24 13q17 1 31 -4.5t22.5 -15.5t11 -24t-2.5 -30q-28 -81 -56.5 -163t-56.5 -165q-24 -68 -49.5 -134t-49.5 -134q-9 -26 -15.5 -54.5
t-12.5 -55.5q-2 -6 -3.5 -11.5t-4.5 -10t-7.5 -7.5t-13.5 -4q-17 0 -28.5 6.5t-13.5 23.5q-8 39 -1 77t19 75.5t26 74.5t21 75q2 6 3.5 12.5t-0.5 11.5q-10 -11 -23 -29.5t-27.5 -38t-28 -37.5t-23.5 -29q-17 -15 -31.5 -28.5t-33.5 -26.5q-29 -19 -59.5 -18t-62.5 16
q-30 17 -44 39.5t-10 55.5q3 18 10 43.5t15 52.5t16 53t14 45q13 55 31.5 111t35.5 110q2 4 2.5 8t2.5 8q10 23 21.5 28.5t30.5 -0.5q26 -9 31.5 -20.5t-2.5 -33.5q-12 -42 -27.5 -90.5t-31 -99t-30.5 -99t-26 -90.5q0 -9 -3 -21t-4 -24t3 -22.5t17 -16.5zM464 716
q-12 -6 -13.5 -2t2 12t9 17t7.5 12q13 17 26.5 32t26.5 31q16 19 40 11q12 -3 16 -9.5t-3 -14.5q-21 -25 -43.5 -48.5t-55.5 -37.5l-6 -2t-6 -1z" />
    <glyph glyph-name="Yacute" unicode="&#xdd;" horiz-adv-x="451" 
d="M145 451q10 -5 26.5 3.5t37 26.5t43.5 42.5t46 51.5t44.5 53t39.5 47q15 9 36.5 12t44.5 -3q16 -5 22 -13t3 -24q-10 -54 -20.5 -113t-21.5 -113q-2 -19 -8.5 -37t-12.5 -37q-7 -25 -14.5 -48t-15.5 -47q-14 -41 -30.5 -81t-33.5 -80q-17 -41 -36.5 -79.5t-50.5 -74.5
q-24 -27 -52.5 -42t-61.5 -21q-39 -7 -60.5 16t-27.5 61t2.5 83.5t29.5 83.5q32 50 64.5 91.5t76.5 83.5q20 17 41 32t42 29q33 18 54 51.5t33.5 70t18.5 69t9 48.5q-18 -16 -45.5 -46t-57.5 -62t-58.5 -61t-49.5 -42q-21 -14 -42.5 -13t-40 12t-31 29.5t-14.5 41.5
q-4 9 -3 27t5.5 41t11.5 48.5t15 48.5q6 16 17 29t25 21t29 11.5t29 1.5q22 -5 26 -14t-7 -27q-11 -21 -27.5 -50t-30.5 -57t-20.5 -51t1.5 -30zM323 310q-4 -1 -7 -1t-5 -1q-3 -3 -6.5 -4.5t-6.5 -4.5q-18 -21 -40.5 -47.5t-44.5 -55t-42 -56.5t-32 -52q-14 -28 -24 -58.5
t-11 -63.5q10 -29 29.5 -20.5t43 39.5t48.5 77t46 94t35 90t17 64zM296 739q-12 -6 -13.5 -2t2 12t9 17t7.5 12q13 17 26.5 32t26.5 31q16 19 40 11q12 -3 16 -9.5t-3 -14.5q-21 -25 -43.5 -48.5t-55.5 -37.5l-6 -2t-6 -1z" />
    <glyph glyph-name="yacute" unicode="&#xfd;" horiz-adv-x="229" 
d="M40 265q-11 -8 -28 -25.5t-37.5 -33.5t-41 -24t-37.5 3q-8 5 -10.5 22t-1 40t5.5 48.5t9 47t10 37t9 17.5q24 8 42 1t13 -38q-1 -4 -4.5 -19.5t-8 -34.5t-8 -36.5t-4.5 -24.5q9 8 26 25.5t35.5 36t34.5 35t23 22.5t14.5 12t15.5 11q13 6 22.5 4t15.5 -9t8 -16.5t-2 -16.5
q0 -4 -5 -19t-12 -32t-12.5 -33.5t-6.5 -23.5q12 6 36 19.5t49 26t47.5 19.5t31.5 1q13 -9 11 -13t-13 -9q-18 -8 -38 -19t-39 -23t-36 -23.5t-29 -21.5q-25 -17 -37.5 -42.5t-23.5 -56.5q-25 -81 -54 -160l-58 -158q-5 -14 -15 -29t-24 -23q-28 -16 -48.5 -1t-27.5 53
q-10 51 -1.5 97.5t24.5 92.5q24 66 59.5 119t77.5 99q7 8 18 20t19 23.5t11 20.5t-5 12zM-1 102q-20 -18 -42 -55.5t-39.5 -80.5t-26.5 -84t-3 -65q10 28 25.5 66.5t31.5 78.5t30.5 77.5t23.5 62.5zM36 473q-12 -6 -13.5 -2t2 12t9 17t7.5 12q13 17 26.5 32t26.5 31
q16 19 40 11q12 -3 16 -9.5t-3 -14.5q-21 -25 -43.5 -48.5t-55.5 -37.5l-6 -2t-6 -1z" />
    <glyph glyph-name="Euro" unicode="&#x20ac;" horiz-adv-x="482" 
d="M92 280q-13 2 -24.5 4.5t-23.5 7.5q-8 4 -17 12t-10 16q-3 14 8 18t23 6q11 1 23 2t24 3q13 3 20 5t11 7t7 14t7 26q-14 -2 -27 -3t-25 -1q-9 -2 -17.5 -2.5t-17.5 0.5q-13 3 -25.5 7.5t-12.5 21.5t11.5 20t24.5 6q24 4 48.5 9t50.5 10q31 4 48 31q20 31 41.5 60t45.5 56
q35 39 79 53.5t96 6.5q9 -2 18.5 -4.5t17.5 -7.5q6 -3 12 -7t10.5 -9t5.5 -11.5t-3 -13.5q-5 -9 -17.5 -16t-24.5 -7q-13 -1 -27.5 5t-32.5 11q-39 -16 -66 -48t-54 -72q18 -2 35 -0.5t33 0.5t31 -6t29 -20q-10 -5 -18.5 -10t-17.5 -7q-22 -5 -44.5 -11t-45.5 -8
q-26 -4 -42 -17t-20 -42l40 2t41 1q8 2 15.5 2.5t15.5 -2.5q6 -2 12 -8t13 -11q-4 -5 -8 -12.5t-9 -9.5q-28 -11 -56 -21t-57 -15q-26 -5 -39.5 -16t-18.5 -37q-5 -34 -9 -67.5t2 -67.5q8 -35 30 -49t55 -3q23 8 44.5 20t43.5 23q8 5 17 11t20 9q7 2 16.5 3t14.5 -3
q11 -8 7 -17t-12 -17q-11 -11 -21 -23t-22 -21q-46 -34 -96 -44.5t-107 7.5q-48 16 -74.5 50t-24.5 84q2 34 8.5 68t11.5 69z" />
    <glyph glyph-name="yen" unicode="&#xa5;" horiz-adv-x="524" 
d="M120 143q-16 5 -27.5 8.5t-22.5 10.5q-7 4 -12 11.5t-5 14.5q-2 4 6 10t15 9q10 4 20.5 5.5t22.5 2.5q16 2 24.5 4t14 7t8.5 14t7 26q-24 5 -47.5 9.5t-46.5 9.5q-9 2 -17.5 5.5t-15.5 8.5q-5 2 -9.5 9t-2.5 12q3 6 8.5 11.5t12.5 6.5q8 3 17 2.5t17 -0.5
q17 -2 33.5 -4.5t33.5 -2.5q21 -1 33.5 -0.5t20 6.5t12.5 19t11 37q-40 24 -70 56t-55.5 68t-48 75t-46.5 77q34 13 53.5 9.5t36.5 -26.5q21 -29 39 -59t38 -58q17 -23 34.5 -46t44.5 -40l17 36q17 37 32.5 73.5t32.5 72.5q11 25 27.5 33.5t34.5 4.5q38 -10 22 -50
q-27 -63 -53 -127l-52 -128q-2 -2 -2 -6v-8q24 -4 49 0.5t49 7.5t47 -1.5t44 -26.5q-3 -10 -8.5 -15t-11.5 -7.5t-12.5 -3.5t-12.5 -2q-39 -5 -79 -12t-82 -12q-20 -3 -25 -15t-12 -27q16 -6 34 -5.5t36 0t35 -6t32 -23.5q-11 -6 -20.5 -12t-19.5 -8q-24 -7 -49.5 -12
t-49.5 -7q-20 -3 -32.5 -11.5t-18.5 -28.5q-8 -26 -17 -50t-18 -49q-5 -14 -15 -23t-22.5 -13t-26 -2.5t-23.5 10.5q-5 5 -7.5 15t-0.5 16q1 14 5.5 28t9.5 28t11.5 28t14.5 31z" />
    <glyph glyph-name="sterling" unicode="&#xa3;" horiz-adv-x="451" 
d="M414 31q-41 13 -74.5 19t-69 4t-76.5 -13t-96 -33q-14 -3 -28 1.5t-23 12.5q-4 5 0 21t10 25q17 23 20 47.5t2 51.5q-2 34 0.5 68.5t4.5 70.5q-10 5 -23 8.5t-25 11.5q-6 5 -10.5 14t-6.5 17q0 5 10 9.5t18 6.5q21 4 32.5 6.5t18 8.5t10.5 17t10 31q11 35 23 69t29 66
q15 30 39 52t52 33.5t59 13t60 -8.5q9 -3 17 -6t16 -8q4 -4 9 -11t3 -12q-3 -5 -8.5 -11t-12.5 -8q-17 -4 -39 -1q-37 5 -62.5 -7t-43.5 -47q-23 -39 -37 -81t-19 -91q23 -3 46 -2t45.5 -0.5t43.5 -8t39 -23.5q-2 -20 -13 -24t-24 -6q-25 -2 -48.5 -3.5t-48.5 -3.5
q-13 0 -26 -0.5t-32 -2.5q0 -17 -1.5 -41.5t-3.5 -51l-4 -53t-3 -45.5q31 8 62.5 6.5t62.5 -8.5t61.5 -17t60.5 -17q24 -6 33.5 -16t7.5 -18t-14.5 -12.5t-32.5 0.5z" />
    <glyph glyph-name="currency" unicode="&#xa4;" horiz-adv-x="473" 
d="M275 160q14 -20 21.5 -39.5t-5.5 -42.5q-13 -22 -42 -17q-14 3 -20.5 11t-9 18t-4 21t-6.5 20q-16 5 -28 1.5t-24 -14.5q-8 -9 -16 -18.5t-17 -15.5q-19 -18 -43 -19q-17 -3 -23.5 8.5t2.5 27.5q2 6 6 11l8 10q3 5 6.5 11.5t7.5 14.5q-21 14 -30.5 30.5t-10 34t5 36.5
t14.5 38q10 22 23.5 43.5t27.5 44.5q-16 13 -31.5 25.5t-31.5 26.5q20 17 38 15t35 -11q20 -14 40 -18.5t43 -2.5q14 2 30.5 -3t30.5 -12q13 -6 25 -9.5t24 -3.5t23 5.5t22 18.5q6 7 19 10t24 1q27 -4 32 -18t-15 -35q-7 -6 -14 -10.5t-14 -9.5q16 -21 24 -35t7 -25.5
t-11.5 -21.5t-29.5 -24q-26 -21 -53.5 -39t-59.5 -39zM147 193q51 9 88.5 34.5t74.5 54.5q9 8 13.5 17t-3.5 21q-7 11 -16.5 18t-26.5 -1q-11 -4 -21.5 -4t-21.5 -1q-8 0 -16 -0.5t-13 -5.5q-26 -27 -42 -59t-16 -74z" />
    <glyph glyph-name="ring" unicode="&#x2da;" horiz-adv-x="228" 
d="M55 493q6 13 19.5 19.5t29 7t31 -4t25.5 -13.5q1 -2 3.5 -3.5t4.5 -5.5q12 -9 6 -25q-12 -35 -47 -59q-5 -3 -12.5 -6.5t-15.5 -5.5q-15 -3 -27.5 0.5t-23.5 17.5q-13 14 -5 34q5 22 12 44zM79 453q-4 -12 5 -9.5t20 11t19.5 17.5t4.5 10q-9 2 -15 4.5t-11.5 1t-10.5 -9
t-12 -25.5z" />
    <glyph glyph-name="Aring" unicode="&#xc5;" horiz-adv-x="594" 
d="M323 257q-22 -30 -41.5 -58t-38.5 -57q-3 -3 -5 -7t-5 -7q-19 -15 -31.5 -34t-23.5 -39q-3 -6 -7 -11.5t-8 -10.5q-11 -11 -20 -21t-16 -24q-4 -8 -15 -6q-5 2 -8.5 7.5t-1.5 10.5q4 15 8.5 29.5t12.5 27.5l84 135q8 13 17 25.5t14 30.5h-24q-8 0 -17 -0.5t-18 -0.5
q-21 0 -35 11t-23 29q-4 8 -6.5 16.5t-4.5 16.5t4 16t14 10h14q42 3 83.5 5t83.5 5q2 0 11 3q25 38 49.5 76.5t48.5 76.5q19 30 35 61t26 66q5 14 13 26.5t15 26.5q2 4 8 6t11 3q20 1 35.5 -10.5t21.5 -29.5q3 -11 0 -21q-5 -20 -9 -39t-10 -38q-14 -51 -23.5 -102.5
t-21.5 -103.5q-2 -5 1.5 -10t10.5 -6q13 -2 26 -4.5t25 -7.5q20 -9 7 -28q-9 -14 -25 -17q-11 -2 -23 -4.5t-24 -3.5q-21 -4 -27 -26q-10 -37 -20 -73.5t-21 -74.5q-5 -20 -11.5 -40t-11.5 -40l-6 -24t-5 -23q-4 -17 -9.5 -33.5t-17.5 -30.5q-5 -7 -13.5 -6t-12.5 8
q-10 18 -14.5 37t-2.5 39l6 46t8 46q9 38 19 76t20 77q2 8 4 13q2 9 -2.5 14.5t-14.5 4.5q-28 -3 -62 -9zM437 411q-20 -7 -26.5 -22t-12.5 -32h29q4 14 7.5 27t2.5 27zM538 846q6 13 19.5 19.5t29 7t31 -4t25.5 -13.5q1 -2 3.5 -3.5t4.5 -5.5q12 -9 6 -25q-12 -35 -47 -59
q-5 -3 -12.5 -6.5t-15.5 -5.5q-15 -3 -27.5 0.5t-23.5 17.5q-13 14 -5 34q5 22 12 44zM562 806q-4 -12 5 -9.5t20 11t19.5 17.5t4.5 10q-9 2 -15 4.5t-11.5 1t-10.5 -9t-12 -25.5z" />
    <glyph glyph-name="aring" unicode="&#xe5;" 
d="M50 206q-13 -5 -21.5 -9t-16.5 -7q-11 -5 -21.5 -4t-21.5 4q-14 5 -22 15.5t-6 24.5q4 21 8 43t12 43q11 32 45 38q8 3 17 4.5t17 2.5q10 2 20 2t21 1q4 5 7.5 10.5t8.5 10.5q22 32 57 16q2 -2 5 -3.5t5 -3.5q15 -9 9 -27q-9 -19 -17.5 -43.5t-14 -50.5t-6.5 -50.5
t4 -43.5q0 -2 1 -3.5t2 -3.5q8 -6 23.5 -1.5t23.5 9.5q26 17 48 36.5t36 31.5q2 2 6 3.5t8 -0.5q8 -4 6.5 -13t-6.5 -14q-23 -26 -46 -51.5t-52 -46.5q-20 -15 -45 -20t-51 6q-17 7 -28 20t-13 33q0 8 -0.5 17.5t-1.5 23.5zM63 318q-27 7 -40 -12q-8 -11 -12 -23t-7 -26
q-3 -9 0.5 -10t9 1t11 5t6.5 4q34 17 32 61zM103 565q6 13 19.5 19.5t29 7t31 -4t25.5 -13.5q1 -2 3.5 -3.5t4.5 -5.5q12 -9 6 -25q-12 -35 -47 -59q-5 -3 -12.5 -6.5t-15.5 -5.5q-15 -3 -27.5 0.5t-23.5 17.5q-13 14 -5 34q5 22 12 44zM127 525q-4 -12 5 -9.5t20 11
t19.5 17.5t4.5 10q-9 2 -15 4.5t-11.5 1t-10.5 -9t-12 -25.5z" />
    <glyph glyph-name="Ccedilla" unicode="&#xc7;" horiz-adv-x="377" 
d="M252 441q-20 -26 -36.5 -53t-33.5 -54q-28 -45 -48 -93t-38 -97q-9 -26 -13 -52.5t-5 -53.5q-1 -3 0.5 -5.5t2.5 -4.5q6 -3 10 -2t8 3q26 15 48.5 33t45.5 37l126 103q7 5 14.5 8.5t15.5 7.5q1 1 3.5 0.5t4.5 -1.5q2 -2 4 -5t1 -5q-5 -15 -12 -29.5t-19 -26.5l-118 -126
q-16 -16 -32 -26q5 -2 11 -5t11 -7q6 -2 9 -9q2 -3 3.5 -6.5t1.5 -6.5q2 -11 1 -17t-12 -14q-8 -6 -19.5 -9t-22 -2t-19 7t-11.5 18v8q2 7 9 2q2 0 4 -2q13 -11 31 -7.5t23 17.5q1 3 -0.5 5.5t-3.5 2.5q-8 5 -17 8t-19 5l-24 -14q-9 -5 -20.5 -6.5t-22.5 0.5q-38 8 -63 26.5
t-33 56.5q-5 25 1 47q3 19 8 37.5t11 36.5q20 59 48 115t61 110q55 93 120 183q5 7 9 13.5t8 13.5q5 7 9.5 14t10.5 11q17 11 27.5 25.5t19.5 31.5q12 20 38 12q13 -5 22 -13t17 -18q7 -10 1 -19q-5 -11 -10 -20.5t-10 -19.5q-23 -43 -40 -87.5t-20 -93.5v-4q-2 -7 -3 -13.5
t-9 -10.5q-10 -5 -19 -1.5t-17 10.5q-8 6 -14.5 14t-14.5 17z" />
    <glyph glyph-name="ccedilla" unicode="&#xe7;" horiz-adv-x="235" 
d="M245 212q1 -13 -7.5 -20.5t-21.5 -16.5q-22 -17 -45 -27t-48 -16l10 -6q6 -2 9 -9q2 -3 3.5 -6.5t1.5 -6.5q2 -11 1 -17t-12 -14q-8 -6 -19.5 -9t-22 -2t-19 7t-11.5 18v8q2 7 9 2q2 0 4 -2q13 -11 31 -7.5t23 17.5q1 3 -0.5 5.5t-3.5 2.5q-8 5 -16.5 7.5t-17.5 4.5
q-18 -2 -31 5q-9 5 -18 8.5t-17 9.5q-14 10 -23.5 18.5t-14 18t-4.5 22t4 30.5q6 29 24.5 59t44 50t55 24.5t59.5 -17.5q5 -3 8 -7.5t7 -9.5q7 -11 2 -16t-16 -9q-5 -1 -13 -1q-24 -1 -45.5 -13.5t-36 -31.5t-19.5 -42t4 -45q5 -8 13 -9.5t13 -0.5q31 6 58 20.5t56 30.5
q14 10 25.5 10.5t16.5 -17.5z" />
    <glyph glyph-name="Oslash" unicode="&#xd8;" horiz-adv-x="525" 
d="M7 167q16 61 33 127t39 127.5t51 114.5t68.5 88.5t92 48.5t121.5 -5q0 -1 1 -1q5 2 9 -4q43 -21 71 -53t36 -86q5 -32 -2.5 -62.5t-18.5 -57.5q-22 -57 -53.5 -110.5t-70 -103t-82 -92.5t-88.5 -79q-25 -15 -55.5 -22t-59.5 -4q-10 -12 -17 -12q-10 3 -10 18q-13 3 -23 9
q-30 18 -41 53t-1 106zM130 42q18 13 36.5 25t33.5 26q55 60 96.5 106.5t71 91t49.5 93t34 111.5q6 31 8.5 57t-16.5 52l-6 6q0 -2 -0.5 -3t-0.5 -3q-2 -8 -6 -16.5t-8 -16.5q-33 -57 -65 -114t-65 -115q-20 -35 -40 -68t-40 -68l-8 -14v-6q-1 -5 -1.5 -11.5t-2 -12t-5 -9
t-10.5 -3.5h-3q-15 -27 -29.5 -54.5t-28.5 -56.5zM335 623q-18 -11 -29.5 -25.5t-20 -31t-15 -35t-12.5 -39.5q-14 -43 -23.5 -87.5t-15.5 -89.5q42 81 84.5 159.5t85.5 158.5q-31 3 -54 -10zM146 308q-2 0 -5 2t-5 2q-11 -29 -21.5 -56.5t-16.5 -55.5q-15 -59 -21 -123
q-1 -21 7 -34q14 32 27.5 63.5t29.5 59.5l11 22q-5 20 -6.5 40t-2.5 41q-1 10 0 19.5t3 19.5z" />
    <glyph glyph-name="oslash" unicode="&#xf8;" horiz-adv-x="253" 
d="M-4 90l13 25q-22 9 -37 29q-14 22 -11 41.5t10 40.5q16 35 34.5 68t43.5 62q15 15 30 27q17 14 36 4q5 -2 8.5 -5.5t7.5 -4.5q14 -3 26 -9q2 4 4 7t4 7q5 8 8 12t5 -1q2 -4 2.5 -10t-3.5 -18l-4 -8q23 -20 32 -55q8 -1 17 -1t17 -2l16 -4t15 -6q10 -3 8 -12t-8 -13
q-11 -8 -23.5 -10.5t-25.5 -5.5l-24 -5q-17 -37 -41.5 -59t-53.5 -45q-9 -6 -18.5 -11.5t-20.5 -10.5q-18 -9 -39 -6l-16 -26q-5 -7 -8 -11.5t-6 -4.5q-2 2 -1.5 6t3.5 15zM32 181q-1 -10 9 -10l48 84q-12 -1 -22 -9t-17.5 -19t-12 -23.5t-5.5 -22.5zM119 244l-11 7l-6 -10
q-9 -15 -18.5 -29.5t-19.5 -29.5q19 13 36.5 32t18.5 30zM157 330l-21 -35q16 2 20.5 14t0.5 21zM128 327l-2.5 -5t-0.5 -1.5t-0.5 -1.5l-2.5 -5q-4 -4 -2 -8l19 33q-5 -4 -11 -12z" />
    <glyph glyph-name="quotedblright" unicode="&#x201d;" horiz-adv-x="190" 
d="M32 607q2 15 2 31t2 32q0 10 8 16q19 15 37 -3q15 -17 7 -42q-4 -11 -7.5 -23.5t-8.5 -25.5t-14.5 -15.5t-17.5 -1.5q-11 2 -11 11.5t3 20.5zM109 607q2 15 2 31t2 32q0 10 8 16q19 15 37 -3q15 -17 7 -42q-4 -11 -7.5 -23.5t-8.5 -25.5t-14.5 -15.5t-17.5 -1.5
q-11 2 -11 11.5t3 20.5z" />
    <glyph glyph-name="quotedblleft" unicode="&#x201c;" horiz-adv-x="190" 
d="M32 607q2 15 2 31t2 32q0 10 8 16q19 15 37 -3q15 -17 7 -42q-4 -11 -7.5 -23.5t-8.5 -25.5t-14.5 -15.5t-17.5 -1.5q-11 2 -11 11.5t3 20.5zM109 607q2 15 2 31t2 32q0 10 8 16q19 15 37 -3q15 -17 7 -42q-4 -11 -7.5 -23.5t-8.5 -25.5t-14.5 -15.5t-17.5 -1.5
q-11 2 -11 11.5t3 20.5z" />
    <glyph glyph-name="quoteright" unicode="&#x2019;" horiz-adv-x="117" 
d="M32 607q2 15 2 31t2 32q0 10 8 16q19 15 37 -3q15 -17 7 -42q-4 -11 -7.5 -23.5t-8.5 -25.5t-14.5 -15.5t-17.5 -1.5q-11 2 -11 11.5t3 20.5z" />
    <glyph glyph-name="quoteleft" unicode="&#x2018;" horiz-adv-x="117" 
d="M32 607q2 15 2 31t2 32q0 10 8 16q19 15 37 -3q15 -17 7 -42q-4 -11 -7.5 -23.5t-8.5 -25.5t-14.5 -15.5t-17.5 -1.5q-11 2 -11 11.5t3 20.5z" />
    <glyph glyph-name="otilde" unicode="&#xf5;" horiz-adv-x="178" 
d="M129 243q-17 -37 -41.5 -59t-53.5 -45q-9 -6 -18.5 -11.5t-20.5 -10.5q-22 -11 -48.5 -3t-42.5 30q-14 22 -11 41.5t10 40.5q16 35 34.5 68t43.5 62q15 15 30 27q17 14 36 4q5 -2 8.5 -5.5t7.5 -4.5q58 -11 74 -75q8 -1 17 -1t17 -2l16 -4t15 -6q10 -3 8 -12t-8 -13
q-11 -8 -23.5 -10.5t-25.5 -5.5q-6 -2 -12 -2.5t-12 -2.5zM51 244q-17 14 -32.5 11t-27 -15.5t-19 -29t-8.5 -29.5q-1 -14 12 -9t29.5 18t31 29t14.5 25zM60 327l-2.5 -5t-0.5 -1.5t-0.5 -1.5l-2.5 -5t-1.5 -9t7.5 -9q19 -2 25.5 9t4.5 21.5t-10.5 14t-19.5 -13.5zM132 459
q6 0 12.5 5.5t12.5 12.5t11.5 13t9.5 6q18 2 22 -6t-3 -24q-7 -15 -21.5 -25.5t-31.5 -14t-34.5 -1t-31.5 13.5l-12.5 10l-12.5 10q-14 -13 -26 -15t-26 17q23 42 55 39t76 -41z" />
    <glyph glyph-name="exclamdown" unicode="&#xa1;" horiz-adv-x="221" 
d="M113.993 -8q-6 -24.998 -29.998 -20.998q-8 1 -14.499 2q-6.5 1 -13.5 3q-18.998 7.99902 -23.998 16.998q-5 9 0 28.999q10.999 41.9971 21.999 82.9941q10.999 40.998 21.998 81.9951q9 31.998 16.499 63.9961q7.5 31.998 15.499 62.9961q9 46.9971 35.998 41.998
q6 0 7.99902 -3.5q2 -3.5 2.5 -8.99902q0.5 -5.5 0.5 -13.5q0 -7.99902 2 -17.999q2 -45.9971 -1.5 -87.4941t-9.99902 -80.4951q-6.5 -38.998 -14.999 -76.4951q-8.5 -37.498 -16.499 -75.4961zM190.988 442.973q0 -2 -0.5 -4.49902q-0.5 -2.5 -1.5 -6.5
q-5 -22.999 -18.999 -28.998q-13.999 -6 -39.9971 2q-23.999 5.99902 -15.999 23.998q5 8 8.99902 16.499q4 8.5 8 16.499q5 8 14.999 11.999q9.99902 4 20.999 2q24.998 -4 23.998 -32.998z" />
    <glyph glyph-name="questiondown" unicode="&#xbf;" horiz-adv-x="299" 
d="M208.987 387.977q18.999 1 33.498 -5t22.498 -16.999q8 -10.999 8.5 -25.998t-8.5 -31.998q-9.99902 -22.999 -26.498 -43.498q-16.499 -20.498 -33.498 -40.4971t-37.4971 -36.498q-20.499 -16.499 -39.498 -35.498q-10.999 -11.999 -19.999 -24.998
q-8.99902 -12.999 -16.999 -26.998q-7.99902 -15.999 -2.5 -25.499q5.5 -9.49902 21.499 -10.499q26.998 -2 45.9971 10.999t34.998 31.998q8 11 16.499 17.499q8.49902 6.5 22.499 1.5q34.9971 -10.999 19.998 -45.9971q-6.99902 -18.999 -20.498 -33.998
q-13.5 -14.999 -29.998 -23.998q-16.499 -9 -35.498 -11.5q-18.999 -2.49902 -38.998 3.5q-23.998 7 -45.4971 17.499t-38.498 29.498q-22.998 22.999 -25.498 47.9971q-2.5 24.999 17.499 50.9971q16.999 20.999 47.9971 43.9971q30.998 22.999 60.4961 50.4971
t49.9971 60.4961t17.499 72.9961zM264.983 476.971q3 -10.999 -3.99902 -14.999q-7 -4 -19.999 -4q-20.999 0 -39.498 9q-18.498 8.99902 -17.499 19.999q0 9.99902 14 18.998q13.999 9 27.998 10q36.998 2 38.9971 -38.998z" />
    </font>
</defs>
</svg>
